SplineFontDB: 3.2
FontName: UnicodiaSesh
FullName: UnicodiaSesh
FamilyName: UnicodiaSesh
Weight: Book
Copyright: 
Version: 1.0
ItalicAngle: 0
UnderlinePosition: -55
UnderlineWidth: 0
Ascent: 2000
Descent: 48
InvalidEm: 0
sfntRevision: 0x00000000
LayerCount: 2
Layer: 0 1 "+BBcEMAQ0BD0EOAQ5 +BD8EOwQwBD0A" 1
Layer: 1 1 "+BB8ENQRABDUENAQ9BDgEOQAA +BD8EOwQwBD0A" 0
XUID: [1021 59 1751208496 6895]
StyleMap: 0x0040
FSType: 8
OS2Version: 1
OS2_WeightWidthSlopeOnly: 0
OS2_UseTypoMetrics: 0
CreationTime: 1304950291
ModificationTime: 1693342130
PfmFamily: 17
TTFWeight: 400
TTFWidth: 5
LineGap: 184
VLineGap: 0
Panose: 2 0 5 3 0 0 0 0 0 0
OS2TypoAscent: 2000
OS2TypoAOffset: 0
OS2TypoDescent: -48
OS2TypoDOffset: 0
OS2TypoLinegap: 184
OS2WinAscent: 2000
OS2WinAOffset: 0
OS2WinDescent: 0
OS2WinDOffset: 0
HheadAscent: 2000
HheadAOffset: 0
HheadDescent: -1
HheadDOffset: 0
OS2SubXSize: 1331
OS2SubYSize: 1433
OS2SubXOff: 0
OS2SubYOff: 286
OS2SupXSize: 1331
OS2SupYSize: 1433
OS2SupXOff: 0
OS2SupYOff: 983
OS2StrikeYSize: 102
OS2StrikeYPos: 530
OS2Vendor: 'PfEd'
OS2CodePages: 00000001.00000000
OS2UnicodeRanges: 00000000.02000000.00000000.00000000
MarkAttachClasses: 1
DEI: 91125
ShortTable: maxp 16
  1
  0
  1074
  1031
  56
  0
  0
  2
  0
  1
  1
  0
  64
  0
  0
  0
EndShort
LangName: 1033 "" "" "Regular" "" "" "Version 1.0"
GaspTable: 1 65535 2 0
Encoding: UnicodeFull
Compacted: 1
UnicodeInterp: none
NameList: AGL For New Fonts
DisplaySize: -48
AntiAlias: 1
FitToEm: 0
WinInfo: 33 33 14
BeginPrivate: 0
EndPrivate
BeginChars: 1114115 1074

StartChar: u13000
Encoding: 77824 77824 3
Width: 1805
GlyphClass: 2
Flags: W
LayerCount: 2
Fore
SplineSet
1030 1767 m 1,0,1
 1022 1757 1022 1757 1030 1744 c 1,2,3
 1018 1748 1018 1748 1009 1754 c 1,4,5
 1011 1763 1011 1763 1030 1767 c 1,0,1
1058 1763 m 1,6,-1
 1088 1746 l 1,7,8
 1071 1742 1071 1742 1054 1742 c 1,9,10
 1067 1750 1067 1750 1058 1763 c 1,6,-1
1038 1781 m 0,11,12
 1023 1781 1023 1781 1011 1774 c 2,13,-1
 988 1754 l 1,14,-1
 988 1737 l 1,15,-1
 998 1739 l 1,16,17
 1022 1728 1022 1728 1048 1728 c 0,18,19
 1073 1728 1073 1728 1101 1739 c 1,20,-1
 1138 1731 l 1,21,-1
 1138 1750 l 1,22,-1
 1103 1752 l 1,23,24
 1066 1781 1066 1781 1038 1781 c 0,11,12
1263 1776 m 0,25,26
 1273 1776 1273 1776 1271 1764 c 0,27,28
 1268 1744 1268 1744 1252 1726 c 0,29,30
 1236 1707 1236 1707 1222 1701 c 0,31,32
 1218 1699 1218 1699 1217 1699 c 0,33,34
 1212 1699 1212 1699 1222 1713 c 0,35,36
 1233 1727 1233 1727 1227 1727 c 0,37,38
 1225 1727 1225 1727 1222 1726 c 0,39,40
 1219 1724 1219 1724 1217 1724 c 0,41,42
 1210 1724 1210 1724 1217 1737 c 0,43,44
 1225 1754 1225 1754 1242 1769 c 1,45,46
 1256 1776 1256 1776 1263 1776 c 0,25,26
1197 1699 m 1,47,48
 1215 1688 1215 1688 1205 1681 c 0,49,50
 1200 1677 1200 1677 1197 1677 c 0,51,52
 1193 1677 1193 1677 1190 1682 c 0,53,54
 1185 1690 1185 1690 1197 1699 c 1,47,48
1272 1799 m 0,55,56
 1265 1799 1265 1799 1256 1796 c 0,57,58
 1232 1789 1232 1789 1212 1759 c 0,59,60
 1193 1729 1193 1729 1202 1716 c 1,61,62
 1182 1707 1182 1707 1178 1691 c 128,-1,63
 1174 1675 1174 1675 1191 1669 c 0,64,65
 1194 1668 1194 1668 1197 1668 c 0,66,67
 1214 1668 1214 1668 1241 1693 c 0,68,69
 1275 1724 1275 1724 1285 1750 c 0,70,71
 1296 1776 1296 1776 1289 1790 c 0,72,73
 1284 1799 1284 1799 1272 1799 c 0,55,56
994 1676 m 0,74,75
 993 1676 993 1676 993 1675 c 0,76,77
 990 1673 990 1673 990 1667 c 0,78,79
 990 1660 990 1660 984 1658 c 0,80,81
 983 1658 983 1658 982 1658 c 0,82,83
 977 1658 977 1658 971 1664 c 0,84,85
 964 1673 964 1673 958 1673 c 0,86,87
 953 1673 953 1673 951 1671 c 128,-1,88
 949 1669 949 1669 951 1662 c 1,89,90
 953 1663 953 1663 955 1663 c 0,91,92
 960 1663 960 1663 968 1655 c 0,93,94
 975 1647 975 1647 982 1647 c 0,95,96
 986 1647 986 1647 990 1649 c 0,97,98
 1000 1656 1000 1656 998 1667 c 0,99,100
 996 1676 996 1676 994 1676 c 0,74,75
957 1625 m 0,101,102
 960 1625 960 1625 964 1624 c 0,103,104
 977 1622 977 1622 993 1621 c 128,-1,105
 1009 1620 1009 1620 1005 1617 c 2,106,-1
 953 1615 l 2,107,108
 947 1617 947 1617 949 1622 c 0,109,110
 950 1625 950 1625 957 1625 c 0,101,102
1207 1960 m 0,111,112
 1260 1960 1260 1960 1326 1943 c 0,113,114
 1433 1915 1433 1915 1433 1814 c 0,115,116
 1433 1718 1433 1718 1361 1648 c 0,117,118
 1312 1601 1312 1601 1287 1601 c 0,119,120
 1275 1601 1275 1601 1268 1611 c 0,121,122
 1247 1641 1247 1641 1305 1699 c 0,123,124
 1362 1757 1362 1757 1334 1812 c 0,125,126
 1318 1843 1318 1843 1281 1843 c 0,127,128
 1251 1843 1251 1843 1208 1823 c 1,129,130
 1174 1857 1174 1857 1052 1877 c 1,131,132
 1075 1937 1075 1937 1147 1954 c 0,133,134
 1174 1960 1174 1960 1207 1960 c 0,111,112
1003 1611 m 1,135,136
 998 1607 998 1607 986 1601 c 0,137,138
 975 1596 975 1596 966 1596 c 0,139,140
 963 1595 963 1595 960 1595 c 128,-1,141
 957 1595 957 1595 955 1597 c 0,142,143
 953 1600 953 1600 960 1605 c 2,144,-1
 1003 1611 l 1,135,136
1482 1189 m 1,145,146
 1525 1101 1525 1101 1667 915 c 1,147,148
 1605 964 1605 964 1416 996 c 1,149,-1
 1482 1189 l 1,145,146
1033 1840 m 1,150,151
 1131 1834 1131 1834 1193 1789 c 1,152,153
 1192 1769 1192 1769 1201 1769 c 0,154,155
 1208 1769 1208 1769 1224 1786 c 0,156,157
 1248 1810 1248 1810 1270 1810 c 0,158,159
 1279 1810 1279 1810 1289 1806 c 0,160,161
 1320 1791 1320 1791 1297 1745 c 0,162,163
 1275 1699 1275 1699 1238 1667 c 0,164,165
 1202 1634 1202 1634 1221 1602 c 128,-1,166
 1240 1570 1240 1570 1249 1547 c 1,167,168
 1247 1375 1247 1375 1277 1373 c 128,-1,169
 1307 1371 1307 1371 1389 1370 c 0,170,171
 1472 1369 1472 1369 1446 1307 c 128,-1,172
 1420 1245 1420 1245 1343 1026 c 1,173,-1
 1290 1050 l 1,174,175
 1234 1159 1234 1159 1101 1238 c 1,176,-1
 1101 1238 l 1,177,178
 1075 1215 1075 1215 1112 1174 c 1,179,-1
 1069 1086 l 1,180,181
 1063 1035 1063 1035 1112 1003 c 1,182,183
 1178 973 1178 973 1257 973 c 1,184,-1
 1328 925 l 1,185,-1
 1309 544 l 1,186,-1
 1108 499 l 1,187,188
 951 1007 951 1007 920 1050 c 128,-1,189
 889 1093 889 1093 900 1300 c 1,190,191
 898 1369 898 1369 1018 1369 c 0,192,193
 1127 1369 1127 1369 1129 1450 c 0,194,195
 1129 1530 1129 1530 1062 1530 c 0,196,197
 1056 1530 1056 1530 1049 1530 c 0,198,199
 1039 1528 1039 1528 1031 1528 c 0,200,201
 970 1528 970 1528 981 1583 c 1,202,203
 1030 1609 1030 1609 1016 1621 c 0,204,205
 1003 1632 1003 1632 964 1634 c 1,206,207
 966 1656 966 1656 928 1671 c 1,208,209
 964 1752 964 1752 998 1784 c 1,210,211
 1015 1793 1015 1793 1033 1793 c 128,-1,212
 1051 1793 1051 1793 1070 1784 c 0,213,214
 1108 1767 1108 1767 1146 1761 c 1,215,-1
 1146 1776 l 1,216,217
 1120 1778 1120 1778 1084 1798 c 0,218,219
 1062 1811 1062 1811 1038 1811 c 0,220,221
 1023 1811 1023 1811 1007 1806 c 1,222,223
 1022 1827 1022 1827 1033 1840 c 1,150,151
583 763 m 1,224,-1
 994 476 l 1,225,-1
 531 338 l 1,226,227
 546 658 546 658 491 763 c 1,228,-1
 583 763 l 1,224,-1
1320 495 m 1,229,230
 1367 313 1367 313 1262 178 c 1,231,232
 1171 125 1171 125 1057 125 c 0,233,234
 977 125 977 125 885 151 c 128,-1,235
 793 177 793 177 705 177 c 0,236,237
 580 177 580 177 463 124 c 1,238,239
 482 195 482 195 793 358 c 1,240,-1
 1320 495 l 1,229,230
1226 1998 m 0,241,242
 1191 1998 1191 1998 1155 1993 c 0,243,244
 1033 1977 1033 1977 981 1806 c 1,245,246
 949 1767 949 1767 913 1701 c 0,247,248
 891 1658 891 1658 909 1652 c 0,249,250
 928 1645 928 1645 940 1634 c 1,251,252
 928 1626 928 1626 930 1617 c 0,253,254
 932 1609 932 1609 945 1607 c 2,255,-1
 946 1607 l 2,256,257
 949 1607 949 1607 939 1599 c 0,258,259
 928 1590 928 1590 941 1581 c 0,260,261
 955 1572 955 1572 955 1534 c 0,262,263
 955 1499 955 1499 994 1499 c 0,264,265
 996 1499 996 1499 998 1500 c 0,266,267
 1013 1499 1013 1499 1026 1499 c 0,268,269
 1050 1499 1050 1499 1065 1502 c 1,270,-1
 1075 1450 l 1,271,272
 870 1450 870 1450 818 1362 c 1,273,274
 651 1223 651 1223 495 1063 c 1,275,276
 465 1125 465 1125 358 1234 c 128,-1,277
 251 1343 251 1343 233 1392 c 0,278,279
 195 1504 195 1504 75 1602 c 1,280,-1
 75 1602 l 1,281,282
 47 1581 47 1581 77 1536 c 1,283,-1
 21 1455 l 1,284,285
 9 1403 9 1403 51 1367 c 1,286,287
 116 1328 116 1328 186 1283 c 1,288,289
 375 949 375 949 463 923 c 0,290,291
 468 922 468 922 474 922 c 0,292,293
 540 922 540 922 673 1039 c 0,294,295
 801 1155 801 1155 827 1155 c 0,296,297
 836 1155 836 1155 831 1140 c 1,298,299
 831 1069 831 1069 862 1016 c 0,300,301
 893 964 893 964 1013 546 c 1,302,-1
 643 820 l 1,303,304
 561 895 561 895 497 895 c 0,305,306
 321 893 321 893 343 750 c 2,307,-1
 405 304 l 1,308,309
 272 270 272 270 281 101 c 1,310,311
 221 90 221 90 169 67 c 0,312,313
 124 48 124 48 79 48 c 0,314,315
 73 48 73 48 66 48 c 0,316,317
 63 48 63 48 60 48 c 0,318,319
 14 48 14 48 0 0 c 1,320,-1
 1784 0 l 1,321,322
 1738 89 1738 89 1662 89 c 0,323,324
 1646 89 1646 89 1628 85 c 0,325,326
 1611 81 1611 81 1596 81 c 0,327,328
 1521 81 1521 81 1491 174 c 0,329,330
 1468 244 1468 244 1426 244 c 0,331,332
 1402 244 1402 244 1371 221 c 1,333,334
 1450 377 1450 377 1377 548 c 1,335,336
 1380 737 1380 737 1392 883 c 1,337,338
 1656 797 1656 797 1742 797 c 1,339,340
 1806 808 1806 808 1806 857 c 1,341,342
 1731 1065 1731 1065 1538 1362 c 1,343,344
 1467 1448 1467 1448 1320 1448 c 0,345,346
 1317 1448 1317 1448 1313 1448 c 2,347,-1
 1311 1553 l 1,348,349
 1371 1577 1371 1577 1423 1641 c 0,350,351
 1476 1705 1476 1705 1476 1819 c 0,352,353
 1476 1934 1476 1934 1376 1972 c 0,354,355
 1307 1998 1307 1998 1226 1998 c 0,241,242
EndSplineSet
EndChar

StartChar: u13001
Encoding: 77825 77825 4
Width: 1784
GlyphClass: 2
Flags: W
LayerCount: 2
Fore
SplineSet
1031 1767 m 1,0,1
 1022 1757 1022 1757 1031 1744 c 1,2,3
 1018 1748 1018 1748 1009 1752 c 1,4,5
 1011 1761 1011 1761 1031 1767 c 1,0,1
1058 1763 m 1,6,-1
 1088 1746 l 1,7,8
 1071 1742 1071 1742 1054 1742 c 1,9,10
 1067 1750 1067 1750 1058 1763 c 1,6,-1
1038 1781 m 0,11,12
 1023 1781 1023 1781 1011 1774 c 2,13,-1
 988 1755 l 1,14,-1
 988 1737 l 1,15,-1
 998 1737 l 1,16,17
 1022 1727 1022 1727 1048 1727 c 0,18,19
 1073 1727 1073 1727 1101 1737 c 1,20,-1
 1138 1731 l 1,21,-1
 1138 1750 l 1,22,-1
 1103 1752 l 1,23,24
 1066 1781 1066 1781 1038 1781 c 0,11,12
1264 1776 m 0,25,26
 1273 1776 1273 1776 1272 1764 c 0,27,28
 1268 1744 1268 1744 1252 1726 c 128,-1,29
 1236 1708 1236 1708 1222 1700 c 0,30,31
 1218 1698 1218 1698 1217 1698 c 0,32,33
 1212 1698 1212 1698 1222 1712 c 0,34,35
 1233 1727 1233 1727 1227 1727 c 0,36,37
 1225 1727 1225 1727 1222 1726 c 0,38,39
 1219 1724 1219 1724 1217 1724 c 0,40,41
 1210 1724 1210 1724 1217 1737 c 0,42,43
 1225 1755 1225 1755 1243 1770 c 0,44,45
 1256 1776 1256 1776 1264 1776 c 0,25,26
1198 1699 m 1,46,47
 1215 1688 1215 1688 1205 1681 c 0,48,49
 1201 1677 1201 1677 1197 1677 c 128,-1,50
 1193 1677 1193 1677 1190 1682 c 0,51,52
 1185 1690 1185 1690 1198 1699 c 1,46,47
1272 1799 m 0,53,54
 1265 1799 1265 1799 1257 1796 c 0,55,56
 1232 1789 1232 1789 1213 1759 c 0,57,58
 1193 1729 1193 1729 1202 1716 c 1,59,60
 1183 1708 1183 1708 1178 1691 c 0,61,62
 1174 1675 1174 1675 1191 1669 c 0,63,64
 1194 1668 1194 1668 1198 1668 c 0,65,66
 1214 1668 1214 1668 1242 1693 c 0,67,68
 1275 1723 1275 1723 1285 1749 c 0,69,70
 1296 1776 1296 1776 1289 1790 c 0,71,72
 1284 1799 1284 1799 1272 1799 c 0,53,54
994 1676 m 2,73,-1
 993 1675 l 2,74,75
 990 1673 990 1673 990 1667 c 0,76,77
 990 1660 990 1660 984 1658 c 0,78,79
 983 1658 983 1658 982 1658 c 0,80,81
 978 1658 978 1658 972 1665 c 0,82,83
 964 1673 964 1673 958 1673 c 0,84,85
 953 1673 953 1673 951 1671 c 128,-1,86
 949 1669 949 1669 951 1663 c 1,87,88
 953 1664 953 1664 955 1664 c 0,89,90
 961 1664 961 1664 968 1655 c 0,91,92
 975 1647 975 1647 982 1647 c 0,93,94
 986 1647 986 1647 990 1650 c 0,95,96
 1001 1656 1001 1656 998 1667 c 0,97,98
 997 1676 997 1676 994 1676 c 2,73,-1
957 1625 m 0,99,100
 960 1625 960 1625 964 1624 c 0,101,102
 977 1622 977 1622 993 1620 c 128,-1,103
 1009 1618 1009 1618 1005 1618 c 2,104,-1
 953 1615 l 2,105,106
 947 1618 947 1618 949 1622 c 0,107,108
 951 1625 951 1625 957 1625 c 0,99,100
1207 1960 m 0,109,110
 1260 1960 1260 1960 1326 1943 c 0,111,112
 1433 1915 1433 1915 1433 1815 c 0,113,114
 1433 1716 1433 1716 1362 1648 c 0,115,116
 1313 1601 1313 1601 1287 1601 c 0,117,118
 1275 1601 1275 1601 1268 1611 c 0,119,120
 1247 1641 1247 1641 1305 1699 c 128,-1,121
 1363 1757 1363 1757 1334 1812 c 0,122,123
 1318 1843 1318 1843 1283 1843 c 0,124,125
 1253 1843 1253 1843 1208 1821 c 1,126,127
 1174 1857 1174 1857 1052 1877 c 1,128,129
 1075 1937 1075 1937 1147 1954 c 0,130,131
 1175 1960 1175 1960 1207 1960 c 0,109,110
1003 1611 m 1,132,133
 998 1607 998 1607 987 1601 c 0,134,135
 975 1596 975 1596 966 1596 c 0,136,137
 963 1595 963 1595 960 1595 c 128,-1,138
 957 1595 957 1595 956 1597 c 0,139,140
 953 1600 953 1600 960 1605 c 2,141,-1
 1003 1611 l 1,132,133
1033 1840 m 1,142,143
 1131 1834 1131 1834 1193 1789 c 1,144,145
 1192 1769 1192 1769 1201 1769 c 0,146,147
 1209 1769 1209 1769 1224 1786 c 0,148,149
 1248 1811 1248 1811 1270 1811 c 0,150,151
 1279 1811 1279 1811 1289 1806 c 0,152,153
 1320 1791 1320 1791 1297 1745 c 0,154,155
 1275 1699 1275 1699 1238 1667 c 0,156,157
 1202 1635 1202 1635 1221 1603 c 0,158,159
 1240 1570 1240 1570 1249 1547 c 1,160,161
 1247 1375 1247 1375 1277 1373 c 128,-1,162
 1307 1371 1307 1371 1394 1369 c 0,163,164
 1480 1367 1480 1367 1399 1144 c 128,-1,165
 1318 921 1318 921 1309 544 c 1,166,-1
 1108 499 l 1,167,168
 951 1007 951 1007 920 1050 c 128,-1,169
 889 1093 889 1093 900 1300 c 1,170,171
 898 1369 898 1369 1012 1369 c 0,172,173
 1127 1369 1127 1369 1129 1444 c 0,174,175
 1129 1530 1129 1530 1062 1530 c 0,176,177
 1055 1530 1055 1530 1049 1530 c 0,178,179
 1039 1529 1039 1529 1030 1529 c 0,180,181
 970 1529 970 1529 981 1581 c 1,182,183
 1031 1609 1031 1609 1017 1621 c 128,-1,184
 1003 1633 1003 1633 964 1635 c 1,185,186
 966 1656 966 1656 928 1671 c 1,187,188
 964 1752 964 1752 998 1785 c 1,189,190
 1016 1793 1016 1793 1033 1793 c 0,191,192
 1051 1793 1051 1793 1070 1785 c 0,193,194
 1108 1767 1108 1767 1146 1761 c 1,195,-1
 1146 1776 l 1,196,197
 1120 1778 1120 1778 1084 1799 c 0,198,199
 1062 1811 1062 1811 1038 1811 c 0,200,201
 1023 1811 1023 1811 1007 1806 c 1,202,203
 1022 1827 1022 1827 1033 1840 c 1,142,143
583 763 m 1,204,-1
 994 476 l 1,205,-1
 531 336 l 1,206,207
 546 658 546 658 491 763 c 1,208,-1
 583 763 l 1,204,-1
1320 495 m 1,209,210
 1367 313 1367 313 1262 178 c 1,211,212
 1171 125 1171 125 1057 125 c 0,213,214
 977 125 977 125 885 151 c 128,-1,215
 793 177 793 177 705 177 c 0,216,217
 580 177 580 177 463 124 c 1,218,219
 482 195 482 195 793 358 c 1,220,-1
 1320 495 l 1,209,210
1225 1998 m 0,221,222
 1191 1998 1191 1998 1155 1994 c 0,223,224
 1033 1977 1033 1977 981 1806 c 1,225,226
 949 1767 949 1767 913 1701 c 0,227,228
 891 1656 891 1656 909 1651 c 0,229,230
 928 1645 928 1645 941 1635 c 1,231,232
 928 1626 928 1626 930 1618 c 0,233,234
 932 1609 932 1609 945 1607 c 2,235,-1
 946 1607 l 2,236,237
 949 1607 949 1607 939 1598 c 0,238,239
 928 1588 928 1588 942 1580 c 0,240,241
 956 1573 956 1573 956 1534 c 0,242,243
 956 1498 956 1498 998 1498 c 0,244,245
 1043 1498 1043 1498 1065 1502 c 1,246,-1
 1075 1435 l 1,247,248
 870 1433 870 1433 791 1350 c 1,249,250
 611 1281 611 1281 441 1193 c 1,251,252
 568 1311 568 1311 658 1438 c 1,253,254
 718 1442 718 1442 773 1446 c 0,255,256
 829 1450 829 1450 829 1551 c 1,257,258
 917 1558 917 1558 919 1582 c 0,259,260
 921 1605 921 1605 821 1605 c 0,261,262
 812 1605 812 1605 802 1605 c 0,263,264
 683 1603 683 1603 619 1510 c 1,265,266
 221 1223 221 1223 246 1056 c 1,267,268
 469 1060 469 1060 618 1118 c 128,-1,269
 767 1176 767 1176 838 1180 c 1,270,-1
 838 1180 l 1,271,-1
 831 1140 l 1,272,273
 831 1069 831 1069 862 1017 c 0,274,275
 893 964 893 964 1013 546 c 1,276,-1
 643 821 l 1,277,278
 561 896 561 896 497 896 c 0,279,280
 321 893 321 893 343 750 c 2,281,-1
 405 304 l 1,282,283
 272 268 272 268 281 101 c 1,284,285
 221 90 221 90 169 67 c 0,286,287
 124 48 124 48 79 48 c 0,288,289
 73 48 73 48 66 48 c 0,290,291
 63 48 63 48 60 48 c 0,292,293
 14 48 14 48 0 0 c 1,294,-1
 1785 0 l 1,295,296
 1739 89 1739 89 1662 89 c 0,297,298
 1646 89 1646 89 1628 85 c 0,299,300
 1611 81 1611 81 1596 81 c 0,301,302
 1521 81 1521 81 1491 174 c 0,303,304
 1468 244 1468 244 1426 244 c 0,305,306
 1402 244 1402 244 1371 221 c 1,307,308
 1450 377 1450 377 1378 548 c 1,309,310
 1382 921 1382 921 1483 1189 c 1,311,312
 1525 1101 1525 1101 1667 915 c 1,313,314
 1639 765 1639 765 1639 508 c 1,315,316
 1590 435 1590 435 1590 324 c 128,-1,317
 1590 213 1590 213 1612 213 c 1,318,-1
 1612 213 l 1,319,320
 1635 214 1635 214 1648 302 c 1,321,322
 1755 302 1755 302 1755 364 c 0,323,324
 1755 424 1755 424 1727 510 c 1,325,326
 1770 761 1770 761 1782 928 c 1,327,328
 1731 1063 1731 1063 1538 1363 c 1,329,330
 1467 1448 1467 1448 1320 1448 c 0,331,332
 1317 1448 1317 1448 1313 1448 c 2,333,-1
 1311 1553 l 1,334,335
 1371 1577 1371 1577 1424 1641 c 0,336,337
 1476 1705 1476 1705 1476 1819 c 0,338,339
 1476 1932 1476 1932 1377 1971 c 0,340,341
 1306 1998 1306 1998 1225 1998 c 0,221,222
EndSplineSet
EndChar

StartChar: u13002
Encoding: 77826 77826 5
Width: 1443
GlyphClass: 2
Flags: W
LayerCount: 2
Fore
SplineSet
746 1732 m 128,-1,1
 750 1732 750 1732 747 1725 c 0,2,3
 745 1715 745 1715 751 1709 c 0,4,5
 757 1702 757 1702 755 1702 c 0,6,7
 752 1702 752 1702 741 1706 c 0,8,9
 723 1714 723 1714 736 1726 c 0,10,0
 742 1732 742 1732 746 1732 c 128,-1,1
782 1731 m 128,-1,12
 786 1731 786 1731 789 1730 c 0,13,14
 804 1723 804 1723 811 1719 c 0,15,16
 819 1713 819 1713 813 1710 c 0,17,18
 809 1709 809 1709 800 1706 c 0,19,20
 780 1701 780 1701 776 1701 c 0,21,22
 771 1701 771 1701 777 1709 c 0,23,24
 784 1716 784 1716 780 1725 c 0,25,11
 778 1731 778 1731 782 1731 c 128,-1,12
763 1749 m 0,26,27
 740 1749 740 1749 724 1733 c 0,28,29
 709 1718 709 1718 709 1711.5 c 128,-1,30
 709 1705 709 1705 725 1695 c 0,31,32
 745 1685 745 1685 765 1685 c 0,33,34
 788 1685 788 1685 819 1698 c 0,35,36
 847 1711 847 1711 865 1711 c 128,-1,37
 883 1711 883 1711 883 1717 c 0,38,39
 883 1722 883 1722 862 1722 c 0,40,41
 843 1722 843 1722 813 1735 c 0,42,43
 783 1749 783 1749 763 1749 c 0,26,27
978 1755 m 0,44,45
 991 1755 991 1755 986 1742 c 0,46,47
 976 1708 976 1708 954 1691 c 0,48,49
 942 1680 942 1680 933 1680 c 256,50,51
 924 1680 924 1680 937 1695 c 0,52,53
 945 1703 945 1703 937 1704 c 0,54,55
 921 1710 921 1710 946 1737 c 0,56,57
 962 1755 962 1755 978 1755 c 0,44,45
912 1674 m 128,-1,59
 920 1674 920 1674 920 1666 c 128,-1,60
 920 1658 920 1658 912 1658 c 128,-1,61
 904 1658 904 1658 904 1666 c 128,-1,58
 904 1674 904 1674 912 1674 c 128,-1,59
983 1777 m 0,62,63
 963 1777 963 1777 939 1753 c 128,-1,64
 915 1729 915 1729 915 1706 c 0,65,66
 915 1691 915 1691 908 1686 c 0,67,68
 882 1670 882 1670 894 1656 c 0,69,70
 900 1648 900 1648 910 1648 c 0,71,72
 926 1648 926 1648 949 1667 c 0,73,74
 981 1692 981 1692 996 1724.5 c 128,-1,75
 1011 1757 1011 1757 997 1772 c 0,76,77
 990 1777 990 1777 983 1777 c 0,62,63
955 1930 m 0,78,79
 1023 1930 1023 1930 1079 1889.5 c 128,-1,80
 1135 1849 1135 1849 1143 1816 c 0,81,82
 1166 1711 1166 1711 1048 1621 c 0,83,84
 1003 1587 1003 1587 993 1587 c 0,85,86
 987 1587 987 1587 993 1599 c 0,87,88
 995 1602 995 1602 1000 1610 c 128,-1,89
 1005 1618 1005 1618 1013.5 1630.5 c 128,-1,90
 1022 1643 1022 1643 1028 1652 c 0,91,92
 1074 1718 1074 1718 1074 1762 c 0,93,94
 1074 1776 1074 1776 1065 1794 c 0,95,96
 1051 1829 1051 1829 992 1829 c 0,97,98
 984 1829 984 1829 964 1827 c 2,99,-1
 960 1827 l 2,100,101
 939 1827 939 1827 902.5 1838.5 c 128,-1,102
 866 1850 866 1850 841 1862.5 c 128,-1,103
 816 1875 816 1875 821 1879 c 0,104,105
 884 1930 884 1930 955 1930 c 0,78,79
652 1377 m 1,106,-1
 652 1377 l 1,107,-1
 652 1377 l 1,108,-1
 652 1377 l 1,106,-1
1152 1261 m 1,109,-1
 1152 1261 l 1,110,111
 1275 1022 1275 1022 1276 1019 c 0,112,113
 1276 1016 1276 1016 1274 1016 c 2,114,-1
 1273 1016 l 1,115,116
 1265 1020 1265 1020 1244.5 1032 c 128,-1,117
 1224 1044 1224 1044 1213.5 1049 c 128,-1,118
 1203 1054 1203 1054 1178.5 1063 c 128,-1,119
 1154 1072 1154 1072 1121 1081 c 1,120,-1
 1121 1081 l 1,121,122
 1125 1190 1125 1190 1152 1261 c 1,109,-1
784 1821 m 2,123,-1
 792 1821 l 2,124,125
 809 1818 809 1818 854.5 1799 c 128,-1,126
 900 1780 900 1780 907 1773 c 0,127,128
 914 1768 914 1768 918 1768 c 0,129,130
 927 1768 927 1768 949 1781 c 0,131,132
 965 1790 965 1790 981 1790 c 128,-1,133
 997 1790 997 1790 1009 1780.5 c 128,-1,134
 1021 1771 1021 1771 1021 1756 c 128,-1,135
 1021 1741 1021 1741 1001.5 1708.5 c 128,-1,136
 982 1676 982 1676 957 1650 c 0,137,138
 926 1616 926 1616 923 1598 c 0,139,140
 919 1581 919 1581 927.5 1561.5 c 128,-1,141
 936 1542 936 1542 949 1536 c 0,142,143
 963 1530 963 1530 963 1509 c 0,144,145
 963 1503 963 1503 961 1492.5 c 128,-1,146
 959 1482 959 1482 960 1476.5 c 128,-1,147
 961 1471 961 1471 965.5 1462 c 128,-1,148
 970 1453 970 1453 984 1444 c 128,-1,149
 998 1435 998 1435 1022 1424 c 0,150,151
 1050 1411 1050 1411 1062.5 1403 c 128,-1,152
 1075 1395 1075 1395 1086.5 1379.5 c 128,-1,153
 1098 1364 1098 1364 1094 1340 c 128,-1,154
 1090 1316 1090 1316 1074 1281 c 0,155,156
 1045 1221 1045 1221 1042 1101 c 1,157,-1
 1042 1101 l 1,158,159
 1014 1108 1014 1108 974 1116 c 0,160,161
 959 1120 959 1120 943.5 1134 c 128,-1,162
 928 1148 928 1148 926 1158 c 0,163,164
 907 1238 907 1238 809 1262 c 0,165,166
 799 1264 799 1264 794 1264 c 0,167,168
 768 1264 768 1264 745 1241 c 0,169,170
 735 1231 735 1231 758.5 1193.5 c 128,-1,171
 782 1156 782 1156 779 1144 c 0,172,173
 774 1123 774 1123 787 1108 c 128,-1,174
 800 1093 800 1093 818 1085.5 c 128,-1,175
 836 1078 836 1078 865.5 1068.5 c 128,-1,176
 895 1059 895 1059 908 1053 c 2,177,-1
 1042 990 l 1,178,-1
 1042 990 l 1,179,180
 1042 974 1042 974 1044.5 896.5 c 128,-1,181
 1047 819 1047 819 1046 778 c 1,182,-1
 835 689 l 1,183,-1
 834 689 l 2,184,185
 830 687 830 687 829 687 c 0,186,187
 825 687 825 687 824 693 c 128,-1,188
 823 699 823 699 824 712 c 128,-1,189
 825 725 825 725 826.5 743 c 128,-1,190
 828 761 828 761 828 788.5 c 128,-1,191
 828 816 828 816 825.5 847 c 128,-1,192
 823 878 823 878 815.5 920.5 c 128,-1,193
 808 963 808 963 795 1008 c 0,194,195
 786 1039 786 1039 757.5 1115 c 128,-1,196
 729 1191 729 1191 712.5 1249.5 c 128,-1,197
 696 1308 696 1308 703 1340 c 0,198,199
 706 1356 706 1356 734.5 1370.5 c 128,-1,200
 763 1385 763 1385 793 1395.5 c 128,-1,201
 823 1406 823 1406 827 1411 c 0,202,203
 847 1435 847 1435 847.5 1456.5 c 128,-1,204
 848 1478 848 1478 836 1496 c 0,205,206
 827 1516 827 1516 816.5 1521 c 128,-1,207
 806 1526 806 1526 763 1527 c 0,208,209
 725 1528 725 1528 714 1539 c 0,210,211
 703 1549 703 1549 703.5 1560.5 c 128,-1,212
 704 1572 704 1572 717 1578 c 0,213,214
 732 1585 732 1585 728 1594 c 128,-1,215
 724 1603 724 1603 704 1610 c 0,216,217
 698 1612 698 1612 694 1613.5 c 128,-1,218
 690 1615 690 1615 688 1617 c 128,-1,219
 686 1619 686 1619 685.5 1620.5 c 128,-1,220
 685 1622 685 1622 687 1624 c 0,221,222
 692 1630 692 1630 689 1639 c 128,-1,223
 686 1648 686 1648 676 1653 c 0,224,225
 669 1656 669 1656 671.5 1664 c 128,-1,226
 674 1672 674 1672 693 1702 c 0,227,228
 721 1747 721 1747 728 1752 c 0,229,230
 736 1759 736 1759 758 1759 c 0,231,232
 788 1759 788 1759 818 1748 c 0,233,234
 862 1733 862 1733 864 1733 c 0,235,236
 868 1733 868 1733 866 1738 c 0,237,238
 864 1748 864 1748 829 1764 c 128,-1,239
 794 1780 794 1780 769 1783 c 2,240,-1
 739 1786 l 1,241,-1
 757 1805 l 2,242,243
 773 1821 773 1821 784 1821 c 2,123,-1
387 739 m 0,244,245
 400 739 400 739 442 717 c 0,246,247
 461 707 461 707 571 663 c 128,-1,248
 681 619 681 619 705 603 c 1,249,-1
 468 386 l 1,250,-1
 467 386 l 2,251,252
 463 386 463 386 428.5 499 c 128,-1,253
 394 612 394 612 375 688 c 0,254,255
 362 739 362 739 387 739 c 0,244,245
1036 672 m 2,256,-1
 1040 672 l 2,257,258
 1078 669 1078 669 1096 646 c 256,259,260
 1114 623 1114 623 1119 579 c 0,261,262
 1124 534 1124 534 1107.5 482 c 128,-1,263
 1091 430 1091 430 1058 392 c 0,264,265
 1044 376 1044 376 1002.5 367.5 c 128,-1,266
 961 359 961 359 906.5 352.5 c 128,-1,267
 852 346 852 346 793.5 335.5 c 128,-1,268
 735 325 735 325 674.5 296 c 128,-1,269
 614 267 614 267 573 222 c 1,270,-1
 571 222 l 2,271,272
 566 222 566 222 549 237.5 c 128,-1,273
 532 253 532 253 518 269 c 2,274,-1
 503 285 l 1,275,276
 518 323 518 323 617 415.5 c 128,-1,277
 716 508 716 508 841.5 590 c 128,-1,278
 967 672 967 672 1036 672 c 2,256,-1
423 226 m 0,279,280
 437 226 437 226 476 186 c 0,281,282
 486 176 486 176 493 170 c 128,-1,283
 500 164 500 164 501.5 163.5 c 128,-1,284
 503 163 503 163 503.5 162 c 128,-1,285
 504 161 504 161 504 157 c 0,286,287
 504 131 504 131 433.5 99 c 128,-1,288
 363 67 363 67 334 67 c 0,289,290
 331 67 331 67 329 69 c 0,291,292
 319 92 319 92 333.5 128.5 c 128,-1,293
 348 165 348 165 380 196 c 0,294,295
 412 226 412 226 423 226 c 0,279,280
952 1974 m 0,296,297
 911 1974 911 1974 879 1966 c 0,298,299
 830 1954 830 1954 775 1902.5 c 128,-1,300
 720 1851 720 1851 687 1786 c 0,301,302
 672 1756 672 1756 641 1712 c 0,303,304
 607 1660 607 1660 609 1645 c 0,305,306
 610 1635 610 1635 613 1631.5 c 128,-1,307
 616 1628 616 1628 626 1626 c 0,308,309
 637 1624 637 1624 639 1621 c 128,-1,310
 641 1618 641 1618 640 1607 c 0,311,312
 639 1591 639 1591 648 1587 c 0,313,314
 657 1584 657 1584 650 1579 c 128,-1,315
 643 1574 643 1574 649 1552 c 2,316,-1
 658 1512 l 2,317,318
 662 1492 662 1492 672.5 1486.5 c 128,-1,319
 683 1481 683 1481 717 1481 c 2,320,-1
 722 1481 l 1,321,-1
 723 1481 l 2,322,323
 763 1481 763 1481 769 1464 c 0,324,325
 774 1450 774 1450 749 1443 c 0,326,327
 748 1442 748 1442 747 1442 c 0,328,329
 683 1425 683 1425 652 1377 c 1,330,-1
 652 1377 l 1,331,-1
 651 1382 l 1,332,333
 647 1377 647 1377 623.5 1341 c 128,-1,334
 600 1305 600 1305 564.5 1264.5 c 128,-1,335
 529 1224 529 1224 479 1184 c 1,336,337
 459 1150 459 1150 435.5 1126 c 128,-1,338
 412 1102 412 1102 398 1096 c 2,339,-1
 385 1089 l 1,340,341
 373 1089 373 1089 338 1133 c 1,342,343
 299 1170 299 1170 257 1203.5 c 128,-1,344
 215 1237 215 1237 199 1252 c 128,-1,345
 183 1267 183 1267 179 1281 c 0,346,347
 170 1316 170 1316 157 1343 c 128,-1,348
 144 1370 144 1370 132.5 1386 c 128,-1,349
 121 1402 121 1402 103.5 1415 c 128,-1,350
 86 1428 86 1428 77 1433 c 128,-1,351
 68 1438 68 1438 50.5 1444.5 c 128,-1,352
 33 1451 33 1451 30 1453 c 2,353,-1
 24 1453 l 1,354,355
 8 1440 8 1440 8 1421 c 2,356,-1
 15 1385 l 1,357,-1
 0 1331 l 1,358,359
 0 1301 0 1301 32 1267 c 1,360,361
 84 1243 84 1243 125 1204 c 1,362,363
 194 1101 194 1101 215 1079 c 0,364,365
 332 949 332 949 380 949 c 0,366,367
 438 949 438 949 612 1121 c 0,368,369
 620 1132 620 1132 629.5 1145.5 c 128,-1,370
 639 1159 639 1159 645 1167 c 128,-1,371
 651 1175 651 1175 657 1183 c 128,-1,372
 663 1191 663 1191 666.5 1194.5 c 128,-1,373
 670 1198 670 1198 671 1198 c 1,374,-1
 670 1204 l 1,375,-1
 670 1204 l 1,376,377
 754 972 754 972 779 810 c 1,378,379
 773 801 773 801 766 773 c 128,-1,380
 759 745 759 745 754 722 c 128,-1,381
 749 699 749 699 748 699 c 0,382,383
 731 699 731 699 667.5 723 c 128,-1,384
 604 747 604 747 518.5 781 c 128,-1,385
 433 815 433 815 396 828 c 0,386,387
 381 833 381 833 369 833 c 0,388,389
 322 833 322 833 291 788 c 128,-1,390
 260 743 260 743 274 671 c 0,391,392
 282 632 282 632 310 541 c 128,-1,393
 338 450 338 450 362 378 c 2,394,-1
 387 307 l 2,395,396
 384 304 384 304 373 292.5 c 128,-1,397
 362 281 362 281 358 277 c 128,-1,398
 354 273 354 273 344 262 c 128,-1,399
 334 251 334 251 330 245.5 c 128,-1,400
 326 240 326 240 318 229.5 c 128,-1,401
 310 219 310 219 306.5 212.5 c 128,-1,402
 303 206 303 206 297.5 195.5 c 128,-1,403
 292 185 292 185 290 176.5 c 128,-1,404
 288 168 288 168 286 157.5 c 128,-1,405
 284 147 284 147 284 137 c 0,406,407
 284 119 284 119 247 81 c 0,408,409
 210 42 210 42 210 34 c 0,410,411
 211 14 211 14 220 7 c 128,-1,412
 229 0 229 0 247 0 c 0,413,414
 254 0 254 0 282 2 c 0,415,416
 406 10 406 10 485 31 c 0,417,418
 503 36 503 36 532.5 51 c 128,-1,419
 562 66 562 66 583 78 c 128,-1,420
 604 90 604 90 605 90 c 0,421,422
 615 90 615 90 704.5 128.5 c 128,-1,423
 794 167 794 167 882 207 c 128,-1,424
 970 247 970 247 973 248 c 0,425,426
 991 254 991 254 1010 254 c 0,427,428
 1037 254 1037 254 1056 243 c 0,429,430
 1120 201 1120 201 1068 114 c 0,431,432
 1048 81 1048 81 1041.5 56.5 c 128,-1,433
 1035 32 1035 32 1042 20 c 128,-1,434
 1049 8 1049 8 1067 8 c 0,435,436
 1075 8 1075 8 1092 13 c 0,437,438
 1101 16 1101 16 1117.5 16.5 c 128,-1,439
 1134 17 1134 17 1144.5 20 c 128,-1,440
 1155 23 1155 23 1166.5 32 c 128,-1,441
 1178 41 1178 41 1182.5 64.5 c 128,-1,442
 1187 88 1187 88 1186 127 c 0,443,444
 1184 175 1184 175 1204 235.5 c 128,-1,445
 1224 296 1224 296 1241.5 336.5 c 128,-1,446
 1259 377 1259 377 1255 385 c 0,447,448
 1230 429 1230 429 1195 429 c 2,449,-1
 1180 429 l 2,450,451
 1174 429 1174 429 1173 431 c 0,452,453
 1170 437 1170 437 1181 467.5 c 128,-1,454
 1192 498 1192 498 1199.5 533 c 128,-1,455
 1207 568 1207 568 1192 616 c 0,456,457
 1162 697 1162 697 1147 753.5 c 128,-1,458
 1132 810 1132 810 1129 835.5 c 128,-1,459
 1126 861 1126 861 1124 905 c 0,460,461
 1124 913 1124 913 1123.5 929 c 128,-1,462
 1123 945 1123 945 1122 953 c 1,463,-1
 1122 953 l 1,464,465
 1321 863 1321 863 1379 863 c 0,466,467
 1392 863 1392 863 1397 867 c 0,468,469
 1407 874 1407 874 1420.5 881 c 128,-1,470
 1434 888 1434 888 1437 890.5 c 128,-1,471
 1440 893 1440 893 1442.5 905 c 128,-1,472
 1445 917 1445 917 1440.5 935 c 128,-1,473
 1436 953 1436 953 1425 991 c 2,474,-1
 1399 1065 l 2,475,476
 1389 1095 1389 1095 1313.5 1239.5 c 128,-1,477
 1238 1384 1238 1384 1206 1415 c 0,478,479
 1186 1435 1186 1435 1163 1442 c 1,480,-1
 1163 1442 l 1,481,482
 1101 1470 1101 1470 1067 1470 c 0,483,484
 1062 1470 1062 1470 1053 1475 c 128,-1,485
 1044 1480 1044 1480 1035.5 1497 c 128,-1,486
 1027 1514 1027 1514 1032 1538 c 0,487,488
 1032 1546 1032 1546 1068 1575 c 0,489,490
 1188 1672 1188 1672 1188 1799 c 0,491,492
 1187 1864 1187 1864 1155.5 1901.5 c 128,-1,493
 1124 1939 1124 1939 1051 1962 c 0,494,495
 1014 1974 1014 1974 952 1974 c 0,296,297
EndSplineSet
EndChar

StartChar: u13003
Encoding: 77827 77827 6
Width: 1586
GlyphClass: 2
Flags: W
LayerCount: 2
Fore
SplineSet
984 1738 m 1,0,1
 1005 1732 1005 1732 1018 1719 c 1,2,-1
 982 1713 l 1,3,4
 992 1723 992 1723 984 1738 c 1,0,1
960 1743 m 1,5,6
 943 1726 943 1726 958 1711 c 1,7,-1
 930 1728 l 1,8,-1
 960 1743 l 1,5,6
960 1758 m 0,9,10
 935 1758 935 1758 913 1726 c 1,11,12
 933 1694 933 1694 970 1694 c 0,13,14
 989 1694 989 1694 1012 1702 c 0,15,16
 1035 1713 1035 1713 1084 1717 c 1,17,-1
 1084 1723 l 1,18,19
 1033 1732 1033 1732 1011 1745 c 0,20,21
 988 1758 988 1758 960 1758 c 0,9,10
1187 1772 m 0,22,23
 1190 1772 1190 1772 1193 1771 c 0,24,25
 1200 1764 1200 1764 1196 1744 c 0,26,27
 1191 1723 1191 1723 1140 1683 c 1,28,-1
 1147 1704 l 1,29,-1
 1140 1713 l 1,30,31
 1142 1747 1142 1747 1164 1762 c 0,32,33
 1179 1772 1179 1772 1187 1772 c 0,22,23
1112 1681 m 1,34,-1
 1112 1681 l 1,35,36
 1136 1674 1136 1674 1121 1667 c 0,37,38
 1117 1665 1117 1665 1115 1665 c 0,39,40
 1108 1665 1108 1665 1112 1681 c 1,34,-1
1180 1792 m 0,41,42
 1147 1792 1147 1792 1117 1698 c 1,43,44
 1089 1678 1089 1678 1093 1660 c 0,45,46
 1096 1649 1096 1649 1109 1649 c 0,47,48
 1116 1649 1116 1649 1127 1653 c 0,49,50
 1206 1706 1206 1706 1213 1746 c 0,51,52
 1219 1786 1219 1786 1184 1792 c 0,53,54
 1182 1792 1182 1792 1180 1792 c 0,41,42
1136 1945 m 0,55,56
 1202 1945 1202 1945 1265 1924 c 0,57,58
 1337 1899 1337 1899 1337 1809 c 0,59,60
 1337 1687 1337 1687 1200 1599 c 1,61,-1
 1191 1599 l 1,62,63
 1271 1721 1271 1721 1271 1773 c 0,64,65
 1271 1818 1271 1818 1245 1837 c 1,66,67
 1035 1845 1035 1845 1035 1897 c 1,68,69
 1044 1942 1044 1942 1119 1945 c 0,70,71
 1127 1945 1127 1945 1136 1945 c 0,55,56
975 1833 m 1,72,73
 1020 1833 1020 1833 1129 1777 c 1,74,75
 1158 1807 1158 1807 1180 1807 c 0,76,77
 1182 1807 1182 1807 1185 1807 c 0,78,79
 1209 1803 1209 1803 1219 1789 c 0,80,81
 1230 1775 1230 1775 1228 1757 c 0,82,83
 1226 1738 1226 1738 1202 1704 c 0,84,85
 1127 1610 1127 1610 1127 1583 c 128,-1,86
 1127 1556 1127 1556 1172 1507 c 1,87,88
 1162 1434 1162 1434 1212 1402 c 128,-1,89
 1262 1370 1262 1370 1262 1364 c 1,90,91
 1007 1244 1007 1244 956 1229 c 1,92,93
 915 1246 915 1246 877 1297 c 1,94,95
 877 1306 877 1306 961 1336 c 0,96,97
 1046 1366 1046 1366 1046 1444 c 128,-1,98
 1046 1522 1046 1522 992 1522 c 0,99,100
 902 1522 902 1522 898 1576 c 1,101,-1
 939 1576 l 1,102,103
 939 1601 939 1601 912 1601 c 0,104,105
 905 1601 905 1601 896 1599 c 1,106,107
 890 1653 890 1653 875 1655 c 0,108,109
 874 1655 874 1655 873 1655 c 0,110,111
 840 1655 840 1655 898 1743 c 1,112,113
 926 1768 926 1768 967 1768 c 0,114,115
 1005 1768 1005 1768 1063 1743 c 0,116,117
 1067 1743 1067 1743 1067 1749 c 1,118,119
 1012 1798 1012 1798 945 1798 c 1,120,121
 945 1809 945 1809 975 1833 c 1,72,73
866 1203 m 1,122,-1
 866 1199 l 1,123,124
 830 1175 830 1175 746 1139 c 1,125,-1
 746 1148 l 1,126,127
 836 1203 836 1203 862 1203 c 2,128,-1
 866 1203 l 1,122,-1
1335 1195 m 1,129,130
 1305 743 1305 743 1305 610 c 1,131,132
 1102 525 1102 525 977 525 c 2,133,-1
 975 525 l 1,134,135
 1031 647 1031 647 1031 818 c 0,136,137
 1031 987 1031 987 1012 1083 c 1,138,139
 1219 1143 1219 1143 1335 1195 c 1,129,130
551 805 m 0,140,141
 592 805 592 805 881 520 c 1,142,143
 881 499 881 499 870 469 c 1,144,145
 785 413 785 413 534 343 c 1,146,-1
 513 749 l 2,147,148
 513 805 513 805 551 805 c 0,140,141
1305 525 m 1,149,-1
 1305 345 l 1,150,151
 1260 139 1260 139 1080 139 c 1,152,153
 901 175 901 175 762 175 c 0,154,155
 568 175 568 175 453 105 c 0,156,157
 446 104 446 104 440 104 c 0,158,159
 394 104 394 104 416 150 c 1,160,161
 453 197 453 197 566 250 c 1,162,163
 1249 525 1249 525 1305 525 c 1,149,-1
1156 1998 m 0,164,165
 1151 1998 1151 1998 1147 1997 c 0,166,167
 1031 1997 1031 1997 941 1888 c 1,168,169
 802 1670 802 1670 802 1649 c 0,170,171
 802 1629 802 1629 836 1627 c 1,172,-1
 847 1567 l 1,173,174
 847 1473 847 1473 896 1473 c 1,175,-1
 962 1464 l 1,176,177
 962 1411 962 1411 870 1387 c 1,178,179
 780 1387 780 1387 648 1267 c 1,180,181
 635 1282 635 1282 574 1351 c 0,182,183
 513 1419 513 1419 468 1509 c 1,184,185
 468 1659 468 1659 361 1743 c 1,186,187
 316 1794 316 1794 307 1794 c 0,188,189
 297 1794 297 1794 292 1779 c 1,190,-1
 288 1779 l 1,191,-1
 286 1783 l 1,192,193
 277 1783 277 1783 277 1768 c 1,194,195
 262 1768 262 1768 262 1753 c 1,196,197
 247 1753 247 1753 247 1747 c 2,198,-1
 247 1734 l 1,199,200
 372 1614 372 1614 372 1569 c 2,201,-1
 372 1554 l 1,202,-1
 361 1559 l 1,203,204
 318 1638 318 1638 301 1649 c 1,205,-1
 292 1649 l 1,206,-1
 282 1638 l 1,207,-1
 282 1629 l 1,208,209
 320 1567 320 1567 333 1518 c 1,210,211
 489 1319 489 1319 532 1188 c 1,212,-1
 532 1184 l 1,213,-1
 442 1113 l 1,214,215
 414 1163 414 1163 226 1394 c 1,216,217
 217 1484 217 1484 202 1533 c 1,218,219
 192 1582 192 1582 63 1698 c 0,220,221
 58 1700 58 1700 54 1700 c 0,222,223
 46 1700 46 1700 46 1687 c 1,224,225
 44 1687 44 1687 43 1687 c 0,226,227
 31 1687 31 1687 31 1674 c 1,228,229
 16 1674 16 1674 16 1659 c 1,230,231
 -1 1659 -1 1659 0 1651 c 0,232,233
 1 1642 1 1642 8 1634 c 0,234,235
 123 1520 123 1520 123 1477 c 0,236,237
 126 1461 126 1461 118 1461 c 0,238,239
 114 1461 114 1461 108 1464 c 1,240,241
 76 1539 76 1539 62 1548 c 0,242,243
 57 1551 57 1551 51 1551 c 0,244,245
 42 1551 42 1551 33 1544 c 1,246,247
 33 1522 33 1522 53 1507 c 1,248,249
 102 1377 102 1377 138 1368 c 1,250,251
 234 1195 234 1195 300 1106 c 0,252,253
 365 1017 365 1017 451 953 c 1,254,255
 481 953 481 953 631 1043 c 1,256,-1
 720 974 l 1,257,258
 808 996 808 996 941 1045 c 1,259,260
 956 1015 956 1015 959 886 c 0,261,262
 962 758 962 758 902 608 c 1,263,264
 613 899 613 899 526 899 c 0,265,266
 524 899 524 899 522 899 c 0,267,268
 442 899 442 899 423 799 c 1,269,270
 446 512 446 512 446 379 c 0,271,272
 446 259 446 259 372 199 c 1,273,274
 305 152 305 152 282 90 c 1,275,276
 228 62 228 62 172 4 c 1,277,-1
 172 0 l 1,278,279
 1213 0 1213 0 1337 24 c 1,280,-1
 1525 6 l 1,281,282
 1633 6 1633 6 1551 62 c 2,283,-1
 1436 135 l 1,284,285
 1403 193 1403 193 1429 287 c 1,286,287
 1423 340 1423 340 1396 340 c 0,288,289
 1384 340 1384 340 1367 330 c 1,290,291
 1388 475 1388 475 1367 578 c 1,292,-1
 1406 1225 l 1,293,294
 1440 1368 1440 1368 1341 1403 c 0,295,296
 1243 1439 1243 1439 1240 1478 c 0,297,298
 1236 1518 1236 1518 1247 1544 c 1,299,300
 1401 1666 1401 1666 1401 1798 c 1,301,302
 1387 1998 1387 1998 1156 1998 c 0,164,165
EndSplineSet
EndChar

StartChar: u13004
Encoding: 77828 77828 7
Width: 1524
GlyphClass: 2
Flags: W
LayerCount: 2
Fore
SplineSet
723 1453 m 1,0,-1
 689 1437 l 1,1,2
 674 1439 674 1439 662 1439 c 0,3,4
 603 1439 603 1439 601 1385 c 1,5,6
 610 1379 610 1379 620 1379 c 0,7,8
 650 1379 650 1379 691 1430 c 1,9,-1
 727 1446 l 1,10,-1
 723 1453 l 1,0,-1
802 1666 m 0,11,12
 877 1666 877 1666 909 1591 c 0,13,14
 950 1498 950 1498 889 1412 c 0,15,16
 861 1373 861 1373 851 1373 c 0,17,18
 839 1373 839 1373 852 1426 c 0,19,20
 876 1525 876 1525 834 1560 c 0,21,22
 820 1571 820 1571 805 1571 c 0,23,24
 774 1571 774 1571 738 1525 c 1,25,-1
 612 1550 l 1,26,27
 653 1637 653 1637 761 1661 c 0,28,29
 783 1666 783 1666 802 1666 c 0,11,12
714 1932 m 1,30,-1
 714 1813 l 1,31,-1
 185 1813 l 1,32,-1
 185 1282 l 1,33,-1
 65 1282 l 1,34,-1
 65 1932 l 1,35,-1
 714 1932 l 1,30,-1
0 1998 m 1,36,-1
 0 1214 l 1,37,-1
 122 1214 l 1,38,-1
 122 816 l 1,39,-1
 248 816 l 1,40,-1
 248 1752 l 1,41,-1
 1128 1752 l 1,42,-1
 1128 1881 l 1,43,-1
 783 1881 l 1,44,-1
 783 1998 l 1,45,-1
 0 1998 l 1,36,-1
798 1522 m 0,46,47
 800 1522 800 1522 801 1521 c 0,48,49
 831 1518 831 1518 810 1447 c 0,50,51
 790 1376 790 1376 806 1350 c 0,52,53
 822 1325 822 1325 871 1288 c 1,54,55
 1119 1203 1119 1203 1292 816 c 1,56,-1
 1135 762 l 1,57,-1
 853 1021 l 1,58,59
 1002 1178 1002 1178 973 1218 c 0,60,61
 956 1240 956 1240 932 1240 c 0,62,63
 913 1240 913 1240 889 1227 c 0,64,65
 869 1215 869 1215 853 1215 c 0,66,67
 824 1215 824 1215 805 1249 c 0,68,69
 784 1285 784 1285 752 1285 c 0,70,71
 738 1285 738 1285 720 1277 c 1,72,73
 682 1237 682 1237 658 1237 c 0,74,75
 639 1237 639 1237 628 1261 c 1,76,77
 662 1293 662 1293 645 1297 c 0,78,79
 640 1299 640 1299 634 1299 c 0,80,81
 620 1299 620 1299 601 1291 c 1,82,83
 610 1327 610 1327 567 1327 c 1,84,-1
 583 1415 l 1,85,86
 603 1455 603 1455 700 1455 c 1,87,88
 718 1469 718 1469 671 1470 c 0,89,90
 669 1470 669 1470 667 1470 c 0,91,92
 622 1470 622 1470 583 1442 c 1,93,94
 590 1491 590 1491 607 1498 c 0,95,96
 610 1499 610 1499 616 1499 c 0,97,98
 647 1499 647 1499 754 1473 c 1,99,100
 771 1522 771 1522 798 1522 c 0,46,47
1319 768 m 1,101,102
 1468 588 1468 588 1468 489 c 0,103,104
 1468 370 1468 370 1363 370 c 0,105,106
 1349 370 1349 370 1333 372 c 0,107,108
 1265 393 1265 393 1114 483 c 1,109,110
 862 615 862 615 840 685 c 1,111,112
 837 714 837 714 878 714 c 0,113,114
 1006 703 1006 703 1175 618 c 0,115,116
 1178 617 1178 617 1181 617 c 0,117,118
 1199 617 1199 617 1195 642 c 1,119,-1
 1168 719 l 1,120,-1
 1319 768 l 1,101,102
803 1712 m 0,121,122
 800 1712 800 1712 797 1712 c 0,123,124
 709 1709 709 1709 635 1653 c 128,-1,125
 561 1597 561 1597 545 1460 c 1,126,127
 554 1419 554 1419 525 1309 c 1,128,129
 530 1279 530 1279 542 1279 c 0,130,131
 544 1279 544 1279 547 1281 c 0,132,133
 557 1286 557 1286 565 1286 c 0,134,135
 570 1286 570 1286 574 1284 c 0,136,137
 583 1250 583 1250 598 1236 c 0,138,139
 612 1221 612 1221 626 1202 c 0,140,141
 636 1188 636 1188 650 1188 c 0,142,143
 655 1188 655 1188 661 1189 c 0,144,145
 682 1196 682 1196 736 1241 c 1,146,147
 808 1201 808 1201 783 1155 c 0,148,149
 759 1108 759 1108 693 1030 c 1,150,151
 531 1241 531 1241 482 1313 c 1,152,153
 432 1444 432 1444 357 1469 c 0,154,155
 334 1476 334 1476 321 1476 c 0,156,157
 291 1476 291 1476 313 1435 c 1,158,159
 380 1397 380 1397 400 1344 c 0,160,161
 409 1316 409 1316 398 1316 c 128,-1,162
 387 1316 387 1316 358 1340 c 0,163,164
 331 1362 331 1362 323 1362 c 0,165,166
 312 1362 312 1362 331 1326 c 0,167,168
 365 1261 365 1261 452 1223 c 1,169,170
 522 1090 522 1090 593 998 c 0,171,172
 633 946 633 946 620 946 c 0,173,174
 610 946 610 946 567 978 c 0,175,176
 482 1039 482 1039 437 1093 c 1,177,178
 387 1230 387 1230 312 1255 c 0,179,180
 289 1262 289 1262 276 1262 c 0,181,182
 246 1262 246 1262 268 1221 c 1,183,184
 335 1183 335 1183 355 1130 c 0,185,186
 364 1102 364 1102 353 1102 c 128,-1,187
 342 1102 342 1102 313 1126 c 0,188,189
 287 1148 287 1148 278 1148 c 0,190,191
 267 1148 267 1148 287 1110 c 0,192,193
 322 1043 322 1043 423 1007 c 1,194,195
 498 883 498 883 610 816 c 0,196,197
 623 812 623 812 636 812 c 0,198,199
 679 812 679 812 719 857 c 0,200,201
 772 917 772 917 815 982 c 1,202,-1
 1101 719 l 1,203,204
 925 784 925 784 759 784 c 1,205,206
 696 773 696 773 682 685 c 0,207,208
 655 541 655 541 639 262 c 1,209,210
 615 147 615 147 534 120 c 1,211,212
 477 95 477 95 412 66 c 1,213,214
 342 53 342 53 342 17 c 1,215,216
 359 0 359 0 396 0 c 0,217,218
 405 0 405 0 414 1 c 0,219,220
 502 1 502 1 543 11 c 0,221,222
 564 16 564 16 599 16 c 0,223,224
 631 16 631 16 673 12 c 0,225,226
 681 11 681 11 687 11 c 0,227,228
 752 11 752 11 711 152 c 1,229,230
 815 388 815 388 799 516 c 1,231,-1
 799 516 l 1,232,233
 853 361 853 361 925 206 c 1,234,235
 932 122 932 122 889 95 c 1,236,237
 786 62 786 62 745 38 c 0,238,239
 705 14 705 14 772 5 c 0,240,241
 814 1 814 1 848 1 c 0,242,243
 877 1 877 1 900 4 c 0,244,245
 927 8 927 8 956 8 c 0,246,247
 982 8 982 8 1009 5 c 1,248,249
 1121 12 1121 12 1042 143 c 1,250,251
 1022 453 1022 453 943 494 c 1,252,-1
 943 494 l 1,253,254
 1058 451 1058 451 1121 411 c 0,255,256
 1282 310 1282 310 1368 310 c 0,257,258
 1377 310 1377 310 1384 311 c 0,259,260
 1560 336 1560 336 1515 539 c 1,261,262
 1506 631 1506 631 1346 822 c 1,263,264
 1168 1246 1168 1246 896 1334 c 1,265,266
 977 1424 977 1424 978 1503 c 0,267,268
 979 1583 979 1583 932 1649 c 0,269,270
 886 1712 886 1712 803 1712 c 0,121,122
EndSplineSet
EndChar

StartChar: u13005
Encoding: 77829 77829 8
Width: 1491
GlyphClass: 2
Flags: W
LayerCount: 2
Fore
SplineSet
1040 1391 m 0,0,1
 1042 1391 1042 1391 1043 1382 c 0,2,3
 1046 1370 1046 1370 1042 1370 c 0,4,5
 1041 1370 1041 1370 1033 1374 c 0,6,7
 1025 1379 1025 1379 1033 1387 c 0,8,9
 1037 1391 1037 1391 1040 1391 c 0,0,1
1073 1391 m 0,10,11
 1077 1391 1077 1391 1086 1386 c 0,12,13
 1090 1384 1090 1384 1093 1382 c 128,-1,14
 1096 1380 1096 1380 1097.5 1378.5 c 128,-1,15
 1099 1377 1099 1377 1098 1376 c 0,16,17
 1096 1374 1096 1374 1078 1370 c 0,18,19
 1072 1368 1072 1368 1066 1368 c 0,20,21
 1062 1368 1062 1368 1066 1371 c 0,22,23
 1071 1376 1071 1376 1071 1385 c 0,24,25
 1071 1391 1071 1391 1073 1391 c 0,10,11
1231 1412 m 128,-1,27
 1238 1412 1238 1412 1238 1403 c 0,28,29
 1238 1382 1238 1382 1215 1359 c 0,30,31
 1203 1345 1203 1345 1198 1345 c 0,32,33
 1192 1345 1192 1345 1200 1360 c 0,34,35
 1205 1370 1205 1370 1198 1370 c 0,36,37
 1192 1370 1192 1370 1193 1373 c 0,38,39
 1193 1375 1193 1375 1198 1384 c 0,40,41
 1204 1396 1204 1396 1214 1404 c 128,-1,26
 1224 1412 1224 1412 1231 1412 c 128,-1,27
1179 1341 m 0,42,43
 1186 1341 1186 1341 1186 1336 c 0,44,45
 1186 1328 1186 1328 1178 1328 c 0,46,47
 1177 1328 1177 1328 1175 1330 c 0,48,49
 1170 1334 1170 1334 1171.5 1337.5 c 128,-1,50
 1173 1341 1173 1341 1179 1341 c 0,42,43
1239 1429 m 0,51,52
 1229 1429 1229 1429 1214 1420 c 0,53,54
 1205 1414 1205 1414 1193 1395 c 128,-1,55
 1181 1376 1181 1376 1181 1366 c 128,-1,56
 1181 1356 1181 1356 1174 1352 c 0,57,58
 1166 1349 1166 1349 1164 1339.5 c 128,-1,59
 1162 1330 1162 1330 1167 1324 c 128,-1,60
 1172 1318 1172 1318 1178 1318 c 0,61,62
 1185 1318 1185 1318 1204 1331 c 0,63,64
 1224 1346 1224 1346 1238.5 1368.5 c 128,-1,65
 1253 1391 1253 1391 1253 1408 c 0,66,67
 1253 1429 1253 1429 1239 1429 c 0,51,52
1201 1560 m 0,68,69
 1246 1560 1246 1560 1292 1541 c 0,70,71
 1362 1511 1362 1511 1356.5 1433 c 128,-1,72
 1351 1355 1351 1355 1275 1298 c 0,73,74
 1249 1278 1249 1278 1241 1278 c 0,75,76
 1238 1278 1238 1278 1238 1281 c 0,77,78
 1238 1283 1238 1283 1262 1320 c 0,79,80
 1303 1388 1303 1388 1300 1427 c 0,81,82
 1297 1457 1297 1457 1284.5 1464.5 c 128,-1,83
 1272 1472 1272 1472 1225 1473 c 0,84,85
 1172 1474 1172 1474 1146 1486 c 0,86,87
 1114 1500 1114 1500 1112 1516.5 c 128,-1,88
 1110 1533 1110 1533 1138 1547 c 0,89,90
 1166 1560 1166 1560 1201 1560 c 0,68,69
785 1919 m 1,91,-1
 785 1788 l 1,92,-1
 203 1788 l 1,93,-1
 203 1203 l 1,94,-1
 72 1203 l 1,95,-1
 72 1919 l 1,96,-1
 785 1919 l 1,91,-1
1069 1468 m 0,97,98
 1083 1468 1083 1468 1122 1453 c 128,-1,99
 1161 1438 1161 1438 1177 1426 c 0,100,101
 1181 1424 1181 1424 1184 1424 c 0,102,103
 1191 1424 1191 1424 1206 1431 c 0,104,105
 1225 1441 1225 1441 1237 1441 c 0,106,107
 1247 1441 1247 1441 1257 1434 c 0,108,109
 1274 1422 1274 1422 1264 1393.5 c 128,-1,110
 1254 1365 1254 1365 1220 1327 c 0,111,112
 1197 1301 1197 1301 1190 1284 c 0,113,114
 1185 1269 1185 1269 1190.5 1252 c 128,-1,115
 1196 1235 1196 1235 1210 1224 c 0,116,117
 1221 1215 1221 1215 1222.5 1209 c 128,-1,118
 1224 1203 1224 1203 1222 1181 c 0,119,120
 1218 1151 1218 1151 1226.5 1138.5 c 128,-1,121
 1235 1126 1235 1126 1267 1111 c 0,122,123
 1286 1102 1286 1102 1292 1097.5 c 128,-1,124
 1298 1093 1298 1093 1296 1089 c 0,125,126
 1291 1084 1291 1084 1232 1058 c 0,127,128
 1208 1048 1208 1048 1116 1008 c 0,129,130
 1061 982 1061 982 1049 982 c 0,131,132
 1041 982 1041 982 1013 1006.5 c 128,-1,133
 985 1031 985 1031 985 1038 c 0,134,135
 985 1050 985 1050 1030 1069 c 0,136,137
 1050 1076 1050 1076 1071 1085 c 0,138,139
 1095 1095 1095 1095 1109 1106 c 2,140,-1
 1125 1117 l 1,141,-1
 1122 1156 l 2,142,143
 1118 1196 1118 1196 1108 1206.5 c 128,-1,144
 1098 1217 1098 1217 1060 1218 c 0,145,146
 1031 1220 1031 1220 1021 1224.5 c 128,-1,147
 1011 1229 1011 1229 1007 1243 c 0,148,149
 1004 1252 1004 1252 1019 1261 c 128,-1,150
 1034 1270 1034 1270 1028 1276 c 0,151,152
 1023 1282 1023 1282 1006 1288 c 0,153,154
 991 1293 991 1293 993 1303 c 128,-1,155
 995 1313 995 1313 987 1322 c 0,156,157
 981 1329 981 1329 981.5 1333 c 128,-1,158
 982 1337 982 1337 992 1353 c 0,159,160
 1004 1374 1004 1374 1006 1374 c 0,161,162
 1009 1374 1009 1374 1026 1362 c 0,163,164
 1043 1351 1043 1351 1062 1351 c 0,165,166
 1078 1351 1078 1351 1099 1360 c 0,167,168
 1121 1370 1121 1370 1136 1370 c 128,-1,169
 1151 1370 1151 1370 1155 1374 c 0,170,171
 1156 1376 1156 1376 1154.5 1377 c 128,-1,172
 1153 1378 1153 1378 1149.5 1378.5 c 128,-1,173
 1146 1379 1146 1379 1141 1379 c 0,174,175
 1125 1379 1125 1379 1097 1394 c 0,176,177
 1073 1406 1073 1406 1057 1406 c 0,178,179
 1038 1406 1038 1406 1022 1390 c 2,180,-1
 1007 1377 l 1,181,-1
 1016 1392 l 2,182,183
 1030 1416 1030 1416 1059 1416 c 0,184,185
 1083 1416 1083 1416 1113 1403 c 0,186,187
 1133 1394 1133 1394 1135 1394 c 0,188,189
 1138 1394 1138 1394 1138 1400 c 0,190,191
 1138 1407 1138 1407 1111.5 1419.5 c 128,-1,192
 1085 1432 1085 1432 1063 1435 c 2,193,-1
 1038 1438 l 1,194,-1
 1047 1451 l 2,195,196
 1056 1465 1056 1465 1065 1467 c 0,197,198
 1066 1468 1066 1468 1069 1468 c 0,97,98
972 964 m 0,199,200
 976 964 976 964 977 963 c 0,201,202
 982 956 982 956 976 955 c 0,203,204
 975 954 975 954 968 951 c 128,-1,205
 961 948 961 948 949 942 c 128,-1,206
 937 936 937 936 927 931 c 0,207,208
 886 911 886 911 881 911 c 0,209,210
 879 911 879 911 879 914 c 0,211,212
 879 918 879 918 925 944 c 0,213,214
 965 964 965 964 972 964 c 0,199,200
0 1991 m 1,215,-1
 0 1129 l 1,216,-1
 134 1129 l 1,217,-1
 134 691 l 1,218,-1
 272 691 l 1,219,-1
 272 1721 l 1,220,-1
 1241 1721 l 1,221,-1
 1241 1862 l 1,222,-1
 862 1862 l 1,223,-1
 862 1991 l 1,224,-1
 0 1991 l 1,215,-1
1353 958 m 1,225,-1
 1353 945 l 2,226,227
 1353 931 1353 931 1344 812 c 0,228,229
 1334 685 1334 685 1331 590 c 2,230,-1
 1328 488 l 1,231,-1
 1310 479 l 2,232,233
 1293 470 1293 470 1222.5 448 c 128,-1,234
 1152 426 1152 426 1134 424 c 0,235,236
 1086 419 1086 419 1073 419 c 0,237,238
 1061 419 1061 419 1061 421 c 0,239,240
 1061 426 1061 426 1066 429 c 0,241,242
 1078 436 1078 436 1098 534 c 0,243,244
 1108 591 1108 591 1108 694 c 128,-1,245
 1108 797 1108 797 1097 850 c 2,246,-1
 1094 865 l 1,247,-1
 1145 881 l 2,248,249
 1245 910 1245 910 1335 950 c 2,250,-1
 1353 958 l 1,225,-1
728 647 m 0,251,252
 744 647 744 647 779 617.5 c 128,-1,253
 814 588 814 588 900 503 c 2,254,-1
 991 414 l 1,255,-1
 987 395 l 2,256,257
 983 375 983 375 979 371 c 0,258,259
 975 365 975 365 903.5 335 c 128,-1,260
 832 305 832 305 787 290 c 0,261,262
 738 273 738 273 731 273 c 0,263,264
 723 273 723 273 720 295.5 c 128,-1,265
 717 318 717 318 709 432 c 0,266,267
 704 533 704 533 697 567 c 0,268,269
 690 603 690 603 699 625 c 128,-1,270
 708 647 708 647 728 647 c 0,251,252
1328 419 m 2,271,-1
 1330 419 l 2,272,273
 1334 416 1334 416 1334 362.5 c 128,-1,274
 1334 309 1334 309 1329 275 c 0,275,276
 1320 207 1320 207 1277 164 c 0,277,278
 1227 111 1227 111 1147 111 c 0,279,280
 1106 111 1106 111 1038 123 c 0,281,282
 967 134 967 134 928 134 c 0,283,284
 870 134 870 134 734 101 c 0,285,286
 661 82 661 82 647 82 c 0,287,288
 638 82 638 82 627 93.5 c 128,-1,289
 616 105 616 105 616 114 c 0,290,291
 616 125 616 125 644.5 147.5 c 128,-1,292
 673 170 673 170 710 187 c 0,293,294
 778 220 778 220 1007 308 c 128,-1,295
 1236 396 1236 396 1293 412 c 0,296,297
 1314 419 1314 419 1328 419 c 2,271,-1
1211 1598 m 0,298,299
 1159 1598 1159 1598 1121 1580 c 0,300,301
 1091 1566 1091 1566 1053 1525 c 128,-1,302
 1015 1484 1015 1484 1000 1449 c 0,303,304
 997 1442 997 1442 961 1384 c 0,305,306
 946 1361 946 1361 938 1347 c 128,-1,307
 930 1333 930 1333 928 1323 c 128,-1,308
 926 1313 926 1313 930 1309 c 128,-1,309
 934 1305 934 1305 944 1303 c 128,-1,310
 954 1301 954 1301 956 1298 c 128,-1,311
 958 1295 958 1295 957 1285 c 0,312,313
 955 1269 955 1269 961 1269 c 0,314,315
 966 1269 966 1269 963 1258 c 0,316,317
 961 1247 961 1247 968 1216.5 c 128,-1,318
 975 1186 975 1186 981 1182 c 0,319,320
 989 1177 989 1177 1016 1177 c 0,321,322
 1029 1177 1029 1177 1036 1178 c 2,323,-1
 1046 1178 l 2,324,325
 1053 1178 1053 1178 1054.5 1176 c 128,-1,326
 1056 1174 1056 1174 1056 1165 c 0,327,328
 1053 1122 1053 1122 963 1105 c 0,329,330
 924 1098 924 1098 900 1085.5 c 128,-1,331
 876 1073 876 1073 843 1043 c 0,332,333
 807 1011 807 1011 803 1011 c 0,334,335
 798 1011 798 1011 784 1032 c 0,336,337
 779 1040 779 1040 732 1096 c 0,338,339
 704 1128 704 1128 696.5 1141.5 c 128,-1,340
 689 1155 689 1155 674 1203 c 0,341,342
 655 1262 655 1262 639 1295 c 0,343,344
 627 1318 627 1318 607 1341.5 c 128,-1,345
 587 1365 587 1365 572 1372 c 0,346,347
 564 1377 564 1377 562 1377 c 0,348,349
 559 1377 559 1377 559 1364 c 0,350,351
 559 1350 559 1350 582 1300 c 0,352,353
 593 1279 593 1279 601 1259 c 128,-1,354
 609 1239 609 1239 612 1227.5 c 128,-1,355
 615 1216 615 1216 613 1216 c 0,356,357
 612 1216 612 1216 572 1250 c 0,358,359
 539 1279 539 1279 532 1279 c 0,360,361
 528 1279 528 1279 525 1276 c 0,362,363
 518 1270 518 1270 518.5 1265.5 c 128,-1,364
 519 1261 519 1261 529 1243 c 0,365,366
 542 1219 542 1219 582 1177 c 0,367,368
 614 1144 614 1144 628.5 1120.5 c 128,-1,369
 643 1097 643 1097 681 1018 c 2,370,-1
 714 951 l 1,371,-1
 683 923 l 2,372,373
 646 890 646 890 639 890 c 0,374,375
 634 890 634 890 623 911 c 0,376,377
 594 968 594 968 509 1057 c 0,378,379
 459 1111 459 1111 456 1129 c 0,380,381
 442 1204 442 1204 405.5 1274 c 128,-1,382
 369 1344 369 1344 338 1352 c 1,383,-1
 335 1352 l 2,384,385
 317 1352 317 1352 348 1284 c 0,386,387
 357 1262 357 1262 366.5 1236 c 128,-1,388
 376 1210 376 1210 380.5 1191.5 c 128,-1,389
 385 1173 385 1173 382 1173 c 0,390,391
 376 1173 376 1173 356.5 1189.5 c 128,-1,392
 337 1206 337 1206 329 1218 c 0,393,394
 317 1236 317 1236 307 1236 c 0,395,396
 299 1236 299 1236 302 1222 c 0,397,398
 317 1164 317 1164 364 1126 c 0,399,400
 391 1105 391 1105 402 1086 c 0,401,402
 450 984 450 984 482 936 c 128,-1,403
 514 888 514 888 581 819 c 0,404,405
 637 762 637 762 648 762 c 0,406,407
 669 762 669 762 741 808 c 0,408,409
 782 833 782 833 790 833 c 128,-1,410
 798 833 798 833 826 807 c 0,411,412
 833 801 833 801 841 794.5 c 128,-1,413
 849 788 849 788 853 784 c 2,414,-1
 857 781 l 1,415,416
 892 781 892 781 974 815 c 0,417,418
 1028 836 1028 836 1037 836 c 1,419,-1
 1037 836 l 1,420,421
 1048 830 1048 830 1055 742 c 0,422,423
 1063 627 1063 627 1020 516 c 2,424,-1
 1007 484 l 1,425,-1
 926 562 l 2,426,427
 802 681 802 681 753 705 c 0,428,429
 726 718 726 718 704 718 c 0,430,431
 667 718 667 718 639 677 c 2,432,-1
 625 657 l 1,433,-1
 632 543 l 2,434,435
 643 388 643 388 644 336 c 128,-1,436
 645 284 645 284 638 253 c 0,437,438
 624 190 624 190 585 160 c 0,439,440
 528 117 528 117 520 90 c 0,441,442
 514 70 514 70 493 60 c 0,443,444
 473 50 473 50 446 25 c 2,445,-1
 419 0 l 1,446,-1
 801 2 l 2,447,448
 1175 3 1175 3 1269 12 c 0,449,450
 1318 18 1318 18 1351 18 c 0,451,452
 1367 18 1367 18 1379 15 c 0,453,454
 1435 2 1435 2 1456 2 c 0,455,456
 1476 2 1476 2 1486 18 c 0,457,458
 1494 29 1494 29 1486 35 c 0,459,460
 1476 45 1476 45 1457 75 c 0,461,462
 1439 102 1439 102 1424 122 c 0,463,464
 1417 131 1417 131 1415 142.5 c 128,-1,465
 1413 154 1413 154 1412 195 c 0,466,467
 1410 239 1410 239 1408.5 248.5 c 128,-1,468
 1407 258 1407 258 1397 268 c 0,469,470
 1383 282 1383 282 1380.5 314.5 c 128,-1,471
 1378 347 1378 347 1382 463 c 0,472,473
 1390 679 1390 679 1404 781 c 0,474,475
 1422 918 1422 918 1416 995 c 0,476,477
 1411 1050 1411 1050 1399 1072 c 0,478,479
 1389 1094 1389 1094 1360.5 1120 c 128,-1,480
 1332 1146 1332 1146 1307 1157 c 0,481,482
 1287 1166 1287 1166 1282 1174.5 c 128,-1,483
 1277 1183 1277 1183 1277 1208 c 0,484,485
 1277 1225 1277 1225 1279.5 1231 c 128,-1,486
 1282 1237 1282 1237 1294 1245 c 0,487,488
 1317 1261 1317 1261 1344 1293 c 128,-1,489
 1371 1325 1371 1325 1385 1354 c 0,490,491
 1398 1379 1398 1379 1401 1392 c 128,-1,492
 1404 1405 1404 1405 1405 1436 c 0,493,494
 1408 1504 1408 1504 1376 1540 c 0,495,496
 1353 1567 1353 1567 1307 1582.5 c 128,-1,497
 1261 1598 1261 1598 1211 1598 c 0,298,299
EndSplineSet
EndChar

StartChar: u13006
Encoding: 77830 77830 9
Width: 1639
GlyphClass: 2
Flags: W
LayerCount: 2
Fore
SplineSet
1118 1923 m 1,0,-1
 1118 1923 l 1,1,2
 1224 1923 1224 1923 1232 1820 c 0,3,4
 1235 1780 1235 1780 1209 1746.5 c 128,-1,5
 1183 1713 1183 1713 1123 1713 c 2,6,-1
 1121 1713 l 2,7,8
 1072 1714 1072 1714 1041.5 1747 c 128,-1,9
 1011 1780 1011 1780 1014 1820 c 0,10,11
 1018 1868 1018 1868 1044 1895.5 c 128,-1,12
 1070 1923 1070 1923 1118 1923 c 1,0,-1
1034 1422 m 0,13,14
 1040 1422 1040 1422 1045 1412 c 0,15,16
 1049 1402 1049 1402 1043 1402 c 0,17,18
 1038 1402 1038 1402 1033.5 1407 c 128,-1,19
 1029 1412 1029 1412 1029 1417 c 128,-1,20
 1029 1422 1029 1422 1034 1422 c 0,13,14
1083 1420 m 0,21,22
 1086 1420 1086 1420 1087 1419 c 0,23,24
 1097 1415 1097 1415 1099 1415 c 0,25,26
 1103 1415 1103 1415 1099 1409 c 0,27,28
 1095 1402 1095 1402 1084 1402 c 0,29,30
 1078 1402 1078 1402 1075 1405 c 128,-1,31
 1072 1408 1072 1408 1073 1412 c 0,32,33
 1076 1420 1076 1420 1083 1420 c 0,21,22
1235 1442 m 0,34,35
 1248 1442 1248 1442 1244 1427 c 0,36,37
 1237 1409 1237 1409 1225 1397 c 0,38,39
 1212 1382 1212 1382 1204 1382 c 0,40,41
 1200 1382 1200 1382 1205 1390 c 0,42,43
 1209 1397 1209 1397 1202 1402 c 0,44,45
 1198 1407 1198 1407 1202 1415.5 c 128,-1,46
 1206 1424 1206 1424 1216.5 1433 c 128,-1,47
 1227 1442 1227 1442 1235 1442 c 0,34,35
1184 1374 m 0,48,49
 1188 1374 1188 1374 1188 1370 c 0,50,51
 1188 1363 1188 1363 1181 1363 c 0,52,53
 1175 1363 1175 1363 1175 1365 c 0,54,55
 1175 1369 1175 1369 1181 1372 c 0,56,57
 1183 1374 1183 1374 1184 1374 c 0,48,49
1240 1462 m 0,58,59
 1227 1462 1227 1462 1207.5 1441 c 128,-1,60
 1188 1420 1188 1420 1188 1407 c 0,61,62
 1188 1393 1188 1393 1177 1382 c 0,63,64
 1166 1369 1166 1369 1170 1360 c 0,65,66
 1174 1350 1174 1350 1182 1350 c 0,67,68
 1194 1350 1194 1350 1223 1377 c 0,69,70
 1264 1417 1264 1417 1260 1446 c 0,71,72
 1258 1462 1258 1462 1240 1462 c 0,58,59
1215 1592 m 2,73,-1
 1218 1592 l 1,74,75
 1354 1586 1354 1586 1364 1485 c 0,76,77
 1372 1413 1372 1413 1296 1343 c 0,78,79
 1258 1310 1258 1310 1250 1310 c 0,80,81
 1247 1310 1247 1310 1247 1314 c 0,82,83
 1247 1315 1247 1315 1275 1364 c 0,84,85
 1330 1458 1330 1458 1294 1494 c 0,86,87
 1285 1503 1285 1503 1273 1505.5 c 128,-1,88
 1261 1508 1261 1508 1229 1508 c 0,89,90
 1151 1508 1151 1508 1125 1537 c 0,91,92
 1103 1561 1103 1561 1141 1582 c 0,93,94
 1161 1592 1161 1592 1215 1592 c 2,73,-1
937 973 m 1,95,96
 950 973 950 973 995.5 886.5 c 128,-1,97
 1041 800 1041 800 1055 747 c 0,98,99
 1071 686 1071 686 1079 627 c 128,-1,100
 1087 568 1087 568 1081 551 c 0,101,102
 1080 547 1080 547 1076 547 c 0,103,104
 1056 547 1056 547 973 620.5 c 128,-1,105
 890 694 890 694 817 767 c 2,106,-1
 744 840 l 1,107,-1
 937 973 l 1,95,96
1078 1500 m 0,108,109
 1100 1500 1100 1500 1151 1475 c 0,110,111
 1184 1459 1184 1459 1193 1459 c 0,112,113
 1199 1459 1199 1459 1213 1466 c 0,114,115
 1225 1474 1225 1474 1239 1474 c 0,116,117
 1269 1474 1269 1474 1272 1447 c 0,118,119
 1276 1414 1276 1414 1224 1356 c 0,120,121
 1173 1297 1173 1297 1211 1259 c 0,122,123
 1218 1253 1218 1253 1228 1215 c 128,-1,124
 1238 1177 1238 1177 1244 1165 c 0,125,126
 1282 1089 1282 1089 1301 994.5 c 128,-1,127
 1320 900 1320 900 1327 750 c 0,128,129
 1334 595 1334 595 1331 587 c 0,130,131
 1330 584 1330 584 1243 535 c 128,-1,132
 1156 486 1156 486 1152 485 c 2,133,-1
 1151 485 l 2,134,135
 1146 485 1146 485 1151 499 c 0,136,137
 1171 579 1171 579 1146.5 685 c 128,-1,138
 1122 791 1122 791 1048 948 c 0,139,140
 996 1059 996 1059 996 1071 c 0,141,142
 996 1076 996 1076 1007.5 1089 c 128,-1,143
 1019 1102 1019 1102 1048 1121 c 128,-1,144
 1077 1140 1077 1140 1114 1153 c 0,145,146
 1123 1157 1123 1157 1122.5 1198 c 128,-1,147
 1122 1239 1122 1239 1113 1246 c 0,148,149
 1107 1250 1107 1250 1061 1250 c 2,150,-1
 1057 1250 l 2,151,152
 1026 1250 1026 1250 1012 1264 c 0,153,154
 1003 1274 1003 1274 1003.5 1277.5 c 128,-1,155
 1004 1281 1004 1281 1016 1290 c 0,156,157
 1028 1300 1028 1300 1028.5 1303 c 128,-1,158
 1029 1306 1029 1306 1020 1313 c 0,159,160
 1008 1323 1008 1323 998 1323 c 0,161,162
 991 1323 991 1323 994 1334 c 0,163,164
 999 1344 999 1344 987 1353 c 0,165,166
 978 1359 978 1359 978.5 1363.5 c 128,-1,167
 979 1368 979 1368 989 1385 c 2,168,-1
 1004 1409 l 1,169,-1
 1029 1394 l 2,170,171
 1048 1383 1048 1383 1059 1383 c 0,172,173
 1065 1383 1065 1383 1083 1388 c 0,174,175
 1105 1395 1105 1395 1128 1400 c 0,176,177
 1153 1405 1153 1405 1156 1409 c 0,178,179
 1157 1412 1157 1412 1142 1415 c 0,180,181
 1140 1416 1140 1416 1138 1416 c 0,182,183
 1105 1423 1105 1423 1081 1433 c 0,184,185
 1057 1441 1057 1441 1052 1441 c 0,186,187
 1044 1441 1044 1441 1029 1430 c 0,188,189
 1015 1419 1015 1419 1012 1419 c 0,190,191
 1010 1419 1010 1419 1015 1427 c 0,192,193
 1028 1449 1028 1449 1060 1449 c 0,194,195
 1079 1449 1079 1449 1106 1439 c 0,196,197
 1127 1429 1127 1429 1136 1429 c 0,198,199
 1143 1429 1143 1429 1138 1435 c 0,200,201
 1133 1444 1133 1444 1109.5 1454 c 128,-1,202
 1086 1464 1086 1464 1064 1467 c 2,203,-1
 1035 1472 l 1,204,-1
 1050 1487 l 2,205,206
 1061 1500 1061 1500 1078 1500 c 0,108,109
721 741 m 0,207,208
 732 741 732 741 753 717 c 2,209,-1
 1038 425 l 1,210,-1
 762 319 l 2,211,212
 761 319 761 319 744.5 419 c 128,-1,213
 728 519 728 519 714.5 622.5 c 128,-1,214
 701 726 701 726 706 732 c 0,215,216
 714 741 714 741 721 741 c 0,207,208
1319 462 m 1,217,-1
 1319 462 l 1,218,219
 1344 458 1344 458 1354 397 c 128,-1,220
 1364 336 1364 336 1350 280 c 0,221,222
 1334 219 1334 219 1312 196.5 c 128,-1,223
 1290 174 1290 174 1226 143 c 0,224,225
 1154 109 1154 109 961 109 c 0,226,227
 907 109 907 109 853 112 c 128,-1,228
 799 115 799 115 768.5 118.5 c 128,-1,229
 738 122 738 122 736 125 c 0,230,231
 717 154 717 154 767.5 194 c 128,-1,232
 818 234 818 234 878 260 c 2,233,-1
 937 286 l 1,234,235
 1313 462 1313 462 1319 462 c 1,217,-1
1218 1633 m 0,236,237
 1176 1633 1176 1633 1141 1621 c 0,238,239
 1048 1585 1048 1585 990 1468 c 0,240,241
 968 1428 968 1428 949 1403 c 0,242,243
 904 1340 904 1340 938 1335 c 0,244,245
 952 1334 952 1334 954 1320 c 0,246,247
 954 1307 954 1307 956 1303 c 0,248,249
 957 1301 957 1301 959 1283 c 0,250,251
 966 1218 966 1218 989 1210 c 0,252,253
 1001 1205 1001 1205 1018 1205 c 0,254,255
 1021 1205 1021 1205 1025 1205.5 c 128,-1,256
 1029 1206 1029 1206 1031 1206 c 0,257,258
 1036 1207 1036 1207 1044 1207 c 0,259,260
 1056 1207 1056 1207 1056 1201 c 0,261,262
 1056 1199 1056 1199 947 1161 c 0,263,264
 918 1151 918 1151 886 1114 c 128,-1,265
 854 1077 854 1077 849 1073 c 0,266,267
 800 1032 800 1032 781 1032 c 0,268,269
 773 1032 773 1032 683.5 1148 c 128,-1,270
 594 1264 594 1264 589 1281 c 0,271,272
 570 1349 570 1349 543 1398 c 0,273,274
 529 1422 529 1422 502.5 1445 c 128,-1,275
 476 1468 476 1468 464 1468 c 0,276,277
 460 1468 460 1468 459 1465 c 2,278,-1
 450 1445 l 2,279,280
 450 1444 450 1444 473 1415.5 c 128,-1,281
 496 1387 496 1387 515.5 1357.5 c 128,-1,282
 535 1328 535 1328 526 1323 c 2,283,-1
 525 1322 l 2,284,285
 521 1322 521 1322 499 1339 c 0,286,287
 467 1365 467 1365 445 1365 c 0,288,289
 442 1365 442 1365 440 1361 c 128,-1,290
 438 1357 438 1357 439 1351.5 c 128,-1,291
 440 1346 440 1346 446 1341 c 0,292,293
 480 1310 480 1310 496 1291 c 128,-1,294
 512 1272 512 1272 512.5 1267 c 128,-1,295
 513 1262 513 1262 520 1253 c 128,-1,296
 527 1244 527 1244 546 1229 c 0,297,298
 560 1219 560 1219 573.5 1186 c 128,-1,299
 587 1153 587 1153 616 1089 c 128,-1,300
 645 1025 645 1025 684 961 c 1,301,302
 633 914 633 914 628 914 c 1,303,-1
 628 914 l 1,304,305
 603 947 603 947 573 979 c 128,-1,306
 543 1011 543 1011 505.5 1047 c 128,-1,307
 468 1083 468 1083 448 1104 c 1,308,309
 445 1114 445 1114 436.5 1154 c 128,-1,310
 428 1194 428 1194 419.5 1221 c 128,-1,311
 411 1248 411 1248 399 1261 c 0,312,313
 348 1317 348 1317 324 1317 c 0,314,315
 317 1317 317 1317 314 1313 c 128,-1,316
 311 1309 311 1309 313 1302.5 c 128,-1,317
 315 1296 315 1296 320 1291 c 0,318,319
 370 1241 370 1241 388 1176 c 0,320,321
 398 1142 398 1142 386 1142 c 0,322,323
 377 1142 377 1142 359 1163 c 0,324,325
 346 1180 346 1180 329.5 1190.5 c 128,-1,326
 313 1201 313 1201 304 1201 c 0,327,328
 290 1201 290 1201 305 1182 c 0,329,330
 329 1152 329 1152 343 1128 c 128,-1,331
 357 1104 357 1104 360.5 1096 c 128,-1,332
 364 1088 364 1088 371 1081.5 c 128,-1,333
 378 1075 378 1075 396 1068 c 0,334,335
 407 1064 407 1064 426.5 1028.5 c 128,-1,336
 446 993 446 993 492 925 c 128,-1,337
 538 857 538 857 602 791 c 0,338,339
 610 783 610 783 614 746 c 128,-1,340
 618 709 618 709 622 655 c 128,-1,341
 626 601 626 601 632 569 c 0,342,343
 638 541 638 541 647.5 495 c 128,-1,344
 657 449 657 449 661.5 427.5 c 128,-1,345
 666 406 666 406 672 371 c 128,-1,346
 678 336 678 336 679 319 c 128,-1,347
 680 302 680 302 680 276.5 c 128,-1,348
 680 251 680 251 675 237 c 128,-1,349
 670 223 670 223 662 205.5 c 128,-1,350
 654 188 654 188 640.5 175.5 c 128,-1,351
 627 163 627 163 608 151 c 0,352,353
 586 137 586 137 572.5 124.5 c 128,-1,354
 559 112 559 112 554.5 106.5 c 128,-1,355
 550 101 550 101 536 94.5 c 128,-1,356
 522 88 522 88 495 81 c 0,357,358
 416 62 416 62 455 24 c 0,359,360
 475 5 475 5 503 5 c 0,361,362
 509 5 509 5 619 14 c 128,-1,363
 729 23 729 23 866 32 c 128,-1,364
 1003 41 1003 41 1073 41 c 0,365,366
 1357 41 1357 41 1492 16 c 0,367,368
 1558 3 1558 3 1604 3 c 0,369,370
 1630 3 1630 3 1636 8 c 0,371,372
 1645 14 1645 14 1633.5 32.5 c 128,-1,373
 1622 51 1622 51 1594 75 c 128,-1,374
 1566 99 1566 99 1532 116 c 0,375,376
 1497 134 1497 134 1486.5 177 c 128,-1,377
 1476 220 1476 220 1476.5 257 c 128,-1,378
 1477 294 1477 294 1469 298 c 0,379,380
 1455 306 1455 306 1445.5 313 c 128,-1,381
 1436 320 1436 320 1429 327 c 128,-1,382
 1422 334 1422 334 1418.5 347.5 c 128,-1,383
 1415 361 1415 361 1412.5 371.5 c 128,-1,384
 1410 382 1410 382 1409 406.5 c 128,-1,385
 1408 431 1408 431 1407.5 450 c 128,-1,386
 1407 469 1407 469 1407 509.5 c 128,-1,387
 1407 550 1407 550 1406 583 c 0,388,389
 1406 589 1406 589 1405 627 c 128,-1,390
 1404 665 1404 665 1403.5 679.5 c 128,-1,391
 1403 694 1403 694 1401 734.5 c 128,-1,392
 1399 775 1399 775 1397.5 797 c 128,-1,393
 1396 819 1396 819 1393 859 c 128,-1,394
 1390 899 1390 899 1386 925.5 c 128,-1,395
 1382 952 1382 952 1376.5 989 c 128,-1,396
 1371 1026 1371 1026 1364.5 1055 c 128,-1,397
 1358 1084 1358 1084 1349 1115.5 c 128,-1,398
 1340 1147 1340 1147 1330 1174 c 0,399,400
 1330 1175 1330 1175 1323 1186.5 c 128,-1,401
 1316 1198 1316 1198 1310.5 1210 c 128,-1,402
 1305 1222 1305 1222 1300 1236.5 c 128,-1,403
 1295 1251 1295 1251 1297 1263.5 c 128,-1,404
 1299 1276 1299 1276 1309 1284 c 0,405,406
 1373 1333 1373 1333 1402 1396 c 0,407,408
 1415 1424 1415 1424 1416 1479 c 0,409,410
 1416 1532 1416 1532 1399.5 1558.5 c 128,-1,411
 1383 1585 1383 1585 1337 1607 c 0,412,413
 1283 1633 1283 1633 1218 1633 c 0,236,237
1124 2000 m 2,414,-1
 1118 2000 l 1,415,416
 984 1995 984 1995 959 1883 c 1,417,-1
 960 1977 l 1,418,-1
 877 1977 l 1,419,-1
 877 1870 l 1,420,-1
 726 1943 l 1,421,-1
 658 1822 l 1,422,-1
 533 1859 l 1,423,-1
 499 1735 l 1,424,-1
 365 1751 l 1,425,-1
 355 1616 l 1,426,-1
 217 1611 l 1,427,-1
 223 1479 l 1,428,-1
 97 1443 l 1,429,-1
 131 1318 l 1,430,431
 131 1318 131 1318 74 1261 c 0,432,433
 45 1230 45 1230 48 1224 c 2,434,-1
 98 1106 l 1,435,-1
 31 1001 l 1,436,-1
 93 883 l 1,437,-1
 17 756 l 1,438,-1
 81 652 l 1,439,-1
 6 522 l 1,440,-1
 87 395 l 1,441,-1
 0 282 l 1,442,-1
 85 179 l 1,443,-1
 13 80 l 1,444,-1
 100 3 l 1,445,-1
 277 0 l 1,446,-1
 137 87 l 1,447,-1
 215 200 l 1,448,-1
 129 299 l 1,449,-1
 186 417 l 1,450,-1
 107 529 l 1,451,-1
 204 670 l 1,452,-1
 128 780 l 1,453,-1
 202 898 l 1,454,-1
 142 1000 l 1,455,-1
 197 1116 l 1,456,-1
 143 1215 l 1,457,-1
 237 1284 l 1,458,459
 234 1291 234 1291 228.5 1302.5 c 128,-1,460
 223 1314 223 1314 212 1338.5 c 128,-1,461
 201 1363 201 1363 194 1379 c 128,-1,462
 187 1395 187 1395 188 1395 c 2,463,-1
 296 1406 l 1,464,-1
 287 1543 l 1,465,-1
 425 1530 l 1,466,-1
 432 1673 l 1,467,-1
 561 1648 l 1,468,-1
 589 1754 l 1,469,-1
 717 1725 l 1,470,-1
 764 1826 l 1,471,-1
 878 1763 l 1,472,-1
 877 1647 l 1,473,-1
 958 1647 l 1,474,-1
 959 1732 l 1,475,-1
 959 1732 l 1,476,477
 968 1708 968 1708 987 1690 c 0,478,479
 1019 1658 1019 1658 1049.5 1646.5 c 128,-1,480
 1080 1635 1080 1635 1122 1635 c 1,481,-1
 1122 1635 l 1,482,483
 1125 1635 1125 1635 1134 1636 c 128,-1,484
 1143 1637 1143 1637 1162.5 1641 c 128,-1,485
 1182 1645 1182 1645 1200.5 1651.5 c 128,-1,486
 1219 1658 1219 1658 1240 1671.5 c 128,-1,487
 1261 1685 1261 1685 1274 1703 c 0,488,489
 1299 1736 1299 1736 1305 1782.5 c 128,-1,490
 1311 1829 1311 1829 1302.5 1867 c 128,-1,491
 1294 1905 1294 1905 1278 1928 c 0,492,493
 1256 1961 1256 1961 1212 1980.5 c 128,-1,494
 1168 2000 1168 2000 1124 2000 c 2,414,-1
EndSplineSet
EndChar

StartChar: u13007
Encoding: 77831 77831 10
Width: 2034
GlyphClass: 2
Flags: W
LayerCount: 2
Fore
SplineSet
1581 1952 m 0,0,1
 1696 1952 1696 1952 1696 1832 c 0,2,3
 1696 1714 1696 1714 1580 1713 c 0,4,5
 1577 1713 1577 1713 1575 1713 c 0,6,7
 1462 1713 1462 1713 1398 1772 c 0,8,9
 1358 1810 1358 1810 1313 1810 c 0,10,11
 1286 1810 1286 1810 1258 1797 c 1,12,-1
 1258 1868 l 1,13,14
 1286 1855 1286 1855 1313 1855 c 0,15,16
 1358 1855 1358 1855 1398 1892 c 0,17,18
 1463 1952 1463 1952 1581 1952 c 0,0,1
1409 1447 m 1,19,20
 1403 1438 1403 1438 1409 1429 c 1,21,22
 1398 1432 1398 1432 1394 1436 c 1,23,24
 1396 1443 1396 1443 1409 1447 c 1,19,20
1432 1445 m 1,25,-1
 1454 1432 l 1,26,27
 1440 1427 1440 1427 1427 1427 c 1,28,29
 1438 1434 1438 1434 1432 1445 c 1,25,-1
1416 1458 m 0,30,31
 1405 1458 1405 1458 1396 1452 c 2,32,-1
 1378 1438 l 1,33,-1
 1378 1423 l 1,34,-1
 1387 1425 l 1,35,36
 1404 1416 1404 1416 1423 1416 c 0,37,38
 1443 1416 1443 1416 1465 1425 c 1,39,-1
 1494 1418 l 1,40,-1
 1494 1434 l 1,41,-1
 1465 1436 l 1,42,43
 1437 1458 1437 1458 1416 1458 c 0,30,31
1590 1454 m 0,44,45
 1598 1454 1598 1454 1596 1445 c 0,46,47
 1594 1429 1594 1429 1582 1415 c 0,48,49
 1570 1400 1570 1400 1558 1395 c 0,50,51
 1555 1393 1555 1393 1554 1393 c 0,52,53
 1550 1393 1550 1393 1558 1404 c 0,54,55
 1567 1415 1567 1415 1562 1415 c 0,56,57
 1561 1415 1561 1415 1558 1414 c 0,58,59
 1556 1413 1556 1413 1554 1413 c 0,60,61
 1549 1413 1549 1413 1554 1424 c 0,62,63
 1561 1438 1561 1438 1574 1449 c 0,64,65
 1584 1454 1584 1454 1590 1454 c 0,44,45
1538 1394 m 1,66,67
 1552 1387 1552 1387 1544 1380 c 0,68,69
 1540 1377 1540 1377 1538 1377 c 0,70,71
 1535 1377 1535 1377 1533 1381 c 0,72,73
 1529 1389 1529 1389 1538 1394 c 1,66,67
1596 1470 m 0,74,75
 1591 1470 1591 1470 1584 1468 c 0,76,77
 1565 1463 1565 1463 1551 1440 c 0,78,79
 1536 1418 1536 1418 1543 1407 c 1,80,81
 1527 1400 1527 1400 1524 1388 c 128,-1,82
 1521 1376 1521 1376 1534 1370 c 0,83,84
 1536 1369 1536 1369 1539 1369 c 0,85,86
 1552 1369 1552 1369 1573 1389 c 0,87,88
 1599 1414 1599 1414 1606 1434 c 0,89,90
 1614 1454 1614 1454 1609 1464 c 0,91,92
 1605 1470 1605 1470 1596 1470 c 0,74,75
1382 1377 m 2,93,-1
 1381 1377 l 2,94,95
 1378 1376 1378 1376 1379 1370 c 0,96,97
 1380 1365 1380 1365 1375 1363 c 0,98,99
 1374 1362 1374 1362 1372 1362 c 0,100,101
 1368 1362 1368 1362 1364 1368 c 0,102,103
 1358 1376 1358 1376 1356 1376 c 0,104,105
 1351 1376 1351 1376 1349 1373 c 0,106,107
 1347 1369 1347 1369 1349 1365 c 1,108,109
 1351 1366 1351 1366 1354 1366 c 0,110,111
 1358 1366 1358 1366 1363 1360 c 0,112,113
 1367 1354 1367 1354 1372 1354 c 0,114,115
 1375 1354 1375 1354 1378 1356 c 0,116,117
 1387 1360 1387 1360 1386 1369 c 0,118,119
 1385 1377 1385 1377 1382 1377 c 2,93,-1
1354 1337 m 0,120,121
 1356 1337 1356 1337 1358 1337 c 0,122,123
 1367 1336 1367 1336 1380 1334 c 0,124,125
 1394 1331 1394 1331 1391 1331 c 2,126,-1
 1351 1329 l 2,127,128
 1345 1331 1345 1331 1347 1335 c 0,129,130
 1349 1337 1349 1337 1354 1337 c 0,120,121
1546 1595 m 0,131,132
 1586 1595 1586 1595 1637 1582 c 0,133,134
 1721 1561 1721 1561 1721 1485 c 0,135,136
 1721 1407 1721 1407 1665 1355 c 0,137,138
 1627 1319 1627 1319 1608 1319 c 0,139,140
 1599 1319 1599 1319 1594 1327 c 0,141,142
 1576 1349 1576 1349 1621 1394 c 0,143,144
 1665 1438 1665 1438 1643 1482 c 0,145,146
 1631 1505 1631 1505 1603 1505 c 0,147,148
 1580 1505 1580 1505 1547 1489 c 1,149,150
 1521 1516 1521 1516 1427 1532 c 1,151,152
 1445 1576 1445 1576 1499 1590 c 0,153,154
 1521 1595 1521 1595 1546 1595 c 0,131,132
1389 1327 m 1,155,156
 1387 1322 1387 1322 1377 1318 c 128,-1,157
 1367 1314 1367 1314 1360 1314 c 0,158,159
 1356 1314 1356 1314 1354 1316 c 0,160,161
 1351 1318 1351 1318 1356 1322 c 2,162,-1
 1389 1327 l 1,155,156
1411 1503 m 1,163,164
 1487 1498 1487 1498 1536 1463 c 1,165,166
 1535 1448 1535 1448 1541 1448 c 128,-1,167
 1547 1448 1547 1448 1560 1460 c 0,168,169
 1578 1479 1578 1479 1595 1479 c 0,170,171
 1602 1479 1602 1479 1609 1476 c 0,172,173
 1632 1465 1632 1465 1615 1429 c 0,174,175
 1599 1394 1599 1394 1571 1369 c 0,176,177
 1543 1345 1543 1345 1557 1320 c 0,178,179
 1572 1296 1572 1296 1578 1278 c 0,180,181
 1614 1182 1614 1182 1655 1138 c 0,182,183
 1696 1093 1696 1093 1663 827 c 128,-1,184
 1630 561 1630 561 1641 476 c 1,185,186
 1554 441 1554 441 1445 423 c 1,187,188
 1447 610 1447 610 1406 764 c 0,189,190
 1365 917 1365 917 1364 1024 c 128,-1,191
 1363 1131 1363 1131 1423 1149 c 128,-1,192
 1483 1167 1483 1167 1484 1219 c 0,193,194
 1485 1265 1485 1265 1437 1265 c 0,195,196
 1431 1265 1431 1265 1424 1265 c 0,197,198
 1416 1264 1416 1264 1410 1264 c 0,199,200
 1364 1264 1364 1264 1371 1305 c 1,201,202
 1409 1325 1409 1325 1398 1334 c 0,203,204
 1387 1342 1387 1342 1358 1345 c 1,205,206
 1360 1360 1360 1360 1331 1374 c 1,207,208
 1358 1436 1358 1436 1387 1460 c 0,209,210
 1399 1467 1399 1467 1413 1467 c 0,211,212
 1426 1467 1426 1467 1440 1460 c 0,213,214
 1469 1447 1469 1447 1498 1440 c 1,215,-1
 1498 1454 l 1,216,217
 1481 1454 1481 1454 1452 1470 c 0,218,219
 1434 1481 1434 1481 1416 1481 c 0,220,221
 1404 1481 1404 1481 1391 1476 c 1,222,223
 1403 1494 1403 1494 1411 1503 c 1,163,164
964 686 m 0,224,225
 979 686 979 686 1009 670 c 1,226,-1
 1371 399 l 1,227,-1
 991 312 l 1,228,229
 1037 543 1037 543 951 641 c 1,230,231
 938 686 938 686 964 686 c 0,224,225
1652 407 m 1,232,233
 1685 263 1685 263 1599 149 c 1,234,235
 1522 105 1522 105 1426 105 c 0,236,237
 1358 105 1358 105 1281 127 c 128,-1,238
 1204 149 1204 149 1131 149 c 0,239,240
 1026 149 1026 149 928 105 c 1,241,242
 944 165 944 165 902 225 c 1,243,-1
 1652 407 l 1,232,233
474 223 m 1,244,-1
 474 53 l 1,245,-1
 62 53 l 1,246,-1
 62 223 l 1,247,-1
 474 223 l 1,244,-1
1597 1998 m 0,248,249
 1461 1998 1461 1998 1394 1944 c 0,250,251
 1343 1903 1343 1903 1311 1903 c 0,252,253
 1300 1903 1300 1903 1291 1908 c 0,254,255
 1258 1928 1258 1928 1258 1939 c 0,256,257
 1258 1952 1258 1952 1209 1952 c 1,258,-1
 1211 1879 l 1,259,260
 1198 1856 1198 1856 1180 1856 c 0,261,262
 1168 1856 1168 1856 1152 1868 c 0,263,264
 1126 1889 1126 1889 1098 1889 c 0,265,266
 1087 1889 1087 1889 1076 1886 c 0,267,268
 1037 1875 1037 1875 1027 1833 c 0,269,270
 1017 1792 1017 1792 978 1781 c 0,271,272
 967 1778 967 1778 957 1778 c 0,273,274
 930 1778 930 1778 907 1798 c 0,275,276
 888 1814 888 1814 868 1814 c 0,277,278
 854 1814 854 1814 839 1807 c 0,279,280
 804 1788 804 1788 801 1745 c 0,281,282
 799 1703 799 1703 761 1686 c 0,283,284
 741 1678 741 1678 721 1678 c 0,285,286
 704 1678 704 1678 688 1684 c 0,287,288
 674 1690 674 1690 661 1690 c 0,289,290
 640 1690 640 1690 619 1675 c 0,291,292
 586 1652 586 1652 589 1610 c 0,293,294
 592 1567 592 1567 558 1546 c 0,295,296
 526 1527 526 1527 496 1527 c 0,297,298
 493 1527 493 1527 490 1527 c 128,-1,299
 487 1527 487 1527 485 1527 c 0,300,301
 454 1527 454 1527 429 1499 c 0,302,303
 401 1469 401 1469 416 1428 c 0,304,305
 432 1387 432 1387 405 1357 c 128,-1,306
 378 1327 378 1327 343 1320 c 0,307,308
 307 1314 307 1314 289 1278 c 0,309,310
 272 1242 272 1242 296 1208 c 0,311,312
 321 1173 321 1173 302 1137 c 0,313,314
 283 1100 283 1100 250 1086 c 0,315,316
 218 1073 218 1073 209 1033 c 128,-1,317
 200 993 200 993 236 963 c 128,-1,318
 272 933 272 933 270 892 c 0,319,320
 269 850 269 850 233 829 c 0,321,322
 196 808 196 808 196 768 c 128,-1,323
 196 728 196 728 235 707 c 128,-1,324
 274 686 274 686 273 646 c 128,-1,325
 272 606 272 606 234 584 c 0,326,327
 196 563 196 563 196 522 c 128,-1,328
 196 481 196 481 235 461 c 128,-1,329
 274 441 274 441 273 401 c 128,-1,330
 272 361 272 361 234 340 c 0,331,332
 196 318 196 318 196 276 c 1,333,-1
 0 276 l 1,334,-1
 0 0 l 1,335,-1
 537 0 l 1,336,-1
 537 276 l 1,337,-1
 267 276 l 1,338,339
 267 318 267 318 304 340 c 0,340,341
 341 361 341 361 342 401 c 128,-1,342
 343 441 343 441 305 461 c 128,-1,343
 267 481 267 481 267 522 c 128,-1,344
 267 563 267 563 304 584 c 0,345,346
 341 606 341 606 342 646 c 128,-1,347
 343 686 343 686 305 707 c 128,-1,348
 267 728 267 728 267 768 c 128,-1,349
 267 808 267 808 304 829 c 128,-1,350
 341 850 341 850 341 892 c 0,351,352
 341 933 341 933 306 954 c 0,353,354
 272 975 272 975 279 1016 c 0,355,356
 287 1058 287 1058 317 1064 c 0,357,358
 347 1071 347 1071 366 1106 c 0,359,360
 385 1142 385 1142 361 1176 c 0,361,362
 336 1209 336 1209 353 1246 c 0,363,364
 370 1282 370 1282 401 1282 c 128,-1,365
 432 1282 432 1282 459 1312 c 0,366,367
 485 1342 485 1342 469 1380 c 0,368,369
 452 1418 452 1418 480 1449 c 0,370,371
 502 1474 502 1474 524 1474 c 0,372,373
 529 1474 529 1474 534 1473 c 0,374,375
 541 1471 541 1471 549 1471 c 0,376,377
 570 1471 570 1471 597 1487 c 0,378,379
 632 1509 632 1509 629 1552 c 0,380,381
 626 1594 626 1594 659 1617 c 0,382,383
 678 1631 678 1631 697 1631 c 0,384,385
 710 1631 710 1631 722 1624 c 0,386,387
 738 1615 738 1615 756 1615 c 0,388,389
 772 1615 772 1615 790 1623 c 0,390,391
 828 1639 828 1639 832 1681 c 0,392,393
 835 1723 835 1723 872 1742 c 0,394,395
 886 1750 886 1750 899 1750 c 0,396,397
 918 1750 918 1750 933 1732 c 0,398,399
 951 1711 951 1711 976 1711 c 0,400,401
 986 1711 986 1711 997 1714 c 0,402,403
 1037 1725 1037 1725 1046 1765 c 0,404,405
 1055 1806 1055 1806 1086 1816 c 0,406,407
 1094 1818 1094 1818 1102 1818 c 0,408,409
 1126 1818 1126 1818 1153 1794 c 0,410,411
 1171 1779 1171 1779 1186 1779 c 0,412,413
 1200 1779 1200 1779 1211 1794 c 1,414,-1
 1211 1794 l 1,415,-1
 1209 1712 l 1,416,417
 1258 1712 1258 1712 1258 1725 c 0,418,419
 1258 1737 1258 1737 1291 1758 c 0,420,421
 1300 1763 1300 1763 1312 1763 c 0,422,423
 1343 1763 1343 1763 1394 1722 c 0,424,425
 1463 1665 1463 1665 1604 1665 c 128,-1,426
 1745 1665 1745 1665 1744 1831 c 128,-1,427
 1743 1997 1743 1997 1603 1998 c 0,428,429
 1600 1998 1600 1998 1597 1998 c 0,248,249
1561 1625 m 0,430,431
 1534 1625 1534 1625 1505 1621 c 0,432,433
 1411 1607 1411 1607 1371 1478 c 1,434,435
 1347 1447 1347 1447 1318 1396 c 0,436,437
 1302 1360 1302 1360 1317 1357 c 0,438,439
 1331 1354 1331 1354 1340 1345 c 1,440,441
 1329 1338 1329 1338 1331 1331 c 0,442,443
 1334 1325 1334 1325 1345 1322 c 1,444,-1
 1346 1323 l 2,445,446
 1347 1323 1347 1323 1340 1317 c 0,447,448
 1331 1309 1331 1309 1341 1304 c 0,449,450
 1351 1298 1351 1298 1351 1267 c 0,451,452
 1351 1240 1351 1240 1380 1240 c 0,453,454
 1382 1240 1382 1240 1385 1240 c 0,455,456
 1394 1241 1394 1241 1402 1241 c 0,457,458
 1450 1241 1450 1241 1429 1217 c 0,459,460
 1405 1189 1405 1189 1351 1182 c 0,461,462
 1349 1183 1349 1183 1346 1183 c 0,463,464
 1272 1183 1272 1183 1011 913 c 1,465,466
 1002 913 1002 913 993 913 c 0,467,468
 872 913 872 913 692 940 c 0,469,470
 654 943 654 943 620 943 c 0,471,472
 479 943 479 943 399 877 c 1,473,474
 390 846 390 846 406 827 c 0,475,476
 415 817 415 817 422 817 c 0,477,478
 427 817 427 817 430 824 c 0,479,480
 456 855 456 855 490 874 c 0,481,482
 508 884 508 884 535 884 c 0,483,484
 557 884 557 884 586 877 c 1,485,486
 548 854 548 854 515 854 c 0,487,488
 507 854 507 854 500 855 c 128,-1,489
 493 856 493 856 487 856 c 0,490,491
 461 856 461 856 461 833 c 1,492,493
 485 823 485 823 514 823 c 0,494,495
 588 823 588 823 697 884 c 1,496,-1
 846 839 l 1,497,-1
 710 808 l 1,498,499
 525 741 525 741 472 626 c 1,500,501
 476 594 476 594 500 584 c 0,502,503
 509 580 509 580 515 580 c 0,504,505
 523 580 523 580 523 590 c 0,506,507
 532 630 532 630 555 661 c 0,508,509
 579 692 579 692 639 706 c 1,510,-1
 639 706 l 1,511,512
 610 659 610 659 572 648 c 128,-1,513
 534 637 534 637 545 612 c 1,514,515
 639 617 639 617 739 757 c 1,516,517
 778 754 778 754 813 754 c 0,518,519
 962 754 962 754 1037 808 c 0,520,521
 1104 857 1104 857 1300 1017 c 1,522,523
 1305 917 1305 917 1349 757 c 0,524,525
 1394 597 1394 597 1389 456 c 1,526,-1
 1080 690 l 1,527,528
 1011 753 1011 753 957 753 c 0,529,530
 810 750 810 750 828 630 c 2,531,-1
 875 278 l 1,532,533
 764 245 764 245 777 85 c 1,534,535
 726 76 726 76 683 57 c 0,536,537
 646 40 646 40 607 40 c 0,538,539
 602 40 602 40 598 40 c 0,540,541
 596 40 596 40 594 40 c 0,542,543
 554 40 554 40 541 0 c 1,544,-1
 2035 0 l 1,545,546
 1996 74 1996 74 1931 74 c 0,547,548
 1918 74 1918 74 1904 71 c 128,-1,549
 1890 68 1890 68 1878 68 c 0,550,551
 1814 68 1814 68 1790 147 c 0,552,553
 1773 203 1773 203 1736 203 c 0,554,555
 1712 203 1712 203 1679 178 c 1,556,557
 1757 316 1757 316 1685 492 c 1,558,559
 1670 557 1670 557 1710 829 c 0,560,561
 1750 1102 1750 1102 1688 1174 c 0,562,563
 1625 1247 1625 1247 1627 1282 c 1,564,565
 1672 1300 1672 1300 1713 1350 c 128,-1,566
 1754 1400 1754 1400 1754 1487 c 128,-1,567
 1754 1574 1754 1574 1676 1604 c 0,568,569
 1622 1625 1622 1625 1561 1625 c 0,430,431
EndSplineSet
EndChar

StartChar: u13008
Encoding: 77832 77832 11
Width: 1840
GlyphClass: 2
Flags: W
LayerCount: 2
Fore
SplineSet
1386 1954 m 0,0,1
 1502 1954 1502 1954 1502 1834 c 0,2,3
 1502 1715 1502 1715 1385 1715 c 2,4,-1
 1384 1715 l 1,5,-1
 1381 1715 l 2,6,7
 1266 1715 1266 1715 1203 1774 c 0,8,9
 1162 1812 1162 1812 1118 1812 c 0,10,11
 1093 1812 1093 1812 1063 1798 c 1,12,-1
 1063 1870 l 1,13,14
 1093 1856 1093 1856 1118 1856 c 0,15,16
 1162 1856 1162 1856 1203 1894 c 0,17,18
 1268 1954 1268 1954 1386 1954 c 0,0,1
1214 1448 m 1,19,-1
 1214 1448 l 1,20,-1
 1214 1448 l 1,21,22
 1208 1440 1208 1440 1214 1431 c 1,23,24
 1204 1432 1204 1432 1199 1437 c 1,25,26
 1201 1445 1201 1445 1214 1448 c 1,19,-1
1237 1446 m 1,27,-1
 1259 1433 l 1,28,29
 1244 1428 1244 1428 1232 1428 c 1,30,31
 1243 1435 1243 1435 1237 1446 c 1,27,-1
1222 1459 m 0,32,33
 1210 1459 1210 1459 1201 1453 c 2,34,-1
 1183 1440 l 1,35,-1
 1183 1424 l 1,36,-1
 1192 1426 l 1,37,38
 1208 1417 1208 1417 1228 1417 c 128,-1,39
 1248 1417 1248 1417 1270 1426 c 1,40,-1
 1299 1420 l 1,41,-1
 1299 1435 l 1,42,-1
 1270 1437 l 1,43,44
 1244 1459 1244 1459 1222 1459 c 0,32,33
1395 1455 m 1,45,-1
 1395 1455 l 1,46,-1
 1395 1455 l 1,47,48
 1404 1455 1404 1455 1402 1446 c 0,49,50
 1399 1431 1399 1431 1387 1416 c 0,51,52
 1375 1402 1375 1402 1364 1396 c 0,53,54
 1362 1395 1362 1395 1359 1395 c 0,55,56
 1355 1395 1355 1395 1364 1405 c 0,57,58
 1372 1416 1372 1416 1368 1416 c 0,59,60
 1366 1416 1366 1416 1364 1415 c 128,-1,61
 1362 1414 1362 1414 1360 1414 c 0,62,63
 1354 1414 1354 1414 1359 1425 c 0,64,65
 1366 1440 1366 1440 1379 1451 c 0,66,67
 1388 1455 1388 1455 1395 1455 c 1,45,-1
1344 1395 m 1,68,69
 1358 1389 1358 1389 1349 1382 c 0,70,71
 1346 1379 1346 1379 1343 1379 c 0,72,73
 1339 1379 1339 1379 1338 1383 c 0,74,75
 1335 1390 1335 1390 1344 1395 c 1,68,69
1401 1472 m 1,76,-1
 1401 1472 l 1,77,-1
 1401 1472 l 1,78,79
 1399 1472 1399 1472 1389 1470 c 0,80,81
 1371 1464 1371 1464 1356 1442 c 0,82,83
 1342 1421 1342 1421 1348 1408 c 1,84,85
 1332 1402 1332 1402 1329 1389 c 128,-1,86
 1326 1376 1326 1376 1339 1372 c 0,87,88
 1341 1371 1341 1371 1345 1371 c 0,89,90
 1358 1371 1358 1371 1378 1391 c 0,91,92
 1402 1414 1402 1414 1412 1435 c 0,93,94
 1420 1456 1420 1456 1414 1465 c 0,95,96
 1411 1472 1411 1472 1401 1472 c 1,76,-1
1187 1378 m 1,97,-1
 1187 1378 l 1,98,-1
 1187 1378 l 1,99,-1
 1187 1378 l 1,100,101
 1184 1378 1184 1378 1184 1372 c 0,102,103
 1186 1365 1186 1365 1180 1364 c 2,104,-1
 1179 1364 l 2,105,106
 1178 1363 1178 1363 1177 1363 c 0,107,108
 1174 1363 1174 1363 1169 1369 c 0,109,110
 1164 1377 1164 1377 1161 1377 c 0,111,112
 1157 1377 1157 1377 1154 1374 c 0,113,114
 1152 1371 1152 1371 1154 1366 c 1,115,116
 1158 1368 1158 1368 1159 1368 c 0,117,118
 1164 1368 1164 1368 1168 1362 c 0,119,120
 1173 1356 1173 1356 1178 1356 c 0,121,122
 1181 1356 1181 1356 1183 1357 c 0,123,124
 1193 1362 1193 1362 1191 1371 c 0,125,126
 1190 1378 1190 1378 1187 1378 c 1,97,-1
1159 1338 m 1,127,-1
 1163 1338 l 2,128,129
 1169 1337 1169 1337 1185 1335 c 0,130,131
 1187 1334 1187 1334 1189.5 1334 c 128,-1,132
 1192 1334 1192 1334 1193.5 1333.5 c 128,-1,133
 1195 1333 1195 1333 1196 1333 c 128,-1,134
 1197 1333 1197 1333 1197 1333 c 1,135,-1
 1197 1333 l 1,136,-1
 1157 1330 l 2,137,138
 1150 1333 1150 1333 1152 1336 c 0,139,140
 1153 1338 1153 1338 1159 1338 c 1,141,-1
 1159 1338 l 1,127,-1
1351 1596 m 0,142,143
 1394 1596 1394 1596 1443 1583 c 0,144,145
 1526 1562 1526 1562 1526 1486 c 0,146,147
 1526 1408 1526 1408 1471 1356 c 0,148,149
 1432 1320 1432 1320 1413 1320 c 0,150,151
 1405 1320 1405 1320 1399 1328 c 0,152,153
 1382 1351 1382 1351 1426 1395 c 0,154,155
 1470 1440 1470 1440 1448 1483 c 0,156,157
 1436 1507 1436 1507 1409 1507 c 0,158,159
 1385 1507 1385 1507 1353 1491 c 1,160,161
 1326 1518 1326 1518 1232 1533 c 1,162,163
 1250 1578 1250 1578 1305 1591 c 0,164,165
 1323 1596 1323 1596 1351 1596 c 0,142,143
1194 1328 m 1,166,167
 1192 1324 1192 1324 1182 1319 c 0,168,169
 1173 1315 1173 1315 1165 1315 c 0,170,171
 1161 1315 1161 1315 1159 1317 c 0,172,173
 1156 1320 1156 1320 1161 1324 c 2,174,-1
 1194 1328 l 1,166,167
1217 1504 m 1,175,176
 1294 1499 1294 1499 1341 1464 c 1,177,178
 1341 1449 1341 1449 1347 1449 c 128,-1,179
 1353 1449 1353 1449 1365 1462 c 0,180,181
 1384 1481 1384 1481 1400 1481 c 0,182,183
 1407 1481 1407 1481 1414 1477 c 0,184,185
 1438 1467 1438 1467 1421 1431 c 0,186,187
 1402 1393 1402 1393 1376 1370 c 0,188,189
 1348 1346 1348 1346 1363 1321 c 0,190,191
 1376 1297 1376 1297 1384 1279 c 0,192,193
 1421 1180 1421 1180 1461 1139 c 0,194,195
 1502 1093 1502 1093 1468 828 c 0,196,197
 1435 563 1435 563 1446 477 c 1,198,199
 1359 441 1359 441 1250 423 c 1,200,201
 1253 611 1253 611 1211 764 c 0,202,203
 1170 918 1170 918 1169 1025 c 0,204,205
 1167 1132 1167 1132 1228 1150 c 0,206,207
 1288 1168 1288 1168 1289 1220 c 0,208,209
 1291 1267 1291 1267 1242 1267 c 0,210,211
 1240 1267 1240 1267 1236 1266.5 c 128,-1,212
 1232 1266 1232 1266 1229 1266 c 0,213,214
 1224 1265 1224 1265 1215 1265 c 0,215,216
 1168 1265 1168 1265 1177 1306 c 1,217,218
 1215 1326 1215 1326 1203 1335 c 0,219,220
 1194 1343 1194 1343 1163 1346 c 1,221,222
 1166 1361 1166 1361 1136 1375 c 1,223,224
 1163 1436 1163 1436 1192 1462 c 0,225,226
 1204 1468 1204 1468 1218 1468 c 0,227,228
 1231 1468 1231 1468 1246 1462 c 0,229,230
 1277 1447 1277 1447 1304 1442 c 1,231,-1
 1304 1455 l 1,232,233
 1286 1455 1286 1455 1257 1472 c 0,234,235
 1237 1482 1237 1482 1221 1482 c 0,236,237
 1210 1482 1210 1482 1197 1477 c 1,238,239
 1207 1494 1207 1494 1217 1504 c 1,240,-1
 1217 1504 l 1,175,176
769 687 m 0,241,242
 783 687 783 687 813 671 c 1,243,-1
 1177 399 l 1,244,-1
 796 312 l 1,245,246
 842 543 842 543 755 642 c 1,247,248
 743 687 743 687 769 687 c 0,241,242
1457 408 m 1,249,250
 1491 263 1491 263 1404 149 c 1,251,252
 1325 105 1325 105 1231 105 c 0,253,254
 1162 105 1162 105 1086 127 c 0,255,256
 1011 149 1011 149 936 149 c 0,257,258
 832 149 832 149 733 105 c 1,259,260
 750 165 750 165 706 225 c 1,261,-1
 1457 408 l 1,249,250
1403 2000 m 1,262,263
 1266 2000 1266 2000 1199 1945 c 0,264,265
 1147 1904 1147 1904 1117 1904 c 0,266,267
 1105 1904 1105 1904 1096 1910 c 0,268,269
 1063 1929 1063 1929 1063 1941 c 0,270,271
 1063 1954 1063 1954 1014 1954 c 1,272,-1
 1016 1881 l 1,273,274
 1004 1857 1004 1857 985 1857 c 0,275,276
 973 1857 973 1857 957 1870 c 0,277,278
 930 1891 930 1891 903 1891 c 0,279,280
 892 1891 892 1891 881 1887 c 0,281,282
 842 1877 842 1877 832 1835 c 0,283,284
 823 1794 823 1794 783 1783 c 0,285,286
 772 1780 772 1780 762 1780 c 0,287,288
 734 1780 734 1780 712 1799 c 0,289,290
 692 1816 692 1816 672 1816 c 0,291,292
 660 1816 660 1816 644 1808 c 0,293,294
 609 1791 609 1791 606 1747 c 0,295,296
 604 1705 604 1705 566 1688 c 0,297,298
 545 1679 545 1679 526 1679 c 128,-1,299
 507 1679 507 1679 492 1686 c 0,300,301
 477 1691 477 1691 466 1691 c 0,302,303
 443 1691 443 1691 423 1677 c 0,304,305
 390 1653 390 1653 393 1611 c 0,306,307
 397 1570 397 1570 362 1548 c 0,308,309
 330 1528 330 1528 301 1528 c 0,310,311
 299 1528 299 1528 297 1528.5 c 128,-1,312
 295 1529 295 1529 294 1529 c 2,313,-1
 290 1529 l 2,314,315
 259 1529 259 1529 233 1501 c 0,316,317
 204 1471 204 1471 221 1430 c 0,318,319
 236 1388 236 1388 209 1358 c 0,320,321
 184 1329 184 1329 147 1321 c 0,322,323
 110 1315 110 1315 94 1279 c 0,324,325
 76 1243 76 1243 100 1209 c 0,326,327
 125 1176 125 1176 106 1138 c 0,328,329
 86 1100 86 1100 55 1087 c 0,330,331
 22 1075 22 1075 13 1034 c 0,332,333
 4 994 4 994 40 964 c 0,334,335
 75 935 75 935 75 892 c 0,336,337
 73 851 73 851 37 830 c 0,338,339
 0 809 0 809 0 769 c 128,-1,340
 0 729 0 729 39 708 c 0,341,342
 78 685 78 685 77 646 c 0,343,344
 76 606 76 606 38 585 c 128,-1,345
 0 564 0 564 0 523 c 128,-1,346
 0 482 0 482 39 461 c 0,347,348
 71 440 71 440 75 393 c 128,-1,349
 79 346 79 346 47 324 c 0,350,351
 13 303 13 303 13 262 c 0,352,353
 13 230 13 230 34 210 c 0,354,355
 41 203 41 203 45 200 c 0,356,357
 81 170 81 170 79 129 c 0,358,359
 79 87 79 87 41 66 c 0,360,361
 6 46 6 46 5 16 c 1,362,-1
 76 16 l 1,363,364
 77 47 77 47 113 66 c 0,365,366
 149 87 149 87 149 129 c 0,367,368
 150 151 150 151 141 171 c 128,-1,369
 132 191 132 191 121 199 c 0,370,371
 85 226 85 226 86 266.5 c 128,-1,372
 87 307 87 307 117 333 c 0,373,374
 149 361 149 361 145 394 c 1,375,-1
 145 394 l 1,376,377
 146 396 146 396 146 401 c 0,378,379
 147 441 147 441 109 461 c 0,380,381
 71 482 71 482 71 523 c 0,382,383
 71 563 71 563 108 585 c 0,384,385
 144 605 144 605 146 646 c 0,386,387
 147 685 147 685 109 708 c 0,388,389
 71 729 71 729 71 769 c 0,390,391
 71 808 71 808 108 830 c 0,392,393
 145 851 145 851 145 892 c 0,394,395
 145 934 145 934 110 955 c 128,-1,396
 75 976 75 976 84 1017 c 0,397,398
 92 1059 92 1059 121 1065 c 0,399,400
 152 1072 152 1072 170 1107 c 0,401,402
 189 1142 189 1142 165 1177 c 0,403,404
 141 1210 141 1210 157 1247 c 0,405,406
 174 1284 174 1284 205 1284 c 128,-1,407
 236 1284 236 1284 263 1314 c 0,408,409
 289 1343 289 1343 273 1382 c 0,410,411
 257 1419 257 1419 284 1451 c 0,412,413
 307 1476 307 1476 328 1476 c 0,414,415
 331 1476 331 1476 339 1474 c 128,-1,416
 347 1472 347 1472 353 1472 c 0,417,418
 375 1472 375 1472 401 1489 c 0,419,420
 438 1510 438 1510 433 1553 c 0,421,422
 430 1595 430 1595 463 1619 c 0,423,424
 483 1633 483 1633 501 1633 c 0,425,426
 513 1633 513 1633 527 1626 c 0,427,428
 542 1617 542 1617 560 1617 c 128,-1,429
 578 1617 578 1617 595 1624 c 0,430,431
 633 1641 633 1641 636 1682 c 0,432,433
 639 1724 639 1724 676 1744 c 0,434,435
 690 1751 690 1751 703 1751 c 0,436,437
 723 1751 723 1751 738 1734 c 0,438,439
 754 1713 754 1713 781 1713 c 0,440,441
 792 1713 792 1713 802 1716 c 0,442,443
 842 1726 842 1726 851 1767 c 128,-1,444
 860 1808 860 1808 891 1817 c 0,445,446
 899 1820 899 1820 907 1820 c 0,447,448
 931 1820 931 1820 958 1796 c 0,449,450
 977 1780 977 1780 991 1780 c 128,-1,451
 1005 1780 1005 1780 1016 1796 c 1,452,-1
 1016 1796 l 1,453,-1
 1014 1714 l 1,454,455
 1063 1714 1063 1714 1063 1727 c 0,456,457
 1063 1738 1063 1738 1096 1759 c 0,458,459
 1105 1765 1105 1765 1117 1765 c 0,460,461
 1147 1765 1147 1765 1199 1724 c 0,462,463
 1268 1667 1268 1667 1409 1667 c 0,464,465
 1551 1667 1551 1667 1550 1833 c 0,466,467
 1548 1999 1548 1999 1408 2000 c 2,468,-1
 1403 2000 l 1,469,-1
 1403 2000 l 1,262,263
1366 1626 m 1,470,-1
 1366 1626 l 1,471,472
 1335 1626 1335 1626 1310 1622 c 0,473,474
 1216 1608 1216 1608 1177 1480 c 1,475,476
 1152 1450 1152 1450 1123 1397 c 1,477,478
 1108 1361 1108 1361 1122 1358 c 128,-1,479
 1136 1355 1136 1355 1145 1346 c 1,480,481
 1135 1339 1135 1339 1136 1333 c 0,482,483
 1139 1325 1139 1325 1150 1324 c 2,484,-1
 1151 1324 l 2,485,486
 1152 1324 1152 1324 1145 1318 c 0,487,488
 1135 1310 1135 1310 1147 1305 c 0,489,490
 1157 1298 1157 1298 1157 1268 c 0,491,492
 1157 1241 1157 1241 1185 1241 c 2,493,-1
 1190 1241 l 2,494,495
 1196 1242 1196 1242 1207 1242 c 0,496,497
 1251 1242 1251 1242 1239 1223 c 0,498,499
 1237 1221 1237 1221 1235 1218 c 0,500,501
 1211 1191 1211 1191 1157 1183 c 0,502,503
 1155 1184 1155 1184 1151 1184 c 0,504,505
 1077 1184 1077 1184 816 914 c 1,506,-1
 797 914 l 2,507,508
 681 914 681 914 497 940 c 0,509,510
 464 944 464 944 425 944 c 0,511,512
 284 944 284 944 203 878 c 1,513,514
 194 846 194 846 211 828 c 0,515,516
 220 817 220 817 226 817 c 0,517,518
 231 817 231 817 234 825 c 0,519,520
 262 856 262 856 294 875 c 0,521,522
 311 885 311 885 340 885 c 1,523,-1
 340 885 l 1,524,525
 363 885 363 885 390 878 c 1,526,527
 352 854 352 854 319 854 c 1,528,-1
 319 854 l 1,529,530
 314 854 314 854 304 856 c 0,531,532
 299 857 299 857 291 857 c 0,533,534
 265 857 265 857 265 833 c 1,535,536
 289 824 289 824 318 824 c 1,537,-1
 318 824 l 1,538,539
 394 824 394 824 501 885 c 1,540,-1
 651 840 l 1,541,-1
 515 809 l 1,542,543
 329 742 329 742 276 626 c 1,544,545
 280 596 280 596 304 585 c 0,546,547
 312 581 312 581 319 581 c 0,548,549
 328 581 328 581 328 591 c 0,550,551
 338 633 338 633 360 662 c 0,552,553
 383 694 383 694 443 706 c 1,554,-1
 443 706 l 1,555,556
 414 660 414 660 377 649 c 0,557,558
 338 637 338 637 350 613 c 1,559,560
 444 618 444 618 544 758 c 1,561,562
 583 755 583 755 617 755 c 0,563,564
 767 755 767 755 842 809 c 0,565,566
 925 870 925 870 1105 1018 c 1,567,568
 1109 923 1109 923 1154 758 c 0,569,570
 1199 599 1199 599 1194 457 c 1,571,-1
 885 691 l 1,572,573
 815 753 815 753 762 753 c 1,574,-1
 762 753 l 1,575,576
 615 751 615 751 633 631 c 2,577,-1
 680 279 l 1,578,579
 569 245 569 245 582 85 c 1,580,581
 529 76 529 76 488 57 c 0,582,583
 449 40 449 40 411 40 c 2,584,-1
 402 40 l 1,585,-1
 398 40 l 2,586,587
 358 40 358 40 345 0 c 1,588,-1
 1841 0 l 1,589,590
 1803 74 1803 74 1736 74 c 0,591,592
 1724 74 1724 74 1709 71 c 0,593,594
 1700 69 1700 69 1683 69 c 0,595,596
 1620 69 1620 69 1596 147 c 0,597,598
 1578 203 1578 203 1541 203 c 0,599,600
 1516 203 1516 203 1484 178 c 1,601,602
 1562 315 1562 315 1491 493 c 1,603,604
 1476 554 1476 554 1515 830 c 0,605,606
 1556 1103 1556 1103 1493 1176 c 0,607,608
 1430 1248 1430 1248 1433 1284 c 1,609,610
 1476 1300 1476 1300 1519 1352 c 0,611,612
 1560 1402 1560 1402 1560 1489 c 128,-1,613
 1560 1576 1560 1576 1482 1606 c 0,614,615
 1427 1626 1427 1626 1366 1626 c 1,470,-1
341 5 m 1,616,-1
 339 0 l 1,617,-1
 341 0 l 1,618,-1
 341 5 l 1,616,-1
EndSplineSet
EndChar

StartChar: u13009
Encoding: 77833 77833 12
Width: 1980
GlyphClass: 2
Flags: W
LayerCount: 2
Fore
SplineSet
1141 1752 m 0,0,1
 1143 1752 1143 1752 1144 1751 c 0,2,3
 1127 1727 1127 1727 1157 1721 c 1,4,5
 1190 1731 1190 1731 1170 1751 c 1,6,-1
 1170 1751 l 1,7,8
 1192 1742 1192 1742 1214 1731 c 1,9,10
 1188 1721 1188 1721 1157 1721 c 0,11,12
 1155 1720 1155 1720 1153 1720 c 0,13,14
 1132 1720 1132 1720 1120 1738 c 1,15,16
 1133 1752 1133 1752 1141 1752 c 0,0,1
1157 1770 m 0,17,18
 1154 1770 1154 1770 1151 1769 c 0,19,20
 1118 1766 1118 1766 1099 1727 c 1,21,22
 1126 1700 1126 1700 1158 1700 c 0,23,24
 1161 1700 1161 1700 1165 1700 c 0,25,26
 1201 1703 1201 1703 1236 1727 c 1,27,-1
 1279 1727 l 1,28,-1
 1279 1740 l 1,29,-1
 1236 1740 l 1,30,31
 1188 1770 1188 1770 1157 1770 c 0,17,18
1372 1774 m 0,32,33
 1384 1774 1384 1774 1382 1762 c 0,34,35
 1379 1742 1379 1742 1363 1723 c 0,36,37
 1346 1703 1346 1703 1332 1697 c 0,38,39
 1328 1695 1328 1695 1327 1695 c 0,40,41
 1322 1695 1322 1695 1332 1709 c 0,42,43
 1343 1723 1343 1723 1337 1723 c 0,44,45
 1335 1723 1335 1723 1332 1722 c 0,46,47
 1329 1720 1329 1720 1327 1720 c 0,48,49
 1320 1720 1320 1720 1327 1734 c 0,50,51
 1335 1751 1335 1751 1351 1768 c 1,52,53
 1364 1774 1364 1774 1372 1774 c 0,32,33
1307 1694 m 1,54,55
 1325 1686 1325 1686 1314 1677 c 0,56,57
 1309 1673 1309 1673 1305 1673 c 128,-1,58
 1301 1673 1301 1673 1298 1678 c 0,59,60
 1294 1688 1294 1688 1307 1694 c 1,54,55
1381 1796 m 0,61,62
 1375 1796 1375 1796 1367 1794 c 0,63,64
 1342 1788 1342 1788 1321 1757 c 0,65,66
 1301 1727 1301 1727 1309 1712 c 1,67,68
 1290 1703 1290 1703 1287 1688 c 0,69,70
 1283 1673 1283 1673 1301 1665 c 0,71,72
 1304 1664 1304 1664 1308 1664 c 0,73,74
 1325 1664 1325 1664 1352 1689 c 0,75,76
 1385 1721 1385 1721 1395 1747 c 128,-1,77
 1405 1773 1405 1773 1398 1787 c 0,78,79
 1394 1796 1394 1796 1381 1796 c 0,61,62
1326 1951 m 0,80,81
 1361 1951 1361 1951 1406 1941 c 0,82,83
 1522 1914 1522 1914 1524 1817 c 0,84,85
 1526 1721 1526 1721 1433 1647 c 0,86,87
 1391 1614 1391 1614 1382 1614 c 0,88,89
 1370 1614 1370 1614 1407 1664 c 0,90,91
 1474 1755 1474 1755 1454 1814 c 0,92,93
 1440 1853 1440 1853 1386 1853 c 0,94,95
 1357 1853 1357 1853 1318 1842 c 1,96,97
 1188 1881 1188 1881 1239 1925 c 0,98,99
 1270 1951 1270 1951 1326 1951 c 0,80,81
1179 1842 m 128,-1,101
 1201 1842 1201 1842 1296 1799 c 1,102,103
 1300 1785 1300 1785 1311 1785 c 0,104,105
 1320 1785 1320 1785 1335 1795 c 0,106,107
 1355 1809 1355 1809 1374 1809 c 0,108,109
 1387 1809 1387 1809 1399 1803 c 0,110,111
 1431 1788 1431 1788 1408 1741 c 128,-1,112
 1385 1694 1385 1694 1347 1663 c 128,-1,113
 1309 1632 1309 1632 1315 1596 c 0,114,115
 1320 1560 1320 1560 1357 1543 c 1,116,117
 1383 1434 1383 1434 1468 1371 c 1,118,-1
 1546 1341 l 1,119,120
 1453 1128 1453 1128 1453 953 c 128,-1,121
 1453 778 1453 778 1457 728 c 1,122,123
 1453 702 1453 702 1343 634 c 0,124,125
 1246 573 1246 573 1207 573 c 0,126,127
 1202 573 1202 573 1198 574 c 0,128,129
 1162 583 1162 583 1160 627 c 0,130,131
 1157 672 1157 672 1157 732 c 0,132,133
 1157 791 1157 791 1142 940 c 128,-1,134
 1127 1089 1127 1089 1068 1183 c 0,135,136
 1010 1278 1010 1278 1008 1332 c 1,137,138
 1029 1375 1029 1375 1120 1380 c 0,139,140
 1212 1384 1212 1384 1218 1462 c 0,141,142
 1224 1537 1224 1537 1165 1537 c 0,143,144
 1162 1537 1162 1537 1160 1537 c 0,145,146
 1156 1537 1156 1537 1152 1537 c 0,147,148
 1094 1537 1094 1537 1094 1584 c 1,149,150
 1136 1603 1136 1603 1122 1616 c 0,151,152
 1107 1629 1107 1629 1075 1632 c 1,153,154
 1099 1658 1099 1658 1062 1675 c 1,155,-1
 1118 1768 l 1,156,157
 1133 1780 1133 1780 1156 1780 c 0,158,159
 1192 1780 1192 1780 1251 1751 c 1,160,161
 1281 1757 1281 1757 1232 1781 c 0,162,163
 1191 1802 1191 1802 1149 1802 c 0,164,165
 1141 1802 1141 1802 1133 1801 c 1,166,100
 1157 1842 1157 1842 1179 1842 c 128,-1,101
741 745 m 0,167,168
 747 745 747 745 754 744 c 0,169,170
 790 733 790 733 944 670 c 0,171,172
 1097 607 1097 607 1062 511 c 1,173,174
 1023 464 1023 464 978 433 c 0,175,176
 952 415 952 415 928 415 c 0,177,178
 910 415 910 415 894 424 c 0,179,180
 853 446 853 446 750 540 c 0,181,182
 647 633 647 633 671 702 c 1,183,184
 709 745 709 745 741 745 c 0,167,168
1477 615 m 1,185,186
 1526 453 1526 453 1442 218 c 1,187,188
 1371 142 1371 142 1282 142 c 0,189,190
 1261 142 1261 142 1239 147 c 0,191,192
 1201 154 1201 154 1160 154 c 0,193,194
 1076 154 1076 154 982 124 c 0,195,196
 928 107 928 107 889 107 c 0,197,198
 825 107 825 107 799 153 c 0,199,200
 771 203 771 203 941 314 c 0,201,202
 1112 424 1112 424 1200 484 c 128,-1,203
 1288 544 1288 544 1477 615 c 1,185,186
1355 1998 m 0,204,205
 1319 1998 1319 1998 1282 1990 c 0,206,207
 1179 1968 1179 1968 1094 1833 c 1,208,209
 1075 1784 1075 1784 1003 1686 c 1,210,211
 990 1645 990 1645 1012 1645 c 128,-1,212
 1034 1645 1034 1645 1042 1636 c 1,213,214
 1031 1627 1031 1627 1033 1615 c 0,215,216
 1034 1603 1034 1603 1042 1603 c 0,217,218
 1055 1603 1055 1603 1043 1597 c 0,219,220
 1031 1590 1031 1590 1041 1571 c 0,221,222
 1051 1551 1051 1551 1051 1525 c 128,-1,223
 1051 1499 1051 1499 1081 1496 c 0,224,225
 1094 1494 1094 1494 1110 1494 c 0,226,227
 1131 1494 1131 1494 1157 1497 c 1,228,-1
 1157 1497 l 1,229,230
 1170 1443 1170 1443 1099 1438 c 0,231,232
 1027 1434 1027 1434 974 1412 c 0,233,234
 921 1391 921 1391 869 1291 c 1,235,236
 777 1150 777 1150 688 1011 c 1,237,238
 591 935 591 935 430 687 c 1,239,240
 345 655 345 655 287 587 c 1,241,242
 256 507 256 507 282 485 c 1,243,244
 292 464 292 464 317 464 c 0,245,246
 338 464 338 464 369 479 c 0,247,248
 439 511 439 511 502 655 c 1,249,250
 589 728 589 728 769 932 c 1,251,252
 923 1147 923 1147 953 1197 c 0,253,254
 955 1197 955 1197 956 1197 c 0,255,256
 989 1197 989 1197 1018 1150 c 1,257,258
 1036 1110 1036 1110 1068 993 c 0,259,260
 1101 876 1101 876 1101 739 c 1,261,262
 1108 658 1108 658 1083 658 c 0,263,264
 1077 658 1077 658 1068 663 c 0,265,266
 927 741 927 741 771 789 c 1,267,268
 748 805 748 805 722 805 c 0,269,270
 671 805 671 805 610 741 c 1,271,272
 567 652 567 652 536 581 c 1,273,274
 465 390 465 390 402 282 c 0,275,276
 339 175 339 175 253 137 c 128,-1,277
 167 99 167 99 85 73 c 0,278,279
 2 47 2 47 0 28 c 0,280,281
 -2 10 -2 10 20 3 c 0,282,283
 31 0 31 0 54 0 c 0,284,285
 78 0 78 0 114 3 c 0,286,287
 187 10 187 10 251 29 c 0,288,289
 283 39 283 39 311 39 c 128,-1,290
 339 39 339 39 363 29 c 0,291,292
 378 27 378 27 392 27 c 0,293,294
 505 27 505 27 473 175 c 1,295,296
 710 401 710 401 704 516 c 1,297,-1
 704 516 l 1,298,299
 762 442 762 442 890 368 c 1,300,301
 788 294 788 294 744 228 c 0,302,303
 699 162 699 162 732 92 c 1,304,305
 783 30 783 30 921 30 c 0,306,307
 924 30 924 30 926 30 c 0,308,309
 1068 31 1068 31 1401 51 c 1,310,311
 1568 32 1568 32 1658 32 c 0,312,313
 1683 32 1683 32 1702 34 c 0,314,315
 1791 40 1791 40 1826 40 c 1,316,317
 1859 53 1859 53 1830 81 c 0,318,319
 1789 114 1789 114 1739 114 c 0,320,321
 1730 114 1730 114 1720 113 c 0,322,323
 1711 112 1711 112 1703 112 c 0,324,325
 1653 112 1653 112 1613 153 c 1,326,327
 1613 234 1613 234 1567 234 c 0,328,329
 1547 234 1547 234 1518 218 c 1,330,331
 1555 314 1555 314 1563 437 c 0,332,333
 1570 529 1570 529 1544 630 c 128,-1,334
 1518 731 1518 731 1512 897 c 0,335,336
 1507 1063 1507 1063 1557 1169 c 1,337,338
 1587 1011 1587 1011 1633 783 c 1,339,340
 1674 629 1674 629 1813 418 c 2,341,-1
 1904 283 l 2,342,343
 1928 244 1928 244 1943 244 c 0,344,345
 1980 244 1980 244 1980 381 c 1,346,347
 1932 457 1932 457 1882 472 c 1,348,349
 1802 691 1802 691 1748 770 c 1,350,351
 1726 889 1726 889 1708 993 c 0,352,353
 1689 1097 1689 1097 1689 1171 c 1,354,355
 1678 1291 1678 1291 1665 1325 c 1,356,357
 1613 1412 1613 1412 1483 1434 c 1,358,359
 1422 1482 1422 1482 1409 1558 c 1,360,361
 1503 1614 1503 1614 1549 1686 c 0,362,363
 1596 1757 1596 1757 1585 1845 c 128,-1,364
 1574 1933 1574 1933 1480 1972 c 0,365,366
 1419 1998 1419 1998 1355 1998 c 0,204,205
EndSplineSet
EndChar

StartChar: u1300A
Encoding: 77834 77834 13
Width: 1358
GlyphClass: 2
Flags: W
LayerCount: 2
Fore
SplineSet
539 1747 m 0,0,1
 541 1747 541 1747 542 1743.5 c 128,-1,2
 543 1740 543 1740 542 1737 c 0,3,4
 540 1729 540 1729 546 1723 c 0,5,6
 552 1716 552 1716 549 1716 c 0,7,8
 543 1716 543 1716 535 1719 c 0,9,10
 516 1728 516 1728 528 1740 c 0,11,12
 535 1747 535 1747 539 1747 c 0,0,1
581 1744 m 1,13,-1
 584 1744 l 2,14,15
 595 1741 595 1741 605 1733 c 0,16,17
 615 1726 615 1726 605 1722 c 0,18,19
 601 1721 601 1721 595 1719 c 0,20,21
 582 1716 582 1716 570 1716 c 1,22,-1
 570 1716 l 1,23,24
 564 1716 564 1716 570 1723 c 0,25,26
 578 1731 578 1731 574 1740 c 0,27,28
 573 1744 573 1744 575 1744 c 2,29,-1
 577 1744 l 1,30,-1
 581 1744 l 1,13,-1
556 1761 m 0,31,32
 531 1761 531 1761 518 1747 c 0,33,34
 503 1732 503 1732 502.5 1725.5 c 128,-1,35
 502 1719 502 1719 518 1709 c 0,36,37
 535 1698 535 1698 560 1698 c 0,38,39
 580 1698 580 1698 612 1712 c 0,40,41
 640 1726 640 1726 661 1726 c 0,42,43
 679 1726 679 1726 679 1730 c 0,44,45
 679 1737 679 1737 658 1737 c 0,46,47
 630 1737 630 1737 609 1747 c 0,48,49
 578 1761 578 1761 556 1761 c 0,31,32
773 1768 m 0,50,51
 787 1768 787 1768 784 1754 c 0,52,53
 775 1725 775 1725 749 1705 c 0,54,55
 736 1695 736 1695 728 1695 c 0,56,57
 718 1695 718 1695 731 1709 c 0,58,59
 740 1716 740 1716 731 1719 c 0,60,61
 717 1724 717 1724 742 1751 c 0,62,63
 757 1768 757 1768 773 1768 c 0,50,51
707 1688 m 0,64,65
 717 1688 717 1688 717 1681 c 0,66,67
 717 1677 717 1677 713.5 1673.5 c 128,-1,68
 710 1670 710 1670 707 1670 c 1,69,-1
 707 1670 l 1,70,71
 700 1670 700 1670 700 1681 c 0,72,73
 700 1688 700 1688 707 1688 c 0,64,65
780 1793 m 0,74,75
 759 1793 759 1793 734.5 1768 c 128,-1,76
 710 1743 710 1743 710 1719 c 0,77,78
 710 1703 710 1703 703 1698 c 0,79,80
 679 1682 679 1682 689 1670 c 0,81,82
 697 1660 697 1660 703 1660 c 0,83,84
 719 1660 719 1660 745 1681 c 0,85,86
 778 1706 778 1706 793 1738.5 c 128,-1,87
 808 1771 808 1771 794 1786 c 0,88,89
 785 1793 785 1793 780 1793 c 0,74,75
752 1947 m 1,90,91
 820 1947 820 1947 877 1905.5 c 128,-1,92
 934 1864 934 1864 941 1831 c 0,93,94
 965 1729 965 1729 843 1635 c 0,95,96
 797 1600 797 1600 787 1600 c 0,97,98
 784 1600 784 1600 790 1609 c 0,99,100
 790 1610 790 1610 791 1611 c 0,101,102
 801 1631 801 1631 826 1667 c 0,103,104
 871 1734 871 1734 871 1775 c 0,105,106
 871 1782 871 1782 861 1810 c 0,107,108
 853 1828 853 1828 836.5 1835 c 128,-1,109
 820 1842 820 1842 787 1842 c 2,110,-1
 769 1842 l 1,111,-1
 759 1842 l 1,112,-1
 758 1842 l 1,113,-1
 756 1842 l 2,114,115
 735 1842 735 1842 698 1853.5 c 128,-1,116
 661 1865 661 1865 636 1877.5 c 128,-1,117
 611 1890 611 1890 616 1894 c 0,118,119
 682 1947 682 1947 752 1947 c 1,120,-1
 752 1947 l 1,90,91
441 1204 m 1,121,-1
 520 1072 l 1,122,123
 483 1055 483 1055 346 997 c 1,124,125
 403 1083 403 1083 441 1204 c 1,121,-1
582 1835 m 1,126,-1
 584 1835 l 2,127,128
 602 1832 602 1832 649 1813 c 128,-1,129
 696 1794 696 1794 703 1786 c 0,130,131
 707 1782 707 1782 713 1782 c 2,132,-1
 714 1782 l 2,133,134
 722 1782 722 1782 745 1796 c 0,135,136
 757 1803 757 1803 777 1803 c 0,137,138
 794 1803 794 1803 806 1793.5 c 128,-1,139
 818 1784 818 1784 819 1768 c 0,140,141
 819 1754 819 1754 798.5 1722.5 c 128,-1,142
 778 1691 778 1691 752 1663 c 0,143,144
 720 1628 720 1628 717 1611 c 0,145,146
 714 1593 714 1593 722.5 1573.5 c 128,-1,147
 731 1554 731 1554 745 1548 c 128,-1,148
 759 1542 759 1542 759 1520 c 0,149,150
 759 1514 759 1514 757 1503.5 c 128,-1,151
 755 1493 755 1493 756 1488 c 128,-1,152
 757 1483 757 1483 762 1474 c 128,-1,153
 767 1465 767 1465 781 1456 c 128,-1,154
 795 1447 795 1447 819 1436 c 0,155,156
 841 1426 841 1426 852 1420 c 128,-1,157
 863 1414 863 1414 875.5 1402 c 128,-1,158
 888 1390 888 1390 890 1377 c 128,-1,159
 892 1364 892 1364 888 1342.5 c 128,-1,160
 884 1321 884 1321 871 1292 c 0,161,162
 853 1253 853 1253 845.5 1189.5 c 128,-1,163
 838 1126 838 1126 838 1072 c 128,-1,164
 838 1018 838 1018 840.5 925.5 c 128,-1,165
 843 833 843 833 843 785 c 1,166,-1
 630 694 l 1,167,168
 600 826 600 826 617 1020 c 1,169,-1
 637 1028 l 2,170,171
 657 1036 657 1036 662.5 1039 c 128,-1,172
 668 1042 668 1042 685.5 1050.5 c 128,-1,173
 703 1059 703 1059 712.5 1065 c 128,-1,174
 722 1071 722 1071 734 1080.5 c 128,-1,175
 746 1090 746 1090 755 1100 c 0,176,177
 773 1126 773 1126 751.5 1168.5 c 128,-1,178
 730 1211 730 1211 704 1226 c 1,179,180
 723 1247 723 1247 698 1274 c 1,181,182
 653 1256 653 1256 621.5 1221.5 c 128,-1,183
 590 1187 590 1187 580 1158 c 0,184,185
 577 1149 577 1149 580 1129.5 c 128,-1,186
 583 1110 583 1110 581 1107 c 1,187,188
 551 1159 551 1159 536.5 1187 c 128,-1,189
 522 1215 522 1215 508 1263 c 128,-1,190
 494 1311 494 1311 497 1352 c 0,191,192
 499 1374 499 1374 557 1393.5 c 128,-1,193
 615 1413 615 1413 623 1422 c 0,194,195
 654 1459 654 1459 630 1509 c 0,196,197
 620 1529 620 1529 609.5 1534 c 128,-1,198
 599 1539 599 1539 556 1541 c 0,199,200
 517 1542 517 1542 507 1551 c 0,201,202
 496 1562 496 1562 497 1573 c 128,-1,203
 498 1584 498 1584 511 1590 c 0,204,205
 526 1597 526 1597 521.5 1606 c 128,-1,206
 517 1615 517 1615 497 1621 c 0,207,208
 490 1623 490 1623 486 1625 c 128,-1,209
 482 1627 482 1627 479.5 1628.5 c 128,-1,210
 477 1630 477 1630 477.5 1631.5 c 128,-1,211
 478 1633 478 1633 479 1635 c 0,212,213
 484 1642 484 1642 481.5 1652 c 128,-1,214
 479 1662 479 1662 469 1667 c 0,215,216
 462 1671 462 1671 464.5 1678 c 128,-1,217
 467 1685 467 1685 486 1716 c 0,218,219
 509 1753 509 1753 521 1765 c 0,220,221
 532 1772 532 1772 553 1772 c 0,222,223
 582 1772 582 1772 612 1761 c 0,224,225
 653 1747 653 1747 658 1747 c 0,226,227
 662 1747 662 1747 661 1751 c 0,228,229
 658 1760 658 1760 622.5 1776.5 c 128,-1,230
 587 1793 587 1793 563 1796 c 2,231,-1
 532 1800 l 1,232,-1
 549 1821 l 2,233,234
 563 1835 563 1835 577 1835 c 2,235,-1
 582 1835 l 1,126,-1
178 736 m 0,236,237
 216 736 216 736 262.5 722 c 128,-1,238
 309 708 309 708 337 694.5 c 128,-1,239
 365 681 365 681 422.5 650 c 128,-1,240
 480 619 480 619 497 610 c 1,241,-1
 259 390 l 1,242,243
 256 401 256 401 234 460 c 0,244,245
 152 673 152 673 161 719 c 0,246,247
 164 736 164 736 178 736 c 0,236,237
836 677 m 0,248,249
 917 677 917 677 917 582 c 0,250,251
 917 534 917 534 901 482 c 128,-1,252
 885 430 885 430 854 393 c 0,253,254
 840 377 840 377 798 369 c 128,-1,255
 756 361 756 361 701 355 c 128,-1,256
 646 349 646 349 586.5 338.5 c 128,-1,257
 527 328 527 328 466 299.5 c 128,-1,258
 405 271 405 271 364 225 c 0,259,260
 359 225 359 225 341.5 240.5 c 128,-1,261
 324 256 324 256 309 272 c 2,262,-1
 294 288 l 1,263,264
 655 677 655 677 836 677 c 0,248,249
213 229 m 1,265,-1
 297 159 l 1,266,267
 283 135 283 135 235.5 106.5 c 128,-1,268
 188 78 188 78 155 78 c 0,269,270
 139 78 139 78 131 86 c 0,271,272
 106 111 106 111 138.5 154.5 c 128,-1,273
 171 198 171 198 213 229 c 1,265,-1
1184 2000 m 0,274,275
 1174 2000 1174 2000 1167 1995 c 1,276,277
 1157 1937 1157 1937 1169.5 1881 c 128,-1,278
 1182 1825 1182 1825 1224 1790 c 1,279,280
 1228 1737 1228 1737 1222.5 1653 c 128,-1,281
 1217 1569 1217 1569 1220 1517 c 0,282,283
 1221 1510 1221 1510 1178.5 1507.5 c 128,-1,284
 1136 1505 1136 1505 1073 1500.5 c 128,-1,285
 1010 1496 1010 1496 975 1485 c 1,286,287
 927 1495 927 1495 850 1499 c 0,288,289
 843 1499 843 1499 836 1519 c 128,-1,290
 829 1539 829 1539 829 1551 c 0,291,292
 829 1558 829 1558 864 1586 c 0,293,294
 987 1686 987 1686 987 1814 c 0,295,296
 986 1878 986 1878 953.5 1916.5 c 128,-1,297
 921 1955 921 1955 847 1978 c 0,298,299
 811 1989 811 1989 749 1989 c 0,300,301
 703 1989 703 1989 675 1982 c 0,302,303
 625 1969 625 1969 568.5 1917 c 128,-1,304
 512 1865 512 1865 479 1800 c 0,305,306
 470 1779 470 1779 434 1726 c 0,307,308
 401 1678 401 1678 402 1660 c 0,309,310
 405 1641 405 1641 420 1639 c 0,311,312
 431 1637 431 1637 433 1634.5 c 128,-1,313
 435 1632 435 1632 434 1621 c 0,314,315
 433 1604 433 1604 441 1600 c 0,316,317
 447 1597 447 1597 448 1596 c 0,318,319
 448 1595 448 1595 444 1593 c 0,320,321
 435 1588 435 1588 441 1565 c 0,322,323
 451 1526 451 1526 451 1523 c 0,324,325
 455 1504 455 1504 466 1498 c 128,-1,326
 477 1492 477 1492 511 1492 c 2,327,-1
 516 1492 l 1,328,-1
 518 1492 l 2,329,330
 559 1492 559 1492 565 1475 c 0,331,332
 569 1461 569 1461 544 1454 c 0,333,334
 543 1453 543 1453 542 1453 c 0,335,336
 540 1452 540 1452 510 1445 c 128,-1,337
 480 1438 480 1438 470.5 1435 c 128,-1,338
 461 1432 461 1432 435 1421.5 c 128,-1,339
 409 1411 409 1411 395.5 1400.5 c 128,-1,340
 382 1390 382 1390 364.5 1372 c 128,-1,341
 347 1354 347 1354 336 1331 c 0,342,343
 283 1225 283 1225 273 1198 c 0,344,345
 272 1196 272 1196 265 1177 c 128,-1,346
 258 1158 258 1158 251.5 1140 c 128,-1,347
 245 1122 245 1122 236 1093.5 c 128,-1,348
 227 1065 227 1065 221 1039.5 c 128,-1,349
 215 1014 215 1014 210.5 986 c 128,-1,350
 206 958 206 958 207 936 c 0,351,352
 209 900 209 900 224 881.5 c 128,-1,353
 239 863 239 863 273 859 c 1,354,-1
 283 859 l 2,355,356
 346 859 346 859 412 893 c 0,357,358
 432 903 432 903 465 922.5 c 128,-1,359
 498 942 498 942 521 957 c 2,360,-1
 544 972 l 1,361,362
 545 778 545 778 546 708 c 1,363,364
 498 708 498 708 444 728.5 c 128,-1,365
 390 749 390 749 348.5 773.5 c 128,-1,366
 307 798 307 798 247 818.5 c 128,-1,367
 187 839 187 839 128 839 c 2,368,-1
 127 839 l 2,369,370
 94 839 94 839 77 810.5 c 128,-1,371
 60 782 60 782 60.5 746 c 128,-1,372
 61 710 61 710 63 677 c 0,373,374
 68 638 68 638 97 546 c 128,-1,375
 126 454 126 454 152 382 c 2,376,-1
 178 309 l 1,377,378
 175 305 175 305 160.5 290.5 c 128,-1,379
 146 276 146 276 141.5 271 c 128,-1,380
 137 266 137 266 124.5 252 c 128,-1,381
 112 238 112 238 107.5 231 c 128,-1,382
 103 224 103 224 94.5 210.5 c 128,-1,383
 86 197 86 197 82.5 187 c 128,-1,384
 79 177 79 177 76 164 c 128,-1,385
 73 151 73 151 73 138 c 0,386,387
 73 117 73 117 38 82 c 0,388,389
 0 42 0 42 0 33 c 0,390,391
 4 0 4 0 44 0 c 0,392,393
 48 0 48 0 58 0.5 c 128,-1,394
 68 1 68 1 73 1 c 0,395,396
 199 11 199 11 276 33 c 0,397,398
 295 38 295 38 325 53 c 128,-1,399
 355 68 355 68 376.5 80 c 128,-1,400
 398 92 398 92 399 92 c 0,401,402
 409 92 409 92 499 130.5 c 128,-1,403
 589 169 589 169 678.5 209 c 128,-1,404
 768 249 768 249 770 250 c 0,405,406
 791 257 791 257 808 257 c 0,407,408
 830 257 830 257 854 246 c 0,409,410
 918 208 918 208 864 117 c 0,411,412
 844 84 844 84 837.5 58.5 c 128,-1,413
 831 33 831 33 838.5 20.5 c 128,-1,414
 846 8 846 8 864 8 c 0,415,416
 866 8 866 8 889 15 c 0,417,418
 898 18 898 18 914.5 18.5 c 128,-1,419
 931 19 931 19 941.5 21.5 c 128,-1,420
 952 24 952 24 963.5 32.5 c 128,-1,421
 975 41 975 41 979.5 64.5 c 128,-1,422
 984 88 984 88 983 127 c 0,423,424
 981 176 981 176 1001 237.5 c 128,-1,425
 1021 299 1021 299 1039 340.5 c 128,-1,426
 1057 382 1057 382 1053 390 c 0,427,428
 1031 430 1031 430 994 432 c 2,429,-1
 993 432 l 2,430,431
 991 432 991 432 986.5 431.5 c 128,-1,432
 982 431 982 431 980 431 c 0,433,434
 972 431 972 431 969 435 c 0,435,436
 966 441 966 441 977.5 471.5 c 128,-1,437
 989 502 989 502 997 537.5 c 128,-1,438
 1005 573 1005 573 990 621 c 0,439,440
 946 739 946 739 934.5 794 c 128,-1,441
 923 849 923 849 920 911 c 0,442,443
 912 1084 912 1084 919 1152 c 128,-1,444
 926 1220 926 1220 962 1292 c 1,445,446
 994 1313 994 1313 1045 1330.5 c 128,-1,447
 1096 1348 1096 1348 1123 1354 c 128,-1,448
 1150 1360 1150 1360 1226.5 1373.5 c 128,-1,449
 1303 1387 1303 1387 1305 1387 c 0,450,451
 1342 1395 1342 1395 1350 1427.5 c 128,-1,452
 1358 1460 1358 1460 1354 1555 c 0,453,454
 1352 1632 1352 1632 1324 1802 c 1,455,456
 1356 1828 1356 1828 1357 1853 c 0,457,458
 1359 1879 1359 1879 1356 1905 c 1,459,460
 1360 1960 1360 1960 1349 1975 c 0,461,462
 1339 1987 1339 1987 1297 1987 c 2,463,-1
 1295 1987 l 2,464,465
 1275 1987 1275 1987 1247.5 1981.5 c 128,-1,466
 1220 1976 1220 1976 1214 1970 c 1,467,468
 1214 1983 1214 1983 1205 1991.5 c 128,-1,469
 1196 2000 1196 2000 1184 2000 c 0,274,275
EndSplineSet
EndChar

StartChar: u1300B
Encoding: 77835 77835 14
Width: 1253
GlyphClass: 2
Flags: W
LayerCount: 2
Fore
SplineSet
726 1874 m 1,0,-1
 726 1874 l 1,1,-1
 726 1874 l 1,2,-1
 726 1874 l 1,0,-1
1043 1951 m 1,3,-1
 992 1777 l 1,4,-1
 801 1777 l 1,5,-1
 759 1951 l 1,6,-1
 1043 1951 l 1,3,-1
700 1541 m 0,7,8
 701 1541 701 1541 703 1540 c 1,9,10
 687 1521 687 1521 714 1513 c 1,11,12
 743 1523 743 1523 724 1540 c 1,13,-1
 724 1540 l 1,14,15
 745 1534 745 1534 765 1523 c 1,16,17
 740 1513 740 1513 714 1513 c 0,18,19
 712 1513 712 1513 710 1513 c 0,20,21
 690 1513 690 1513 682 1529 c 1,22,23
 692 1541 692 1541 700 1541 c 0,7,8
714 1557 m 0,24,25
 711 1557 711 1557 709 1556 c 0,26,27
 680 1554 680 1554 662 1521 c 1,28,29
 687 1494 687 1494 715 1494 c 0,30,31
 717 1494 717 1494 720 1495 c 0,32,33
 751 1498 751 1498 784 1519 c 1,34,-1
 822 1519 l 1,35,-1
 822 1530 l 1,36,-1
 784 1530 l 1,37,38
 742 1557 742 1557 714 1557 c 0,24,25
904 1560 m 0,39,40
 914 1560 914 1560 913 1550 c 0,41,42
 911 1532 911 1532 897 1515 c 0,43,44
 882 1498 882 1498 870 1492 c 0,45,46
 867 1490 867 1490 865 1490 c 0,47,48
 860 1490 860 1490 870 1503 c 0,49,50
 879 1516 879 1516 874 1516 c 0,51,52
 873 1516 873 1516 870 1515 c 0,53,54
 866 1513 866 1513 864 1513 c 0,55,56
 859 1513 859 1513 865 1525 c 0,57,58
 873 1540 873 1540 886 1556 c 1,59,60
 898 1560 898 1560 904 1560 c 0,39,40
848 1490 m 1,61,62
 861 1482 861 1482 852 1474 c 0,63,64
 848 1471 848 1471 845 1471 c 128,-1,65
 842 1471 842 1471 840 1475 c 0,66,67
 836 1484 836 1484 848 1490 c 1,61,62
912 1581 m 0,68,69
 906 1581 906 1581 900 1579 c 0,70,71
 878 1573 878 1573 860 1546 c 128,-1,72
 842 1519 842 1519 850 1505 c 1,73,74
 832 1498 832 1498 829 1484 c 0,75,76
 826 1471 826 1471 842 1464 c 0,77,78
 845 1463 845 1463 848 1463 c 0,79,80
 863 1463 863 1463 886 1485 c 0,81,82
 915 1513 915 1513 925 1536 c 0,83,84
 934 1559 934 1559 928 1572 c 0,85,86
 923 1581 923 1581 912 1581 c 0,68,69
864 1718 m 0,87,88
 895 1718 895 1718 934 1709 c 0,89,90
 1037 1685 1037 1685 1040 1599 c 128,-1,91
 1043 1513 1043 1513 959 1447 c 0,92,93
 921 1418 921 1418 912 1418 c 0,94,95
 901 1418 901 1418 934 1463 c 0,96,97
 994 1544 994 1544 977 1596 c 0,98,99
 965 1630 965 1630 917 1630 c 0,100,101
 892 1630 892 1630 857 1621 c 1,102,103
 741 1656 741 1656 787 1694 c 0,104,105
 815 1718 815 1718 864 1718 c 0,87,88
735 1839 m 1,106,-1
 763 1733 l 1,107,-1
 774 1733 l 1,108,109
 712 1699 712 1699 658 1613 c 1,110,111
 641 1569 641 1569 575 1482 c 1,112,113
 566 1446 566 1446 584 1446 c 128,-1,114
 602 1446 602 1446 612 1438 c 1,115,116
 602 1430 602 1430 602 1419 c 0,117,118
 602 1409 602 1409 612 1409 c 0,119,120
 624 1409 624 1409 616 1400 c 128,-1,121
 608 1391 608 1391 613 1377 c 128,-1,122
 618 1363 618 1363 619 1339 c 0,123,124
 620 1316 620 1316 647 1313 c 0,125,126
 658 1312 658 1312 673 1312 c 0,127,128
 691 1312 691 1312 714 1314 c 1,129,-1
 714 1314 l 1,130,131
 732 1272 732 1272 681 1263 c 0,132,133
 659 1259 659 1259 629 1259 c 0,134,135
 589 1259 589 1259 535 1266 c 1,136,137
 406 1332 406 1332 294 1453 c 1,138,139
 384 1521 384 1521 447 1583 c 0,140,141
 510 1644 510 1644 618 1669 c 0,142,143
 619 1669 619 1669 620 1669 c 0,144,145
 675 1669 675 1669 740 1793 c 1,146,147
 738 1816 738 1816 735 1839 c 1,106,-1
733 1621 m 0,148,149
 751 1621 751 1621 838 1583 c 1,150,151
 841 1570 841 1570 850 1570 c 128,-1,152
 859 1570 859 1570 872 1580 c 0,153,154
 889 1592 889 1592 907 1592 c 0,155,156
 918 1592 918 1592 929 1587 c 0,157,158
 958 1575 958 1575 936 1532 c 0,159,160
 915 1490 915 1490 882 1462 c 0,161,162
 850 1434 850 1434 854 1402 c 0,163,164
 859 1370 859 1370 892 1355 c 1,165,166
 890 1295 890 1295 910 1254 c 0,167,168
 931 1214 931 1214 990 1192 c 0,169,170
 1050 1170 1050 1170 1066 1116 c 1,171,-1
 1008 1029 l 1,172,173
 934 760 934 760 933 508 c 1,174,-1
 732 477 l 1,175,-1
 732 594 l 1,176,177
 720 909 720 909 684 992 c 0,178,179
 647 1075 647 1075 591 1129 c 1,180,181
 591 1187 591 1187 674 1205 c 0,182,183
 757 1224 757 1224 766 1293 c 0,184,185
 773 1356 773 1356 727 1356 c 0,186,187
 722 1356 722 1356 716 1355 c 0,188,189
 707 1354 707 1354 699 1354 c 0,190,191
 657 1354 657 1354 651 1388 c 1,192,193
 695 1409 695 1409 683 1420 c 0,194,195
 670 1432 670 1432 641 1434 c 1,196,197
 662 1457 662 1457 629 1473 c 1,198,-1
 680 1556 l 1,199,200
 692 1566 692 1566 713 1566 c 0,201,202
 746 1566 746 1566 797 1540 c 1,203,204
 824 1546 824 1546 781 1567 c 0,205,206
 744 1585 744 1585 705 1585 c 0,207,208
 698 1585 698 1585 691 1584 c 1,209,210
 714 1621 714 1621 733 1621 c 0,148,149
295 703 m 0,211,212
 319 703 319 703 365 666 c 1,213,214
 477 591 477 591 666 459 c 1,215,-1
 334 338 l 1,216,-1
 276 612 l 2,217,218
 257 703 257 703 295 703 c 0,211,212
934 440 m 1,219,220
 958 226 958 226 892 172 c 1,221,222
 619 153 619 153 459 153 c 0,223,224
 257 153 257 153 240 183 c 1,225,226
 224 253 224 253 487 329 c 0,227,228
 749 405 749 405 934 440 c 1,219,220
693 1997 m 1,229,-1
 726 1874 l 1,230,-1
 726 1874 l 1,231,232
 721 1878 721 1878 713 1878 c 0,233,234
 690 1878 690 1878 641 1847 c 1,235,-1
 568 1774 l 1,236,-1
 290 1579 l 2,237,238
 178 1505 178 1505 162 1438 c 1,239,240
 330 1229 330 1229 423 1190 c 0,241,242
 516 1150 516 1150 575 1046 c 1,243,244
 678 975 678 975 670 540 c 1,245,246
 398 728 398 728 307 780 c 1,247,248
 193 780 193 780 193 697 c 1,249,-1
 265 347 l 1,250,251
 251 307 251 307 236 282 c 1,252,253
 147 201 147 201 193 131 c 1,254,255
 23 110 23 110 6 66 c 0,256,257
 -11 23 -11 23 18 23 c 0,258,259
 19 23 19 23 21 23 c 0,260,261
 52 25 52 25 182 44 c 1,262,263
 456 60 456 60 651 60 c 0,264,265
 817 60 817 60 958 44 c 1,266,267
 1073 0 1073 0 1131 0 c 0,268,269
 1191 0 1191 0 1247 12 c 1,270,271
 1272 46 1272 46 1182 66 c 0,272,273
 1093 85 1093 85 1068 148 c 0,274,275
 1050 191 1050 191 1020 191 c 0,276,277
 1007 191 1007 191 992 183 c 1,278,279
 1025 313 1025 313 998 467 c 1,280,281
 981 650 981 650 1056 955 c 0,282,283
 1062 979 1062 979 1071 979 c 0,284,285
 1082 979 1082 979 1098 929 c 0,286,287
 1125 845 1125 845 1139 591 c 1,288,289
 1156 405 1156 405 1125 284 c 1,290,291
 1097 235 1097 235 1091 199 c 0,292,293
 1085 162 1085 162 1125 116 c 1,294,295
 1197 131 1197 131 1214 190 c 0,296,297
 1232 249 1232 249 1223 274 c 128,-1,298
 1214 299 1214 299 1210 334 c 1,299,300
 1222 427 1222 427 1243 510 c 0,301,302
 1264 594 1264 594 1243 751 c 0,303,304
 1210 1013 1210 1013 1147 1158 c 1,305,306
 1104 1212 1104 1212 983 1260 c 0,307,308
 927 1283 927 1283 940 1370 c 1,309,310
 1021 1419 1021 1419 1062 1482 c 0,311,312
 1102 1546 1102 1546 1094 1624 c 0,313,314
 1085 1698 1085 1698 1010 1733 c 1,315,-1
 1025 1733 l 1,316,-1
 1106 1997 l 1,317,-1
 693 1997 l 1,229,-1
EndSplineSet
EndChar

StartChar: u1300C
Encoding: 77836 77836 15
Width: 1881
GlyphClass: 2
Flags: W
LayerCount: 2
Fore
SplineSet
1253 1750 m 0,0,1
 1255 1750 1255 1750 1256 1749 c 0,2,3
 1239 1727 1239 1727 1269 1718 c 1,4,5
 1302 1729 1302 1729 1280 1749 c 1,6,-1
 1280 1749 l 1,7,8
 1305 1742 1305 1742 1326 1729 c 1,9,10
 1298 1718 1298 1718 1269 1718 c 0,11,12
 1267 1718 1267 1718 1264 1718 c 0,13,14
 1242 1718 1242 1718 1232 1735 c 1,15,16
 1244 1750 1244 1750 1253 1750 c 0,0,1
1269 1768 m 0,17,18
 1266 1768 1266 1768 1263 1767 c 0,19,20
 1230 1764 1230 1764 1210 1727 c 1,21,22
 1238 1697 1238 1697 1270 1697 c 0,23,24
 1273 1697 1273 1697 1276 1697 c 0,25,26
 1311 1700 1311 1700 1348 1725 c 1,27,-1
 1392 1725 l 1,28,-1
 1392 1738 l 1,29,-1
 1348 1738 l 1,30,31
 1301 1768 1301 1768 1269 1768 c 0,17,18
1485 1771 m 0,32,33
 1496 1771 1496 1771 1495 1760 c 0,34,35
 1493 1740 1493 1740 1477 1720 c 0,36,37
 1460 1700 1460 1700 1446 1694 c 0,38,39
 1442 1692 1442 1692 1441 1692 c 0,40,41
 1435 1692 1435 1692 1446 1707 c 128,-1,42
 1457 1722 1457 1722 1451 1722 c 0,43,44
 1449 1722 1449 1722 1446 1720 c 0,45,46
 1442 1718 1442 1718 1440 1718 c 0,47,48
 1434 1718 1434 1718 1440 1731 c 0,49,50
 1449 1749 1449 1749 1464 1766 c 1,51,52
 1478 1771 1478 1771 1485 1771 c 0,32,33
1421 1692 m 1,53,54
 1436 1683 1436 1683 1426 1674 c 0,55,56
 1422 1670 1422 1670 1418 1670 c 128,-1,57
 1414 1670 1414 1670 1412 1675 c 0,58,59
 1408 1685 1408 1685 1421 1692 c 1,53,54
1493 1795 m 0,60,61
 1487 1795 1487 1795 1480 1792 c 0,62,63
 1456 1786 1456 1786 1435 1755 c 0,64,65
 1414 1725 1414 1725 1423 1709 c 1,66,67
 1403 1700 1403 1700 1400 1685 c 128,-1,68
 1397 1670 1397 1670 1414 1662 c 0,69,70
 1418 1661 1418 1661 1421 1661 c 0,71,72
 1438 1661 1438 1661 1464 1686 c 0,73,74
 1497 1718 1497 1718 1508 1744 c 0,75,76
 1519 1771 1519 1771 1512 1785 c 0,77,78
 1506 1795 1506 1795 1493 1795 c 0,60,61
1440 1951 m 0,79,80
 1475 1951 1475 1951 1519 1940 c 0,81,82
 1635 1913 1635 1913 1639 1815 c 0,83,84
 1642 1718 1642 1718 1547 1643 c 0,85,86
 1504 1610 1504 1610 1494 1610 c 0,87,88
 1482 1610 1482 1610 1519 1661 c 0,89,90
 1587 1753 1587 1753 1567 1812 c 0,91,92
 1554 1851 1554 1851 1500 1851 c 0,93,94
 1471 1851 1471 1851 1432 1841 c 1,95,96
 1300 1880 1300 1880 1352 1924 c 0,97,98
 1383 1951 1383 1951 1440 1951 c 0,79,80
161 1821 m 1,99,100
 169 1729 169 1729 134 1416 c 1,101,102
 99 1729 99 1729 108 1821 c 1,103,-1
 161 1821 l 1,99,100
1290 1841 m 128,-1,105
 1311 1841 1311 1841 1410 1797 c 1,106,107
 1413 1783 1413 1783 1424 1783 c 0,108,109
 1433 1783 1433 1783 1448 1794 c 0,110,111
 1468 1808 1468 1808 1488 1808 c 0,112,113
 1500 1808 1500 1808 1513 1802 c 0,114,115
 1546 1788 1546 1788 1521 1740 c 0,116,117
 1497 1692 1497 1692 1460 1660 c 128,-1,118
 1423 1628 1423 1628 1428 1592 c 0,119,120
 1434 1556 1434 1556 1471 1538 c 1,121,122
 1469 1470 1469 1470 1492 1424 c 128,-1,123
 1515 1378 1515 1378 1583 1353 c 128,-1,124
 1651 1328 1651 1328 1668 1267 c 1,125,-1
 1603 1168 l 1,126,127
 1519 863 1519 863 1517 576 c 1,128,-1
 1289 541 l 1,129,-1
 1289 675 l 1,130,131
 1276 1032 1276 1032 1234 1126 c 0,132,133
 1193 1221 1193 1221 1129 1282 c 1,134,135
 1129 1348 1129 1348 1223 1368 c 0,136,137
 1318 1389 1318 1389 1328 1468 c 0,138,139
 1336 1539 1336 1539 1284 1539 c 0,140,141
 1278 1539 1278 1539 1272 1538 c 0,142,143
 1261 1537 1261 1537 1252 1537 c 0,144,145
 1205 1537 1205 1537 1197 1576 c 1,146,147
 1248 1600 1248 1600 1233 1613 c 0,148,149
 1219 1626 1219 1626 1186 1628 c 1,150,151
 1210 1654 1210 1654 1173 1672 c 1,152,-1
 1230 1766 l 1,153,154
 1245 1778 1245 1778 1268 1778 c 0,155,156
 1305 1778 1305 1778 1364 1749 c 1,157,158
 1394 1755 1394 1755 1345 1779 c 0,159,160
 1303 1800 1303 1800 1259 1800 c 0,161,162
 1251 1800 1251 1800 1243 1799 c 1,163,104
 1269 1841 1269 1841 1290 1841 c 128,-1,105
793 798 m 0,164,165
 820 798 820 798 873 756 c 1,166,167
 1000 671 1000 671 1215 522 c 1,168,-1
 838 383 l 1,169,-1
 772 695 l 2,170,171
 751 798 751 798 793 798 c 0,164,165
134 559 m 128,-1,173
 151 559 151 559 167 522 c 1,174,175
 180 473 180 473 178 408 c 0,176,177
 180 329 180 329 156 256 c 0,178,179
 148 234 148 234 132 234 c 0,180,181
 117 234 117 234 110 256 c 0,182,183
 82 327 82 327 82 408 c 0,184,185
 82 469 82 469 99 522 c 1,186,172
 117 559 117 559 134 559 c 128,-1,173
1519 500 m 1,187,188
 1546 256 1546 256 1471 195 c 1,189,190
 1161 174 1161 174 980 174 c 0,191,192
 750 174 750 174 730 208 c 1,193,194
 713 287 713 287 1011 374 c 0,195,196
 1309 460 1309 460 1519 500 c 1,187,188
1469 1998 m 0,197,198
 1433 1998 1433 1998 1395 1990 c 0,199,200
 1291 1968 1291 1968 1206 1832 c 1,201,202
 1186 1782 1186 1782 1112 1683 c 1,203,204
 1101 1641 1101 1641 1122 1641 c 0,205,206
 1142 1641 1142 1641 1153 1633 c 1,207,208
 1142 1624 1142 1624 1142 1612 c 128,-1,209
 1142 1600 1142 1600 1153 1600 c 0,210,211
 1166 1600 1166 1600 1158 1590 c 0,212,213
 1149 1580 1149 1580 1154 1563 c 0,214,215
 1160 1547 1160 1547 1161 1521 c 0,216,217
 1162 1494 1162 1494 1193 1491 c 0,218,219
 1206 1490 1206 1490 1222 1490 c 0,220,221
 1243 1490 1243 1490 1269 1492 c 1,222,-1
 1269 1492 l 1,223,224
 1289 1444 1289 1444 1231 1434 c 128,-1,225
 1173 1424 1173 1424 1039 1343 c 1,226,227
 787 1139 787 1139 698 1080 c 0,228,229
 697 1080 697 1080 695 1080 c 0,230,231
 679 1080 679 1080 598 1113 c 0,232,233
 507 1150 507 1150 415 1190 c 0,234,235
 323 1229 323 1229 259 1319 c 1,236,237
 226 1391 226 1391 200 1464 c 1,238,239
 231 1729 231 1729 226 1917 c 1,240,-1
 42 1917 l 1,241,242
 36 1729 36 1729 69 1464 c 1,243,-1
 71 1394 l 1,244,245
 49 1378 49 1378 30 1340 c 0,246,247
 12 1302 12 1302 77 1210 c 1,248,-1
 86 863 l 1,249,250
 95 734 95 734 71 673 c 1,251,252
 -19 506 -19 506 5 381 c 128,-1,253
 29 256 29 256 82 131 c 1,254,255
 108 88 108 88 134 88 c 128,-1,256
 160 88 160 88 187 134 c 1,257,258
 237 256 237 256 261 381 c 0,259,260
 286 506 286 506 196 673 c 1,261,262
 172 734 172 734 180 863 c 1,263,-1
 189 1210 l 1,264,-1
 492 1028 l 1,265,266
 595 947 595 947 666 947 c 0,267,268
 696 947 696 947 719 960 c 0,269,270
 886 1039 886 1039 977 1103 c 0,271,272
 1068 1168 1068 1168 1112 1170 c 1,273,274
 1228 1107 1228 1107 1219 614 c 1,275,276
 910 826 910 826 807 885 c 1,277,278
 678 885 678 885 678 791 c 1,279,-1
 759 394 l 1,280,281
 744 348 744 348 726 320 c 1,282,283
 625 228 625 228 678 149 c 1,284,285
 485 125 485 125 465 75 c 0,286,287
 446 26 446 26 479 26 c 0,288,289
 480 26 480 26 482 26 c 0,290,291
 518 28 518 28 665 50 c 1,292,293
 976 68 976 68 1197 68 c 0,294,295
 1386 68 1386 68 1546 50 c 1,296,297
 1677 0 1677 0 1743 0 c 0,298,299
 1811 0 1811 0 1874 13 c 1,300,301
 1903 53 1903 53 1801 75 c 0,302,303
 1699 96 1699 96 1670 168 c 0,304,305
 1651 217 1651 217 1617 217 c 0,306,307
 1602 217 1602 217 1585 208 c 1,308,309
 1622 355 1622 355 1592 530 c 1,310,311
 1572 738 1572 738 1657 1085 c 0,312,313
 1664 1112 1664 1112 1674 1112 c 0,314,315
 1687 1112 1687 1112 1706 1055 c 0,316,317
 1736 960 1736 960 1752 671 c 1,318,319
 1771 460 1771 460 1736 322 c 1,320,321
 1703 267 1703 267 1697 226 c 0,322,323
 1690 184 1690 184 1736 131 c 1,324,325
 1817 149 1817 149 1837 216 c 128,-1,326
 1857 283 1857 283 1847 311 c 0,327,328
 1837 340 1837 340 1833 379 c 1,329,330
 1846 484 1846 484 1870 580 c 0,331,332
 1894 675 1894 675 1870 852 c 0,333,334
 1833 1150 1833 1150 1760 1315 c 1,335,336
 1712 1376 1712 1376 1574 1431 c 0,337,338
 1511 1457 1511 1457 1526 1556 c 1,339,340
 1618 1611 1618 1611 1664 1683 c 128,-1,341
 1710 1755 1710 1755 1700 1844 c 128,-1,342
 1690 1933 1690 1933 1595 1972 c 0,343,344
 1534 1998 1534 1998 1469 1998 c 0,197,198
EndSplineSet
EndChar

StartChar: u1300D
Encoding: 77837 77837 16
Width: 1533
GlyphClass: 2
Flags: W
LayerCount: 2
Fore
SplineSet
879 1729 m 0,0,1
 880 1729 880 1729 882 1728 c 2,2,-1
 883 1728 l 1,3,4
 866 1708 866 1708 893 1702 c 1,5,6
 874 1702 874 1702 862 1718 c 1,7,8
 873 1729 873 1729 879 1729 c 0,0,1
902 1728 m 1,9,-1
 902 1728 l 1,10,11
 924 1721 924 1721 942 1711 c 1,12,13
 916 1702 916 1702 893 1702 c 1,14,15
 922 1711 922 1711 902 1728 c 1,9,-1
896 1743 m 2,16,-1
 891 1743 l 2,17,18
 878 1742 878 1742 873 1741.5 c 128,-1,19
 868 1741 868 1741 859 1734.5 c 128,-1,20
 850 1728 850 1728 843 1714 c 1,21,22
 866 1688 866 1688 889 1688 c 2,23,-1
 894 1688 l 1,24,25
 939 1692 939 1692 959 1706 c 1,26,-1
 995 1706 l 1,27,-1
 995 1718 l 1,28,-1
 959 1718 l 1,29,30
 920 1743 920 1743 896 1743 c 2,16,-1
1072 1749 m 0,31,32
 1082 1749 1082 1749 1080 1738 c 0,33,34
 1077 1720 1077 1720 1063 1703 c 0,35,36
 1049 1685 1049 1685 1038 1680 c 1,37,-1
 1037 1680 l 2,38,39
 1036 1679 1036 1679 1035 1679 c 0,40,41
 1031 1679 1031 1679 1038 1692 c 0,42,43
 1047 1705 1047 1705 1042 1705 c 0,44,45
 1040 1705 1040 1705 1038 1704 c 0,46,47
 1037 1703 1037 1703 1034 1703 c 0,48,49
 1029 1703 1029 1703 1035 1713 c 0,50,51
 1043 1729 1043 1729 1054 1744 c 1,52,53
 1066 1749 1066 1749 1072 1749 c 0,31,32
516 1952 m 0,54,55
 526 1952 526 1952 540 1943 c 0,56,57
 568 1924 568 1924 556 1903 c 2,58,-1
 421 1666 l 1,59,-1
 322 1735 l 1,60,61
 427 1852 427 1852 497 1943 c 0,62,63
 504 1952 504 1952 516 1952 c 0,54,55
1018 1680 m 1,64,65
 1034 1671 1034 1671 1024 1664 c 0,66,67
 1021 1660 1021 1660 1017 1660 c 0,68,69
 1014 1660 1014 1660 1011 1665 c 0,70,71
 1006 1673 1006 1673 1018 1680 c 1,64,65
1078 1769 m 0,72,73
 1075 1769 1075 1769 1067 1767 c 0,74,75
 1047 1761 1047 1761 1030 1734 c 0,76,77
 1014 1706 1014 1706 1021 1694 c 1,78,79
 1004 1685 1004 1685 1000 1672 c 0,80,81
 997 1659 997 1659 1012 1653 c 0,82,83
 1014 1652 1014 1652 1018 1652 c 0,84,85
 1033 1652 1033 1652 1055 1674 c 0,86,87
 1082 1701 1082 1701 1091 1724 c 0,88,89
 1099 1747 1099 1747 1093 1760 c 0,90,91
 1088 1769 1088 1769 1078 1769 c 0,72,73
312 1685 m 1,92,-1
 378 1638 l 1,93,94
 323 1586 323 1586 302 1586 c 0,95,96
 299 1586 299 1586 295 1588 c 0,97,98
 274 1601 274 1601 312 1685 c 1,92,-1
1049 1899 m 0,99,100
 1081 1899 1081 1899 1120 1885 c 0,101,102
 1235 1844 1235 1844 1209 1703 c 0,103,104
 1185 1566 1185 1566 1119 1566 c 2,105,-1
 1114 1566 l 1,106,107
 1045 1572 1045 1572 1101 1652 c 0,108,109
 1158 1733 1158 1733 1140 1783 c 0,110,111
 1128 1818 1128 1818 1080 1818 c 0,112,113
 1056 1818 1056 1818 1028 1811 c 1,114,-1
 926 1841 l 1,115,116
 980 1899 980 1899 1049 1899 c 0,99,100
1223 1396 m 1,117,118
 1286 1377 1286 1377 1305 1358 c 1,119,120
 1229 1280 1229 1280 1182 1083 c 1,121,-1
 1108 1175 l 1,122,-1
 1223 1396 l 1,117,118
1300 1239 m 1,123,-1
 1419 1010 l 1,124,-1
 1241 1047 l 1,125,126
 1278 1203 1278 1203 1300 1239 c 1,123,-1
909 1809 m 2,127,-1
 910 1809 l 2,128,129
 928 1809 928 1809 1009 1770 c 1,130,131
 1012 1757 1012 1757 1022 1757 c 0,132,133
 1029 1757 1029 1757 1042 1767 c 0,134,135
 1057 1779 1057 1779 1074 1779 c 0,136,137
 1082 1779 1082 1779 1094 1774 c 0,138,139
 1120 1760 1120 1760 1101 1721 c 0,140,141
 1083 1681 1083 1681 1051 1652 c 0,142,143
 1021 1624 1021 1624 1024 1591 c 0,144,145
 1028 1560 1028 1560 1061 1545 c 1,146,147
 1025 1427 1025 1427 1141 1422 c 1,148,-1
 1170 1414 l 1,149,-1
 1056 1204 l 1,150,151
 1038 1206 1038 1206 1029 1206 c 0,152,153
 976 1206 976 1206 955 1165 c 0,154,155
 931 1113 931 1113 980 1052 c 1,156,-1
 942 988 l 1,157,-1
 992 962 l 1,158,-1
 1030 1031 l 1,159,160
 1123 1014 1123 1014 1165 998 c 1,161,162
 1148 888 1148 888 1125 808 c 1,163,-1
 902 744 l 1,164,165
 907 872 907 872 875 1051 c 128,-1,166
 843 1230 843 1230 727 1322 c 1,167,168
 810 1392 810 1392 900 1405 c 1,169,170
 966 1409 966 1409 964 1480 c 0,171,172
 961 1544 961 1544 910 1544 c 2,173,-1
 901 1544 l 2,174,175
 896 1543 896 1543 887 1543 c 0,176,177
 841 1543 841 1543 841 1581 c 1,178,179
 876 1599 876 1599 864 1610 c 0,180,181
 851 1622 851 1622 824 1623 c 1,182,183
 845 1647 845 1647 805 1669 c 1,184,-1
 852 1747 l 1,185,186
 879 1755 879 1755 894 1755 c 0,187,188
 920 1755 920 1755 971 1728 c 1,189,190
 998 1734 998 1734 955 1756 c 0,191,192
 922 1774 922 1774 888 1774 c 0,193,194
 886 1774 886 1774 881.5 1773.5 c 128,-1,195
 877 1773 877 1773 874 1773 c 1,196,197
 892 1809 892 1809 909 1809 c 2,127,-1
355 732 m 1,198,-1
 355 732 l 1,199,200
 602 695 602 695 800 649 c 1,201,202
 639 552 639 552 468 391 c 1,203,204
 462 669 462 669 355 732 c 1,198,-1
1141 735 m 1,205,206
 1214 612 1214 612 1040 438 c 1,207,208
 904 372 904 372 750 316 c 0,209,210
 589 259 589 259 521 152 c 1,211,-1
 423 258 l 1,212,213
 660 520 660 520 878 645 c 1,214,215
 1008 708 1008 708 1141 735 c 1,205,206
505 1998 m 0,216,217
 500 1998 500 1998 495 1995 c 2,218,-1
 288 1768 l 1,219,-1
 220 1761 l 1,220,221
 203 1744 203 1744 220 1732 c 2,222,-1
 274 1702 l 1,223,224
 273 1602 273 1602 201 1486 c 1,225,226
 63 1477 63 1477 111 1370 c 1,227,-1
 16 1244 l 2,228,229
 -8 1214 -8 1214 4 1197 c 1,230,-1
 23 1180 l 1,231,-1
 26 1180 l 2,232,233
 43 1180 43 1180 66 1209 c 1,234,-1
 146 1337 l 1,235,-1
 288 1209 l 1,236,-1
 452 1010 l 2,237,238
 480 976 480 976 513 976 c 0,239,240
 554 976 554 976 601 1033 c 0,241,242
 698 1150 698 1150 739 1237 c 1,243,244
 821 1115 821 1115 836 1006 c 0,245,246
 850 898 850 898 857 699 c 1,247,248
 636 735 636 735 416 777 c 0,249,250
 369 787 369 787 330 787 c 0,251,252
 268 787 268 787 243 760 c 0,253,254
 203 716 203 716 229 628 c 1,255,-1
 362 258 l 1,256,257
 309 199 309 199 336 126 c 1,258,-1
 153 47 l 1,259,-1
 153 0 l 1,260,-1
 502 0 l 1,261,-1
 1132 341 l 1,262,-1
 1115 57 l 1,263,-1
 1023 45 l 1,264,-1
 1023 0 l 1,265,-1
 1203 0 l 1,266,-1
 1210 76 l 1,267,-1
 1258 365 l 1,268,269
 1264 462 1264 462 1234 486 c 0,270,271
 1222 495 1222 495 1208 495 c 0,272,273
 1187 495 1187 495 1156 475 c 1,274,-1
 1156 475 l 1,275,-1
 1156 475 l 1,276,-1
 1156 475 l 1,277,-1
 1156 475 l 1,278,-1
 1156 475 l 1,279,280
 1267 558 1267 558 1201 794 c 1,281,-1
 1201 794 l 1,282,283
 1201 837 1201 837 1229 969 c 1,284,-1
 1452 891 l 2,285,286
 1459 890 1459 890 1471 890 c 0,287,288
 1554 890 1554 890 1528 988 c 1,289,290
 1402 1342 1402 1342 1348 1384 c 0,291,292
 1345 1386 1345 1386 1327 1401.5 c 128,-1,293
 1309 1417 1309 1417 1301.5 1422 c 128,-1,294
 1294 1427 1294 1427 1278.5 1435 c 128,-1,295
 1263 1443 1263 1443 1247 1446 c 1,296,-1
 1303 1551 l 1,297,298
 1339 1640 1339 1640 1377 1640 c 0,299,300
 1388 1640 1388 1640 1396 1635 c 0,301,302
 1442 1613 1442 1613 1386 1510 c 1,303,-1
 1431 1491 l 1,304,305
 1514 1645 1514 1645 1422 1680 c 0,306,307
 1400 1689 1400 1689 1378 1689 c 0,308,309
 1316 1689 1316 1689 1274 1612 c 2,310,-1
 1193 1457 l 1,311,312
 1125 1459 1125 1459 1104.5 1473 c 128,-1,313
 1084 1487 1084 1487 1104 1526 c 1,314,-1
 1104 1526 l 1,315,316
 1122 1521 1122 1521 1135 1521 c 0,317,318
 1189 1521 1189 1521 1221 1589 c 0,319,320
 1260 1676 1260 1676 1254 1773 c 0,321,322
 1248 1869 1248 1869 1165 1914 c 0,323,324
 1108 1944 1108 1944 1050 1944 c 0,325,326
 1022 1944 1022 1944 997 1937 c 0,327,328
 911 1917 911 1917 841 1801 c 1,329,330
 821 1754 821 1754 765 1671 c 0,331,332
 756 1653 756 1653 759.5 1644 c 128,-1,333
 763 1635 763 1635 773 1635 c 0,334,335
 791 1635 791 1635 798 1628 c 1,336,337
 788 1618 788 1618 790 1609 c 0,338,339
 790 1600 790 1600 798 1600 c 0,340,341
 811 1600 811 1600 799 1593 c 0,342,343
 789 1586 789 1586 795 1569 c 0,344,345
 802 1552 802 1552 804 1530 c 0,346,347
 806 1507 806 1507 831 1504 c 0,348,349
 845 1502 845 1502 855 1502 c 0,350,351
 872 1502 872 1502 893 1505 c 1,352,353
 923 1484 923 1484 914 1457 c 1,354,355
 799 1448 799 1448 698 1363 c 1,356,-1
 530 1119 l 1,357,-1
 530 1114 l 1,358,359
 520 1114 520 1114 288 1329 c 1,360,361
 279 1412 279 1412 239 1479 c 1,362,363
 311 1572 311 1572 407 1612 c 1,364,-1
 454 1569 l 2,365,366
 459 1565 459 1565 465 1565 c 0,367,368
 474 1565 474 1565 480 1578 c 1,369,-1
 464 1645 l 1,370,-1
 606 1917 l 1,371,372
 607 1941 607 1941 561 1972 c 0,373,374
 526 1998 526 1998 505 1998 c 0,216,217
EndSplineSet
EndChar

StartChar: u1300E
Encoding: 77838 77838 17
Width: 1353
GlyphClass: 2
Flags: W
LayerCount: 2
Fore
SplineSet
1246 1955 m 0,0,1
 1256 1955 1256 1955 1276 1945 c 0,2,3
 1296 1936 1296 1936 1296.5 1921 c 128,-1,4
 1297 1906 1297 1906 1285 1897 c 0,5,6
 1271 1885 1271 1885 1259 1885 c 0,7,8
 1244 1885 1244 1885 1222 1896 c 1,9,-1
 1122 1735 l 1,10,11
 1117 1762 1117 1762 1107 1770.5 c 128,-1,12
 1097 1779 1097 1779 1064 1783 c 1,13,-1
 1203 1936 l 1,14,15
 1237 1955 1237 1955 1246 1955 c 0,0,1
885 1727 m 0,16,17
 915 1727 915 1727 945 1715 c 1,18,-1
 917 1686 l 1,19,-1
 862 1725 l 1,20,21
 878 1727 878 1727 885 1727 c 0,16,17
990 1686 m 1,22,23
 1031 1663 1031 1663 1026 1581 c 1,24,-1
 960 1652 l 1,25,-1
 990 1686 l 1,22,23
740 1613 m 128,-1,27
 716 1613 716 1613 707 1591 c 1,28,29
 717 1567 717 1567 745 1567 c 0,30,31
 769 1567 769 1567 807 1587 c 1,32,26
 764 1613 764 1613 740 1613 c 128,-1,27
804 1713 m 1,33,34
 928 1649 928 1649 1013 1541 c 1,35,36
 997 1499 997 1499 960 1474 c 0,37,38
 948 1466 948 1466 938 1466 c 0,39,40
 920 1466 920 1466 913 1494 c 1,41,42
 922 1504 922 1504 937 1517.5 c 128,-1,43
 952 1531 952 1531 956 1540.5 c 128,-1,44
 960 1550 960 1550 958 1570 c 0,45,46
 955 1613 955 1613 904 1615 c 0,47,48
 884 1615 884 1615 865 1600 c 1,49,50
 871 1636 871 1636 848.5 1650 c 128,-1,51
 826 1664 826 1664 763 1674 c 1,52,53
 776 1699 776 1699 804 1713 c 1,33,34
157 1757 m 1,54,-1
 157 1339 l 1,55,-1
 117 1385 l 2,56,57
 57 1457 57 1457 57 1567 c 0,58,59
 57 1678 57 1678 157 1757 c 1,54,-1
722 1637 m 0,60,61
 726 1636 726 1636 742.5 1634.5 c 128,-1,62
 759 1633 759 1633 772.5 1631 c 128,-1,63
 786 1629 786 1629 801.5 1625 c 128,-1,64
 817 1621 817 1621 824 1615 c 1,65,66
 831 1559 831 1559 855 1559 c 0,67,68
 857 1559 857 1559 865 1561 c 0,69,70
 896 1570 896 1570 907 1581 c 1,71,72
 915 1581 915 1581 924 1570 c 1,73,74
 924 1546 924 1546 867 1498 c 1,75,-1
 867 1496 l 1,76,77
 875 1416 875 1416 935 1335 c 1,78,79
 900 1314 900 1314 866 1314 c 0,80,81
 841 1314 841 1314 820 1324 c 1,82,83
 843 1367 843 1367 822 1408 c 0,84,85
 810 1429 810 1429 784 1429 c 0,86,87
 760 1429 760 1429 722 1411 c 0,88,89
 712 1408 712 1408 705 1408 c 0,90,91
 692 1408 692 1408 687 1420 c 1,92,93
 693 1447 693 1447 678 1461 c 1,94,95
 728 1467 728 1467 728 1474 c 0,96,97
 728 1490 728 1490 676 1491 c 1,98,99
 699 1521 699 1521 650 1533 c 1,100,101
 664 1579 664 1579 722 1637 c 0,60,61
1078 1280 m 1,102,103
 1116 1264 1116 1264 1144 1246 c 1,104,105
 1111 1213 1111 1213 1087.5 1151 c 128,-1,106
 1064 1089 1064 1089 1040 988 c 1,107,108
 992 1037 992 1037 959 1065 c 1,109,-1
 959 1065 l 1,110,-1
 1078 1280 l 1,102,103
1139 1137 m 1,111,-1
 1248 926 l 1,112,-1
 1085 961 l 1,113,114
 1111 1112 1111 1112 1139 1137 c 1,111,-1
109 1200 m 1,115,116
 129 1175 129 1175 157 1159 c 1,117,-1
 157 837 l 1,118,119
 57 915 57 915 57 1017 c 0,120,121
 57 1120 57 1120 109 1200 c 1,115,116
994 1304 m 0,122,123
 998 1303 998 1303 1005 1301.5 c 128,-1,124
 1012 1300 1012 1300 1015 1300 c 1,125,-1
 1015 1300 l 1,126,-1
 906 1105 l 1,127,-1
 906 1105 l 1,128,129
 884 1118 884 1118 871 1118 c 0,130,131
 868 1118 868 1118 866 1117 c 0,132,133
 833 1107 833 1107 817 1080 c 0,134,135
 801 1054 801 1054 800 1017 c 0,136,137
 797 992 797 992 831 973 c 1,138,-1
 831 973 l 1,139,-1
 798 913 l 1,140,-1
 853 876 l 1,141,-1
 895 951 l 1,142,-1
 895 951 l 1,143,144
 977 929 977 929 1022 911 c 1,145,146
 1018 886 1018 886 1013 849 c 128,-1,147
 1008 812 1008 812 1004 788.5 c 128,-1,148
 1000 765 1000 765 994 745 c 1,149,-1
 781 681 l 1,150,151
 782 728 782 728 776 798.5 c 128,-1,152
 770 869 770 869 755 956 c 128,-1,153
 740 1043 740 1043 705.5 1116.5 c 128,-1,154
 671 1190 671 1190 624 1218 c 1,155,156
 697 1278 697 1278 772 1289 c 1,157,158
 814 1265 814 1265 862 1265 c 0,159,160
 922 1265 922 1265 994 1304 c 0,122,123
272 672 m 1,161,162
 493 639 493 639 680 596 c 1,163,164
 531 505 531 505 376 359 c 1,165,166
 370 613 370 613 272 672 c 1,161,162
994 674 m 1,167,168
 1060 561 1060 561 900 402 c 1,169,170
 790 347 790 347 635 290 c 0,171,172
 488 238 488 238 424 139 c 1,173,-1
 335 237 l 1,174,175
 552 479 552 479 752 591 c 1,176,177
 874 651 874 651 994 674 c 1,167,168
1246 1997 m 0,178,179
 1212 1997 1212 1997 1172 1961 c 1,180,-1
 970 1746 l 1,181,182
 908 1761 908 1761 863 1761 c 0,183,184
 794 1761 794 1761 759 1725 c 0,185,186
 703 1667 703 1667 667 1624 c 0,187,188
 593 1522 593 1522 611 1516 c 0,189,190
 629 1511 629 1511 637 1507 c 0,191,192
 655 1502 655 1502 652 1481 c 1,193,194
 643 1455 643 1455 665 1424 c 1,195,-1
 637 1335 l 1,196,197
 643 1311 643 1311 667 1311 c 0,198,199
 681 1311 681 1311 730 1381 c 0,200,201
 739 1400 739 1400 783 1400 c 1,202,203
 804 1386 804 1386 785 1337 c 1,204,205
 680 1328 680 1328 587 1250 c 1,206,-1
 433 1026 l 1,207,-1
 433 1022 l 1,208,209
 421 1022 421 1022 211 1220 c 1,210,-1
 211 1872 l 1,211,212
 0 1757 0 1757 0 1574 c 0,213,214
 0 1424 0 1424 61 1351 c 1,215,-1
 61 1351 l 1,216,217
 22 1324 22 1324 54 1241 c 2,218,-1
 57 1233 l 1,219,220
 0 1158 0 1158 0 1020 c 0,221,222
 0 837 0 837 211 728 c 1,223,-1
 211 1109 l 1,224,-1
 361 926 l 2,225,226
 388 895 388 895 417 895 c 0,227,228
 454 895 454 895 498 948 c 0,229,230
 587 1055 587 1055 624 1135 c 1,231,232
 654 1132 654 1132 684 1039 c 128,-1,233
 714 946 714 946 728 829 c 128,-1,234
 742 712 742 712 733 641 c 1,235,236
 530 674 530 674 328 713 c 0,237,238
 283 722 283 722 249 722 c 0,239,240
 192 722 192 722 170 697 c 0,241,242
 133 657 133 657 157 576 c 1,243,-1
 278 237 l 1,244,245
 230 183 230 183 254 115 c 1,246,-1
 87 43 l 1,247,-1
 87 0 l 1,248,-1
 407 0 l 1,249,-1
 985 313 l 1,250,-1
 970 52 l 1,251,-1
 885 41 l 1,252,-1
 885 0 l 1,253,-1
 1050 0 l 1,254,-1
 1057 70 l 1,255,-1
 1100 335 l 1,256,257
 1106 424 1106 424 1078 446 c 0,258,259
 1067 454 1067 454 1054 454 c 0,260,261
 1034 454 1034 454 1007 436 c 1,262,-1
 1007 436 l 1,263,-1
 1007 436 l 1,264,-1
 1007 436 l 1,265,-1
 1007 436 l 1,266,-1
 1007 436 l 1,267,268
 1110 511 1110 511 1048 728 c 1,269,-1
 1048 728 l 1,270,271
 1048 770 1048 770 1074 889 c 1,272,-1
 1278 817 l 2,273,274
 1282 817 1282 817 1287.5 816.5 c 128,-1,275
 1293 816 1293 816 1296 816 c 0,276,277
 1372 816 1372 816 1348 907 c 1,278,279
 1233 1230 1233 1230 1183 1274 c 1,280,-1
 1097 1314 l 1,281,-1
 1097 1314 l 1,282,-1
 1265 1615 l 1,283,-1
 1209 1646 l 1,284,-1
 1036 1338 l 1,285,-1
 1036 1338 l 1,286,287
 1008 1349 1008 1349 978 1357 c 1,288,289
 924 1397 924 1397 989 1441 c 0,290,291
 1053 1483 1053 1483 1070 1553 c 0,292,293
 1085 1621 1085 1621 1062 1665 c 0,294,295
 1040 1707 1040 1707 1024 1720 c 1,296,-1
 1046 1744 l 1,297,298
 1080 1744 1080 1744 1115 1648 c 1,299,-1
 1237 1852 l 1,300,301
 1255 1845 1255 1845 1267 1845 c 0,302,303
 1297 1845 1297 1845 1321 1878 c 0,304,305
 1359 1934 1359 1934 1300 1976 c 0,306,307
 1272 1997 1272 1997 1246 1997 c 0,178,179
EndSplineSet
EndChar

StartChar: u1300F
Encoding: 77839 77839 18
Width: 1387
GlyphClass: 2
Flags: W
LayerCount: 2
Fore
SplineSet
783 1968 m 0,0,1
 792 1968 792 1968 799 1953 c 0,2,3
 810 1926 810 1926 766 1899 c 1,4,5
 749 1943 749 1943 768 1961 c 0,6,7
 776 1968 776 1968 783 1968 c 0,0,1
448 1748 m 0,8,9
 402 1748 402 1748 398 1705 c 1,10,11
 408 1693 408 1693 425 1693 c 0,12,13
 456 1693 456 1693 511 1736 c 1,14,15
 474 1748 474 1748 448 1748 c 0,8,9
591 1929 m 0,16,17
 594 1929 594 1929 597 1929 c 0,18,19
 738 1926 738 1926 774 1803 c 128,-1,20
 810 1680 810 1680 741 1628 c 0,21,22
 730 1624 730 1624 718 1624 c 0,23,24
 683 1624 683 1624 650 1664 c 1,25,26
 680 1730 680 1730 675 1758 c 0,27,28
 661 1802 661 1802 630 1802 c 0,29,30
 628 1802 628 1802 626 1802 c 0,31,32
 592 1799 592 1799 578 1774 c 1,33,34
 553 1805 553 1805 412 1810 c 1,35,36
 455 1929 455 1929 591 1929 c 0,16,17
1244 1138 m 0,37,38
 1259 1138 1259 1138 1263 1108 c 0,39,40
 1269 1064 1269 1064 1211 1031 c 1,41,42
 1194 1111 1194 1111 1226 1132 c 0,43,44
 1236 1138 1236 1138 1244 1138 c 0,37,38
1249 923 m 1,45,-1
 1249 923 l 1,46,47
 1338 774 1338 774 1321 749 c 0,48,49
 1311 733 1311 733 1297 733 c 0,50,51
 1289 733 1289 733 1280 738 c 0,52,53
 1255 752 1255 752 1249 923 c 1,45,-1
442 1771 m 0,54,55
 491 1771 491 1771 578 1733 c 0,56,57
 580 1733 580 1733 582 1733 c 0,58,59
 599 1733 599 1733 614 1752 c 0,60,61
 622 1763 622 1763 628 1763 c 128,-1,62
 634 1763 634 1763 637 1751 c 0,63,64
 644 1727 644 1727 603 1658 c 1,65,66
 628 1589 628 1589 699 1520 c 1,67,68
 807 1512 807 1512 885 1432 c 1,69,70
 733 1175 733 1175 733 967 c 0,71,72
 733 923 733 923 757 768 c 1,73,-1
 757 766 l 1,74,75
 644 702 644 702 611 702 c 1,76,77
 445 1144 445 1144 474 1216 c 128,-1,78
 503 1288 503 1288 581 1379 c 1,79,80
 652 1476 652 1476 604 1531 c 0,81,82
 580 1559 580 1559 545 1559 c 128,-1,83
 510 1559 510 1559 464 1531 c 1,84,85
 440 1534 440 1534 426 1578 c 0,86,87
 409 1632 409 1632 381 1632 c 0,88,89
 377 1632 377 1632 373 1631 c 0,90,91
 371 1630 371 1630 370 1630 c 0,92,93
 343 1630 343 1630 395 1755 c 1,94,95
 411 1771 411 1771 442 1771 c 0,54,55
124 708 m 0,96,97
 132 708 132 708 141 708 c 0,98,99
 442 688 442 688 545 611 c 1,100,101
 401 492 401 492 299 390 c 1,102,103
 288 395 288 395 66 641 c 1,104,105
 52 708 52 708 124 708 c 0,96,97
829 345 m 1,106,107
 815 318 815 318 668 198 c 0,108,109
 520 77 520 77 469 76 c 0,110,111
 465 76 465 76 462 76 c 0,112,113
 417 76 417 76 406 94 c 1,114,115
 583 246 583 246 829 345 c 1,106,107
771 708 m 1,116,117
 843 605 843 605 843 564 c 0,118,119
 843 525 843 525 810 489 c 1,120,121
 569 279 569 279 357 135 c 1,122,123
 257 59 257 59 209 59 c 0,124,125
 207 59 207 59 205 59 c 0,126,127
 158 64 158 64 149 116 c 1,128,129
 152 185 152 185 413 435 c 0,130,131
 675 685 675 685 771 708 c 1,116,117
779 1997 m 0,132,133
 738 1997 738 1997 724 1940 c 1,134,135
 683 1965 683 1965 600 1968 c 1,136,137
 434 1962 434 1962 391 1870 c 0,138,139
 348 1777 348 1777 357 1752 c 1,140,141
 299 1617 299 1617 346 1600 c 0,142,143
 352 1602 352 1602 358 1602 c 0,144,145
 378 1602 378 1602 386 1578 c 0,146,147
 395 1548 395 1548 412 1520 c 1,148,149
 423 1481 423 1481 373 1407 c 1,150,-1
 437 1388 l 1,151,152
 467 1506 467 1506 545 1506 c 1,153,154
 569 1451 569 1451 503 1371 c 128,-1,155
 437 1291 437 1291 393 1169 c 1,156,157
 448 918 448 918 539 708 c 1,158,-1
 124 777 l 2,159,160
 112 779 112 779 101 779 c 0,161,162
 40 779 40 779 14 713 c 0,163,164
 -16 636 -16 636 19 594 c 1,165,166
 235 384 235 384 246 343 c 1,167,168
 72 160 72 160 72 91 c 1,169,170
 105 0 105 0 188 0 c 2,171,-1
 442 0 l 2,172,173
 506 3 506 3 849 290 c 1,174,175
 887 290 887 290 893 232 c 1,176,177
 893 127 893 127 838 36 c 1,178,179
 838 11 838 11 858 11 c 0,180,181
 868 11 868 11 882 17 c 1,182,183
 998 138 998 138 998 235 c 0,184,185
 998 274 998 274 954 348 c 1,186,-1
 959 415 l 2,187,188
 959 453 959 453 912 489 c 1,189,190
 912 625 912 625 857 683 c 1,191,192
 796 813 796 813 796 951 c 0,193,194
 796 1045 796 1045 818 1142 c 1,195,196
 871 1318 871 1318 929 1349 c 1,197,198
 973 1277 973 1277 1027 1190 c 128,-1,199
 1081 1103 1081 1103 1081 1064 c 0,200,201
 1081 1028 1081 1028 1059 1003 c 1,202,203
 1001 918 1001 918 990 619 c 1,204,205
 973 578 973 578 968 540 c 0,206,207
 962 503 962 503 965 473 c 0,208,209
 965 451 965 451 985 415 c 0,210,211
 1006 379 1006 379 1017 345 c 0,212,213
 1020 337 1020 337 1028 334 c 0,214,215
 1030 333 1030 333 1031 333 c 0,216,217
 1035 333 1035 333 1039 343 c 1,218,219
 1046 336 1046 336 1050 336 c 128,-1,220
 1054 336 1054 336 1056 345 c 1,221,222
 1061 342 1061 342 1064 342 c 0,223,224
 1070 342 1070 342 1070 351 c 1,225,226
 1074 350 1074 350 1077 350 c 0,227,228
 1081 350 1081 350 1084 351 c 0,229,230
 1089 354 1089 354 1086 365 c 0,231,232
 1064 412 1064 412 1053 438 c 128,-1,233
 1042 464 1042 464 1039 520 c 0,234,235
 1039 533 1039 533 1045 533 c 0,236,237
 1050 533 1050 533 1056 525 c 0,238,239
 1061 509 1061 509 1061 485 c 0,240,241
 1061 462 1061 462 1070 449 c 0,242,243
 1076 441 1076 441 1083 441 c 0,244,245
 1086 441 1086 441 1089 442 c 0,246,247
 1100 445 1100 445 1092 468 c 0,248,249
 1084 492 1084 492 1086 536 c 0,250,251
 1089 580 1089 580 1050 622 c 1,252,253
 1106 824 1106 824 1122 909 c 1,254,-1
 1122 909 l 1,255,256
 1097 749 1097 749 1097 616 c 1,257,258
 1111 578 1111 578 1120 545 c 0,259,260
 1128 511 1128 511 1144 486 c 0,261,262
 1155 470 1155 470 1184 448 c 128,-1,263
 1213 426 1213 426 1236 398 c 0,264,265
 1241 395 1241 395 1247 395 c 0,266,267
 1255 395 1255 395 1252 406 c 1,268,-1
 1252 406 l 1,269,270
 1256 405 1256 405 1259 405 c 0,271,272
 1267 405 1267 405 1263 417 c 1,273,-1
 1263 417 l 1,274,275
 1268 416 1268 416 1271 416 c 0,276,277
 1279 416 1279 416 1277 426 c 1,278,279
 1283 426 1283 426 1287 430 c 128,-1,280
 1291 434 1291 434 1283 442 c 0,281,282
 1249 475 1249 475 1229 491 c 0,283,284
 1208 506 1208 506 1186 553 c 0,285,286
 1183 564 1183 564 1187 565 c 0,287,288
 1188 566 1188 566 1189 566 c 0,289,290
 1192 566 1192 566 1197 561 c 0,291,292
 1205 553 1205 553 1216 533 c 0,293,294
 1227 514 1227 514 1238 506 c 0,295,296
 1244 502 1244 502 1249 502 c 128,-1,297
 1254 502 1254 502 1258 506 c 0,298,299
 1263 514 1263 514 1248 529 c 0,300,301
 1233 545 1233 545 1219 582 c 128,-1,302
 1205 619 1205 619 1158 644 c 1,303,304
 1200 824 1200 824 1216 923 c 1,305,306
 1216 893 1216 893 1225 625 c 1,307,-1
 1285 641 l 1,308,-1
 1274 677 l 1,309,-1
 1388 724 l 1,310,-1
 1388 730 l 1,311,-1
 1255 1009 l 1,312,313
 1319 1048 1319 1048 1320 1108 c 0,314,315
 1321 1169 1321 1169 1262 1190 c 0,316,317
 1250 1194 1250 1194 1240 1194 c 0,318,319
 1195 1194 1195 1194 1167 1125 c 1,320,321
 1053 1423 1053 1423 1014 1457 c 1,322,323
 992 1495 992 1495 824 1542 c 2,324,-1
 713 1573 l 1,325,-1
 744 1589 l 1,326,327
 824 1622 824 1622 821 1744 c 1,328,-1
 871 1752 l 1,329,330
 838 1855 838 1855 788 1879 c 1,331,332
 838 1910 838 1910 831 1953 c 128,-1,333
 824 1996 824 1996 781 1997 c 0,334,335
 780 1997 780 1997 779 1997 c 0,132,133
EndSplineSet
EndChar

StartChar: u13010
Encoding: 77840 77840 19
Width: 2000
GlyphClass: 2
Flags: W
LayerCount: 2
Fore
SplineSet
354 1802 m 0,0,1
 387 1802 387 1802 418 1782 c 0,2,3
 498 1730 498 1730 502 1609 c 0,4,5
 504 1546 504 1546 496 1546 c 128,-1,6
 488 1546 488 1546 472 1598 c 0,7,8
 438 1707 438 1707 378 1722 c 0,9,10
 371 1723 371 1723 365 1723 c 0,11,12
 312 1723 312 1723 270 1621 c 1,13,14
 209 1571 209 1571 181 1571 c 0,15,16
 159 1571 159 1571 157 1601 c 0,17,18
 153 1668 153 1668 246 1751 c 0,19,20
 302 1802 302 1802 354 1802 c 0,0,1
368 1632 m 0,21,22
 371 1632 371 1632 376 1628 c 0,23,24
 391 1615 391 1615 397 1592 c 0,25,26
 403 1568 403 1568 399 1552 c 0,27,28
 398 1545 398 1545 396 1545 c 0,29,30
 393 1545 393 1545 389 1558 c 0,31,32
 385 1572 385 1572 382 1572 c 0,33,34
 380 1572 380 1572 379 1566 c 0,35,36
 377 1559 377 1559 374 1559 c 0,37,38
 370 1559 370 1559 365 1568 c 0,39,40
 356 1584 356 1584 356 1607 c 0,41,42
 359 1632 359 1632 368 1632 c 0,21,22
397 1531 m 0,43,44
 403 1531 403 1531 403 1525 c 0,45,46
 403 1515 403 1515 393 1515 c 128,-1,47
 383 1515 383 1515 387 1529 c 1,48,49
 393 1531 393 1531 397 1531 c 0,43,44
363 1658 m 0,50,51
 349 1658 349 1658 341 1636 c 0,52,53
 332 1611 332 1611 343 1577 c 128,-1,54
 354 1543 354 1543 375 1543 c 1,55,56
 369 1521 369 1521 378 1509 c 0,57,58
 383 1502 383 1502 390 1502 c 0,59,60
 396 1502 396 1502 404 1507 c 0,61,62
 422 1519 422 1519 417 1564 c 128,-1,63
 412 1609 412 1609 396 1633 c 0,64,65
 381 1656 381 1656 365 1658 c 0,66,67
 364 1658 364 1658 363 1658 c 0,50,51
319 1515 m 1,68,-1
 303 1492 l 1,69,70
 248 1468 248 1468 230 1437 c 0,71,72
 213 1406 213 1406 231 1369 c 1,73,-1
 241 1371 l 1,74,75
 256 1427 256 1427 313 1484 c 1,76,-1
 332 1511 l 1,77,-1
 319 1515 l 1,68,-1
133 1472 m 1,78,79
 172 1383 172 1383 209 1265 c 1,80,81
 224 1244 224 1244 235 1244 c 0,82,83
 242 1244 242 1244 247 1251 c 0,84,85
 260 1271 260 1271 272 1271 c 1,86,87
 274 1256 274 1256 283 1251 c 0,88,89
 288 1249 288 1249 291 1249 c 0,90,91
 295 1249 295 1249 299 1252 c 0,92,93
 302 1257 302 1257 305 1257 c 128,-1,94
 308 1257 308 1257 309 1248 c 0,95,96
 311 1232 311 1232 327 1232 c 0,97,98
 342 1232 342 1232 365 1218 c 0,99,100
 374 1214 374 1214 382 1214 c 0,101,102
 396 1214 396 1214 410 1229 c 0,103,104
 430 1252 430 1252 459 1306 c 1,105,-1
 485 1334 l 1,106,107
 539 1308 539 1308 543 1291 c 1,108,109
 535 1215 535 1215 543 1137 c 0,110,111
 555 1037 555 1037 600 988 c 1,112,113
 629 908 629 908 647 844 c 1,114,115
 457 928 457 928 215 982 c 1,116,117
 215 1045 215 1045 159 1100 c 1,118,119
 125 1207 125 1207 79 1320 c 1,120,121
 67 1459 67 1459 133 1472 c 1,78,79
233 900 m 1,122,123
 469 793 469 793 635 752 c 1,124,125
 554 760 554 760 440 760 c 0,126,127
 358 760 358 760 260 756 c 1,128,129
 256 850 256 850 233 900 c 1,122,123
371 1674 m 0,130,131
 392 1674 392 1674 409 1641 c 0,132,133
 432 1595 432 1595 441 1543 c 0,134,135
 451 1492 451 1492 489 1471 c 0,136,137
 502 1463 502 1463 516 1463 c 0,138,139
 540 1463 540 1463 565 1488 c 1,140,141
 610 1502 610 1502 659 1502 c 0,142,143
 728 1502 728 1502 807 1474 c 1,144,145
 1074 1265 1074 1265 1386 1199 c 1,146,147
 1609 1133 1609 1133 1566 1002 c 1,148,149
 1564 922 1564 922 1431 762 c 0,150,151
 1316 627 1316 627 1295 508 c 1,152,153
 1266 480 1266 480 1232 480 c 0,154,155
 1217 480 1217 480 1201 485 c 1,156,157
 1154 487 1154 487 1144 508 c 1,158,159
 1156 641 1156 641 1281 867 c 1,160,161
 1334 926 1334 926 1232 990 c 1,162,163
 1103 1086 1103 1086 877 1119 c 1,164,-1
 662 1127 l 1,165,166
 604 1156 604 1156 596 1217 c 1,167,168
 602 1328 602 1328 592 1355 c 1,169,170
 565 1369 565 1369 505 1379 c 0,171,172
 497 1381 497 1381 489 1381 c 0,173,174
 440 1381 440 1381 415 1324 c 0,175,176
 394 1278 394 1278 369 1278 c 0,177,178
 358 1278 358 1278 346 1287 c 1,179,180
 355 1329 355 1329 342 1329 c 0,181,182
 340 1329 340 1329 338 1328 c 0,183,184
 319 1322 319 1322 297 1299 c 1,185,186
 288 1314 288 1314 276 1314 c 0,187,188
 261 1314 261 1314 241 1291 c 1,189,-1
 205 1406 l 1,190,191
 209 1459 209 1459 305 1515 c 1,192,193
 310 1526 310 1526 303 1526 c 0,194,195
 293 1526 293 1526 263 1507 c 0,196,197
 209 1474 209 1474 188 1429 c 1,198,199
 176 1484 176 1484 188 1502 c 0,200,201
 200 1521 200 1521 295 1576 c 0,202,203
 298 1575 298 1575 301 1575 c 0,204,205
 319 1575 319 1575 320 1610 c 0,206,207
 321 1650 321 1650 353 1668 c 0,208,209
 362 1674 362 1674 371 1674 c 0,130,131
367 1867 m 0,210,211
 319 1867 319 1867 267 1834 c 0,212,213
 180 1777 180 1777 127 1679 c 1,214,215
 104 1621 104 1621 106 1572 c 1,216,217
 -35 1441 -35 1441 12 1324 c 1,218,219
 57 1187 57 1187 73 1141 c 2,220,-1
 96 1053 l 1,221,222
 45 1021 45 1021 59 968 c 0,223,224
 73 916 73 916 133 904 c 1,225,-1
 143 826 l 1,226,227
 98 822 98 822 90 766 c 0,228,229
 82 711 82 711 157 674 c 1,230,231
 196 600 196 600 186 545 c 1,232,233
 204 509 204 509 227 509 c 0,234,235
 246 509 246 509 268 533 c 1,236,237
 276 600 276 600 280 670 c 1,238,239
 386 641 386 641 500 641 c 0,240,241
 621 641 621 641 750 674 c 1,242,243
 816 697 816 697 787 770 c 1,244,245
 764 928 764 928 719 1055 c 1,246,-1
 719 1055 l 1,247,-1
 871 1045 l 1,248,249
 1156 1008 1156 1008 1195 897 c 1,250,251
 1195 883 1195 883 1123 737 c 0,252,253
 1051 590 1051 590 1051 498 c 1,254,255
 1047 432 1047 432 1137 391 c 0,256,257
 1217 356 1217 356 1392 307 c 2,258,-1
 1689 227 l 1,259,260
 1749 194 1749 194 1808 116 c 1,261,262
 1878 0 1878 0 1937 0 c 0,263,264
 1943 0 1943 0 1949 1 c 1,265,266
 1952 12 1952 12 1945 59 c 0,267,268
 1939 106 1939 106 1897 146 c 128,-1,269
 1855 186 1855 186 1849 254 c 1,270,271
 1828 338 1828 338 1769 338 c 0,272,273
 1740 338 1740 338 1703 319 c 1,274,275
 1502 453 1502 453 1369 485 c 1,276,-1
 1369 485 l 1,277,-1
 1464 481 l 2,278,279
 1476 481 1476 481 1489 481 c 0,280,281
 1827 481 1827 481 1847 428 c 1,282,283
 1898 358 1898 358 1911 321 c 0,284,285
 1939 258 1939 258 1999 241 c 1,286,287
 2003 272 2003 272 1997 321 c 1,288,289
 1968 387 1968 387 1952 518 c 0,290,291
 1942 577 1942 577 1880 577 c 0,292,293
 1844 577 1844 577 1790 557 c 1,294,295
 1771 557 1771 557 1722 571 c 0,296,297
 1538 639 1538 639 1429 639 c 0,298,299
 1422 639 1422 639 1416 639 c 1,300,301
 1599 826 1599 826 1650 1037 c 1,302,303
 1654 1187 1654 1187 1435 1248 c 0,304,305
 1316 1283 1316 1283 1242 1310 c 0,306,307
 1062 1371 1062 1371 822 1533 c 1,308,309
 748 1574 748 1574 675 1574 c 0,310,311
 616 1574 616 1574 557 1547 c 1,312,313
 570 1652 570 1652 541 1730 c 0,314,315
 510 1812 510 1812 432 1851 c 0,316,317
 400 1867 400 1867 367 1867 c 0,210,211
EndSplineSet
EndChar

StartChar: u13011
Encoding: 77841 77841 20
Width: 1677
GlyphClass: 2
Flags: W
LayerCount: 2
Fore
SplineSet
810 1716 m 1,0,-1
 810 1716 l 1,1,-1
 810 1716 l 1,2,-1
 810 1716 l 1,0,-1
896 1548 m 0,3,4
 900 1548 900 1548 903 1543 c 0,5,6
 910 1530 910 1530 907 1509 c 0,7,8
 902 1488 902 1488 896 1478 c 2,9,-1
 892 1474 l 2,10,11
 888 1474 888 1474 890 1487 c 0,12,13
 890 1499 890 1499 888 1499 c 256,14,15
 886 1499 886 1499 885 1496 c 0,16,17
 882 1492 882 1492 880 1492 c 128,-1,18
 878 1492 878 1492 877 1500 c 0,19,20
 874 1513 874 1513 879 1532 c 1,21,22
 889 1548 889 1548 896 1548 c 0,3,4
879 1464 m 1,23,24
 894 1464 894 1464 891 1455 c 0,25,26
 888 1448 888 1448 883 1448 c 0,27,28
 882 1448 882 1448 882 1448 c 1,29,-1
 880 1449 l 2,30,31
 873 1452 873 1452 879 1464 c 1,23,24
896 1572 m 0,32,33
 889 1572 889 1572 880 1561 c 0,34,35
 867 1547 867 1547 864 1515 c 0,36,37
 861 1485 861 1485 875 1480 c 1,38,39
 863 1460 863 1460 866 1447 c 0,40,41
 868 1438 868 1438 876 1438 c 0,42,43
 881 1438 881 1438 884 1439 c 0,44,45
 897 1443 897 1443 910 1479 c 0,46,47
 921 1515 921 1515 918 1537 c 0,48,49
 915 1561 915 1561 904 1569 c 0,50,51
 900 1572 900 1572 896 1572 c 0,32,33
898 1691 m 0,52,53
 953 1691 953 1691 983 1643 c 0,54,55
 1026 1573 1026 1573 989 1480 c 0,56,57
 971 1434 971 1434 964 1434 c 0,58,59
 958 1434 958 1434 962 1482 c 0,60,61
 973 1577 973 1577 932 1610 c 0,62,63
 919 1621 919 1621 903 1621 c 0,64,65
 869 1621 869 1621 823 1575 c 1,66,67
 791 1567 791 1567 765 1567 c 0,68,69
 720 1567 720 1567 733 1601 c 0,70,71
 752 1654 752 1654 846 1682 c 0,72,73
 875 1691 875 1691 898 1691 c 0,52,53
793 1454 m 1,74,75
 781 1432 781 1432 760 1420 c 1,76,77
 775 1444 775 1444 758 1448 c 1,78,79
 776 1453 776 1453 793 1454 c 1,74,75
738 1436 m 1,80,81
 735 1420 735 1420 752 1420 c 2,82,-1
 760 1420 l 1,83,-1
 760 1420 l 1,84,85
 748 1414 748 1414 739 1414 c 0,86,87
 734 1414 734 1414 728 1416 c 1,88,89
 728 1433 728 1433 738 1436 c 1,80,81
839 1482 m 1,90,-1
 807 1462 l 1,91,92
 790 1465 790 1465 777 1465 c 0,93,94
 749 1465 749 1465 734 1453 c 0,95,96
 712 1437 712 1437 712 1402 c 1,97,98
 725 1399 725 1399 737 1399 c 0,99,100
 758 1399 758 1399 774 1410 c 0,101,102
 800 1429 800 1429 815 1458 c 1,103,-1
 845 1474 l 1,104,-1
 839 1482 l 1,90,-1
663 1708 m 1,105,-1
 732 1662 l 1,106,-1
 732 1662 l 1,107,108
 673 1601 673 1601 668 1476 c 1,109,110
 673 1431 673 1431 664 1333 c 1,111,112
 669 1304 669 1304 680 1304 c 0,113,114
 681 1304 681 1304 685 1306 c 0,115,116
 700 1315 700 1315 710 1315 c 1,117,118
 706 1303 706 1303 712 1292 c 0,119,120
 715 1285 715 1285 722 1285 c 0,121,122
 724 1285 724 1285 730 1287 c 0,123,124
 733 1290 733 1290 735 1290 c 0,125,126
 736 1290 736 1290 731 1284 c 0,127,128
 722 1275 722 1275 743 1266 c 128,-1,129
 764 1257 764 1257 771 1238 c 0,130,131
 776 1224 776 1224 786 1224 c 0,132,133
 792 1224 792 1224 799 1228 c 0,134,135
 817 1235 817 1235 851 1259 c 1,136,-1
 861 1234 l 1,137,-1
 666 1142 l 1,138,139
 632 1199 632 1199 527 1311 c 128,-1,140
 422 1423 422 1423 402 1465 c 1,141,-1
 663 1708 l 1,105,-1
337 1368 m 0,142,143
 344 1368 344 1368 353 1365 c 0,144,145
 388 1339 388 1339 457 1231.5 c 128,-1,146
 526 1124 526 1124 557 1093 c 1,147,148
 557 1075 557 1075 521 1051 c 1,149,150
 502 1087 502 1087 407 1180 c 128,-1,151
 312 1273 312 1273 289 1315 c 1,152,153
 293 1340 293 1340 306 1354 c 128,-1,154
 319 1368 319 1368 337 1368 c 0,142,143
900 1580 m 2,155,156
 926 1580 926 1580 927 1540 c 0,157,158
 930 1499 930 1499 919 1460 c 0,159,160
 907 1422 907 1422 925 1397 c 0,161,162
 943 1374 943 1374 973 1374 c 0,163,164
 976 1374 976 1374 978 1375 c 2,165,-1
 1006 1337 l 2,166,167
 1043 1292 1043 1292 1114 1291 c 0,168,169
 1186 1290 1186 1290 1300 1036 c 0,170,171
 1413 781 1413 781 1400 748 c 0,172,173
 1391 724 1391 724 1373 724 c 0,174,175
 1365 724 1365 724 1355 729 c 0,176,177
 1319 747 1319 747 1194 850 c 0,178,179
 1068 953 1068 953 1016 1031 c 0,180,181
 966 1107 966 1107 1077 1147 c 0,182,183
 1189 1187 1189 1187 1119 1259 c 1,184,185
 1077 1277 1077 1277 1033 1277 c 0,186,187
 977 1277 977 1277 920 1249 c 1,188,189
 900 1309 900 1309 870 1309 c 0,190,191
 857 1309 857 1309 842 1297 c 0,192,193
 817 1278 817 1278 799 1278 c 128,-1,194
 781 1278 781 1278 770 1295 c 1,195,196
 791 1323 791 1323 777 1330 c 0,197,198
 771 1332 771 1332 767 1332 c 0,199,200
 754 1332 754 1332 736 1323 c 1,201,202
 741 1349 741 1349 717 1349 c 2,203,-1
 710 1349 l 1,204,-1
 710 1438 l 1,205,206
 723 1475 723 1475 819 1480 c 1,207,208
 823 1493 823 1493 793 1495 c 2,209,-1
 787 1495 l 2,210,211
 740 1493 740 1493 708 1470 c 1,212,213
 708 1510 708 1510 724 1517 c 0,214,215
 744 1525 744 1525 827 1535 c 1,216,217
 832 1531 832 1531 838 1531 c 0,218,219
 850 1531 850 1531 857 1549 c 0,220,221
 869 1577 869 1577 897 1580 c 2,222,-1
 900 1580 l 2,155,156
1560 852 m 0,223,224
 1563 852 1563 852 1567 850 c 0,225,226
 1575 844 1575 844 1577.5 836 c 128,-1,227
 1580 828 1580 828 1576 819.5 c 128,-1,228
 1572 811 1572 811 1565.5 802.5 c 128,-1,229
 1559 794 1559 794 1550 785.5 c 128,-1,230
 1541 777 1541 777 1533.5 770 c 128,-1,231
 1526 763 1526 763 1518.5 756.5 c 128,-1,232
 1511 750 1511 750 1508 747 c 0,233,234
 1506 742 1506 742 1509 742 c 0,235,236
 1510 742 1510 742 1518 743.5 c 128,-1,237
 1526 745 1526 745 1531 745 c 0,238,239
 1542 745 1542 745 1550 740 c 0,240,241
 1558 739 1558 739 1571.5 713.5 c 128,-1,242
 1585 688 1585 688 1603.5 647.5 c 128,-1,243
 1622 607 1622 607 1632 590 c 1,244,245
 1628 588 1628 588 1585 565 c 1,246,-1
 1536 698 l 2,247,248
 1526 723 1526 723 1511.5 729 c 128,-1,249
 1497 735 1497 735 1493 743 c 0,250,251
 1487 756 1487 756 1486.5 768 c 128,-1,252
 1486 780 1486 780 1491 790 c 128,-1,253
 1496 800 1496 800 1502 807 c 128,-1,254
 1508 814 1508 814 1515 821 c 128,-1,255
 1522 828 1522 828 1524 830 c 0,256,257
 1526 831 1526 831 1540 841.5 c 128,-1,258
 1554 852 1554 852 1560 852 c 0,223,224
995 604 m 0,259,260
 1116 604 1116 604 1197 598 c 1,261,262
 1060 506 1060 506 956 419 c 1,263,264
 734 481 734 481 714 568 c 1,265,266
 714 600 714 600 900 603 c 0,267,268
 917 603 917 603 948.5 603.5 c 128,-1,269
 980 604 980 604 995 604 c 0,259,260
1497 671 m 1,270,271
 1545 588 1545 588 1530 517 c 0,272,273
 1517 445 1517 445 1387 430 c 0,274,275
 1260 415 1260 415 1107 338 c 0,276,277
 956 259 956 259 956 236 c 1,278,279
 950 206 950 206 970 206 c 0,280,281
 986 206 986 206 1014 222 c 0,282,283
 1105 263 1105 263 1116 263 c 0,284,285
 1119 263 1119 263 1127 260.5 c 128,-1,286
 1135 258 1135 258 1147 257 c 0,287,288
 1148 254 1148 254 1151 248.5 c 128,-1,289
 1154 243 1154 243 1154 241 c 128,-1,290
 1154 239 1154 239 1152 234.5 c 128,-1,291
 1150 230 1150 230 1145 224 c 2,292,-1
 879 72 l 2,293,294
 877 71 877 71 873 71 c 0,295,296
 811 71 811 71 805 117 c 0,297,298
 805 140 805 140 871 221 c 0,299,300
 939 306 939 306 1136 472 c 0,301,302
 1335 639 1335 639 1497 671 c 1,270,271
839 1947 m 1,303,-1
 368 1532 l 1,304,305
 272 1532 272 1532 243 1446 c 1,306,307
 159 1446 159 1446 129 1340 c 1,308,-1
 0 1230 l 1,309,-1
 35 1176 l 1,310,-1
 162 1283 l 1,311,312
 193 1246 193 1246 229 1234 c 1,313,314
 270 1202 270 1202 341.5 1097 c 128,-1,315
 413 992 413 992 466 942 c 0,316,317
 497 911 497 911 523 911 c 0,318,319
 541 911 541 911 557 924 c 1,320,321
 704 988 704 988 821 1069 c 1,322,323
 836 1073 836 1073 853 1073 c 0,324,325
 924 1073 924 1073 987 986 c 0,326,327
 1064 879 1064 879 1156 815 c 0,328,329
 1248 750 1248 750 1248 705 c 0,330,331
 1248 670 1248 670 1205 661 c 1,332,333
 1051 676 1051 676 939 676 c 0,334,335
 656 676 656 676 652 582 c 1,336,337
 638 520 638 520 701.5 465.5 c 128,-1,338
 765 411 765 411 905 365 c 1,339,340
 741 167 741 167 740 121 c 0,341,342
 737 75 737 75 764 36 c 1,343,344
 788 12 788 12 830 12 c 0,345,346
 938 12 938 12 1159 163 c 1,347,348
 1196 145 1196 145 1196 115 c 0,349,350
 1194 85 1194 85 1156 73 c 0,351,352
 1117 60 1117 60 1092 30 c 0,353,354
 1080 15 1080 15 1089 7.5 c 128,-1,355
 1098 0 1098 0 1129 0 c 2,356,-1
 1214 0 l 2,357,358
 1284 0 1284 0 1276 155 c 0,359,360
 1276 202 1276 202 1330 211 c 1,361,362
 1382 228 1382 228 1361 296 c 1,363,-1
 1431 300 l 1,364,365
 1478 294 1478 294 1493 253 c 0,366,367
 1507 212 1507 212 1505 152 c 0,368,369
 1505 92 1505 92 1474 69 c 0,370,371
 1443 45 1443 45 1443 23 c 0,372,373
 1443 0 1443 0 1514 0 c 0,374,375
 1565 0 1565 0 1576 11 c 0,376,377
 1585 20 1585 20 1590 44 c 2,378,-1
 1591 57 l 2,379,380
 1592 70 1592 70 1594 100.5 c 128,-1,381
 1596 131 1596 131 1598 167 c 1,382,383
 1590 273 1590 273 1646 312 c 1,384,385
 1679 379 1679 379 1600 421 c 1,386,387
 1562 485 1562 485 1602 530 c 1,388,-1
 1677 576 l 1,389,-1
 1580 761 l 1,390,391
 1658 836 1658 836 1592 884 c 0,392,393
 1582 890 1582 890 1569 890 c 0,394,395
 1523 890 1523 890 1449 804 c 1,396,397
 1338 1107 1338 1107 1268 1226 c 0,398,399
 1195 1347 1195 1347 1048 1353 c 1,400,-1
 1014 1422 l 1,401,402
 1056 1487 1056 1487 1059 1556 c 0,403,404
 1062 1627 1062 1627 1017 1687 c 0,405,406
 978 1739 978 1739 911 1739 c 0,407,408
 897 1739 897 1739 889 1738 c 0,409,410
 851 1734 851 1734 810 1716 c 1,411,-1
 810 1716 l 1,412,-1
 764 1806 l 1,413,-1
 869 1899 l 1,414,-1
 839 1947 l 1,303,-1
EndSplineSet
EndChar

StartChar: u13012
Encoding: 77842 77842 21
Width: 1998
GlyphClass: 2
Flags: W
LayerCount: 2
Fore
SplineSet
167 825 m 2,0,1
 181 825 181 825 194 818 c 0,2,3
 208 810 208 810 216 800 c 0,4,5
 219 795 219 795 216 795 c 128,-1,6
 213 795 213 795 207 798 c 128,-1,7
 201 801 201 801 198 801 c 128,-1,8
 195 801 195 801 198 796 c 0,9,10
 202 790 202 790 198 790 c 256,11,12
 194 790 194 790 192 791 c 0,13,14
 180 795 180 795 165 805 c 1,15,16
 150 825 150 825 164 825 c 2,17,-1
 167 825 l 2,0,1
228 790 m 0,18,19
 230 790 230 790 232 788 c 0,20,21
 238 782 238 782 232 778 c 0,22,23
 231 777 231 777 228 777 c 0,24,25
 224 777 224 777 220 783 c 1,26,27
 224 790 224 790 228 790 c 0,18,19
160 839 m 0,28,29
 149 839 149 839 144 835 c 0,30,31
 135 829 135 829 143 812 c 0,32,33
 152 796 152 796 175 785 c 0,34,35
 188 779 188 779 197 779 c 0,36,37
 205 779 205 779 209 783 c 1,38,39
 215 770 215 770 228 768 c 2,40,-1
 229 768 l 2,41,42
 240 768 240 768 242 780 c 0,43,44
 244 794 244 794 219 813 c 256,45,46
 194 832 194 832 174 837 c 0,47,48
 169 839 169 839 160 839 c 0,28,29
135 921 m 0,49,50
 188 921 188 921 239 876 c 0,51,52
 277 841 277 841 265 841 c 0,53,54
 258 841 258 841 230 855 c 0,55,56
 186 877 186 877 154 877 c 0,57,58
 136 877 136 877 120 869 c 0,59,60
 82 848 82 848 115 772 c 1,61,62
 106 700 106 700 84 700 c 0,63,64
 76 700 76 700 68 707 c 0,65,66
 32 737 32 737 37 821 c 0,67,68
 43 906 43 906 109 918 c 0,69,70
 123 921 123 921 135 921 c 0,49,50
1224 974 m 0,71,72
 1278 974 1278 974 1317 971 c 0,73,74
 1340 967 1340 967 1340 890 c 0,75,76
 1339 820 1339 820 1345 699 c 1,77,78
 1201 704 1201 704 1087 732 c 0,79,80
 973 761 973 761 923 824 c 0,81,82
 922 825 922 825 919.5 829 c 128,-1,83
 917 833 917 833 912.5 841 c 128,-1,84
 908 849 908 849 903 857 c 0,85,86
 890 876 890 876 890 890 c 0,87,88
 890 908 890 908 905 923 c 0,89,90
 936 947 936 947 1100 971 c 1,91,92
 1171 974 1171 974 1224 974 c 0,71,72
205 713 m 1,93,94
 219 692 219 692 220 675 c 1,95,96
 214 688 214 688 208 688 c 0,97,98
 203 688 203 688 198 680 c 1,99,100
 202 702 202 702 205 713 c 1,93,94
220 675 m 1,101,102
 225 657 225 657 213 647 c 1,103,104
 198 656 198 656 200 662 c 1,105,-1
 200 662 l 1,106,107
 208 660 208 660 210 660 c 0,108,109
 220 660 220 660 220 675 c 1,101,102
203 759 m 1,110,-1
 194 756 l 1,111,-1
 198 726 l 1,112,113
 181 687 181 687 187 664 c 0,114,115
 195 642 195 642 222 632 c 1,116,117
 240 661 240 661 233 683 c 0,118,119
 227 705 227 705 207 728 c 1,120,-1
 203 759 l 1,110,-1
589 960 m 0,121,122
 618 960 618 960 645 953 c 0,123,124
 777 923 777 923 824 907 c 1,125,126
 870 877 870 877 879 750 c 1,127,128
 718 727 718 727 644 695 c 0,129,130
 610 680 610 680 587 680 c 0,131,132
 560 680 560 680 548 703 c 2,133,-1
 478 844 l 1,134,135
 454 862 454 862 438 862 c 0,136,137
 401 862 401 862 404 763 c 1,138,-1
 404 763 l 1,139,140
 365 757 365 757 349.5 742 c 128,-1,141
 334 727 334 727 342 704 c 0,142,143
 357 653 357 653 323 649 c 1,144,145
 311 667 311 667 304 667 c 0,146,147
 300 667 300 667 299 663 c 0,148,149
 292 652 292 652 292 629 c 1,150,151
 287 633 287 633 282 633 c 0,152,153
 270 633 270 633 264 614 c 1,154,-1
 194 643 l 1,155,156
 168 664 168 664 189 737 c 1,157,158
 186 744 186 744 183 744 c 0,159,160
 176 744 176 744 170 719 c 0,161,162
 159 684 159 684 167 647 c 1,163,164
 134 661 134 661 134 675 c 0,165,166
 132 692 132 692 150 761 c 1,167,168
 165 770 165 770 147 789 c 0,169,170
 128 808 128 808 134 833 c 0,171,172
 137 850 137 850 156 850 c 0,173,174
 161 850 161 850 175 846 c 0,175,176
 211 836 211 836 238 813 c 0,177,178
 259 797 259 797 276 797 c 0,179,180
 281 797 281 797 289 799 c 0,181,182
 313 806 313 806 321 837 c 1,183,184
 372 841 372 841 417 883 c 0,185,186
 496 960 496 960 589 960 c 0,121,122
1627 1046 m 0,187,188
 1550 1046 1550 1046 1516 1026 c 1,189,190
 1450 1019 1450 1019 1308 1019 c 0,191,192
 1156 1018 1156 1018 1085 1006 c 1,193,-1
 1080 1006 l 2,194,195
 1027 1006 1027 1006 842 953 c 1,196,197
 691 992 691 992 581 1006 c 0,198,199
 561 1008 561 1008 552 1008 c 0,200,201
 455 1008 455 1008 386 918 c 1,202,203
 352 881 352 881 292 875 c 1,204,205
 253 929 253 929 197 952 c 0,206,207
 167 965 167 965 134 965 c 0,208,209
 110 965 110 965 81 957 c 0,210,211
 21 937 21 937 6 868 c 0,212,213
 -10 798 -10 798 18 729 c 0,214,215
 45 659 45 659 150 619 c 1,216,217
 181 612 181 612 266 573 c 0,218,219
 270 572 270 572 277 572 c 0,220,221
 285 572 285 572 289 575 c 128,-1,222
 293 578 293 578 291 583 c 0,223,224
 288 599 288 599 294 605 c 1,225,226
 301 600 301 600 306 600 c 2,227,-1
 308 600 l 2,228,229
 309 601 309 601 310 601 c 0,230,231
 319 602 319 602 316 610 c 2,232,-1
 316 614 l 1,233,234
 318 614 318 614 321 611 c 0,235,236
 324 607 324 607 328 607 c 128,-1,237
 332 607 332 607 339 612 c 0,238,239
 350 620 350 620 370 625 c 0,240,241
 389 630 389 630 386 650 c 0,242,243
 385 668 385 668 375 702 c 1,244,-1
 419 710 l 1,245,246
 443 610 443 610 566 505 c 1,247,248
 446 432 446 432 310 303 c 1,249,-1
 304 303 l 2,250,251
 194 303 194 303 135 222 c 1,252,253
 102 192 102 192 99 182 c 0,254,255
 95 172 95 172 104 170 c 1,256,257
 104 157 104 157 115 157 c 1,258,259
 115 148 115 148 128 148 c 1,260,261
 128 134 128 134 132 134 c 2,262,-1
 133 134 l 2,263,264
 138 134 138 134 146 141 c 0,265,266
 233 232 233 232 268 235 c 0,267,268
 271 236 271 236 274 236 c 0,269,270
 283 236 283 236 273 222 c 1,271,272
 215 192 215 192 211 176 c 0,273,274
 205 161 205 161 216 161 c 0,275,276
 217 161 217 161 227 163 c 1,277,278
 243 182 243 182 281 198 c 0,279,280
 319 215 319 215 335 237 c 0,281,282
 349 258 349 258 354 270 c 1,283,284
 440 301 440 301 601 426 c 1,285,-1
 634 356 l 1,286,287
 526 291 526 291 393 170 c 1,288,-1
 393 170 l 1,289,-1
 389 170 l 2,290,291
 280 170 280 170 220 87 c 1,292,293
 187 58 187 58 184 48 c 0,294,295
 181 39 181 39 189 36 c 1,296,297
 189 23 189 23 200 23 c 1,298,299
 200 12 200 12 211 12 c 1,300,301
 211 2 211 2 217 0 c 2,302,-1
 218 0 l 2,303,304
 223 0 223 0 231 8 c 0,305,306
 316 97 316 97 354 102 c 0,307,308
 355 102 355 102 356.5 102.5 c 128,-1,309
 358 103 358 103 359 103 c 0,310,311
 369 103 369 103 358 87 c 1,312,313
 302 59 302 59 297 41 c 0,314,315
 291 26 291 26 300 26 c 0,316,317
 305 26 305 26 312 30 c 0,318,319
 328 48 328 48 367 65 c 128,-1,320
 406 82 406 82 420 103 c 0,321,322
 434 123 434 123 439 137 c 1,323,324
 620 213 620 213 726 319 c 1,325,326
 737 354 737 354 705 426 c 2,327,-1
 657 534 l 2,328,329
 641 569 641 569 610 614 c 1,330,331
 640 645 640 645 696 662 c 0,332,333
 749 679 749 679 879 693 c 1,334,335
 886 629 886 629 913 629 c 2,336,-1
 916 629 l 1,337,-1
 922 629 l 2,338,339
 944 629 944 629 949 658 c 1,340,-1
 1034 625 l 1,341,-1
 1036 695 l 1,342,343
 1100 673 1100 673 1175 654 c 0,344,345
 1249 634 1249 634 1352 634 c 1,346,347
 1464 625 1464 625 1518 622 c 0,348,349
 1538 620 1538 620 1585 620 c 0,350,351
 1618 620 1618 620 1636 621 c 2,352,-1
 1646 621 l 2,353,354
 1672 621 1672 621 1722 610 c 0,355,356
 1798 591 1798 591 1842 579 c 1,357,358
 1877 550 1877 550 1896 458 c 0,359,360
 1914 367 1914 367 1936 338 c 1,361,362
 1956 338 1956 338 1984 386 c 0,363,364
 2013 436 2013 436 1982 509 c 0,365,366
 1951 587 1951 587 1951 616 c 0,367,368
 1951 663 1951 663 1900 663 c 0,369,370
 1876 663 1876 663 1842 654 c 1,371,372
 1641 741 1641 741 1545 741 c 0,373,374
 1534 741 1534 741 1518 739 c 1,375,376
 1426 774 1426 774 1385 780 c 1,377,-1
 1382 879 l 1,378,379
 1460 890 1460 890 1536 921 c 1,380,381
 1792 953 1792 953 1822 956 c 1,382,383
 1896 891 1896 891 1916 807 c 0,384,385
 1937 732 1937 732 1961 732 c 2,386,-1
 1965 732 l 1,387,388
 2013 792 2013 792 1989 874 c 0,389,390
 1963 960 1963 960 1954 1002 c 0,391,392
 1945 1036 1945 1036 1915 1036 c 0,393,394
 1904 1036 1904 1036 1892 1032 c 0,395,396
 1860 1028 1860 1028 1814 1028 c 1,397,398
 1700 1046 1700 1046 1627 1046 c 0,187,188
EndSplineSet
EndChar

StartChar: u13013
Encoding: 77843 77843 22
Width: 1484
GlyphClass: 2
Flags: W
LayerCount: 2
Fore
SplineSet
537 1815 m 0,0,1
 539 1815 539 1815 542 1812 c 0,2,3
 556 1798 556 1798 559 1781 c 0,4,5
 562 1762 562 1762 559 1750 c 0,6,7
 558 1744 558 1744 555 1744 c 0,8,9
 550 1744 550 1744 549 1753 c 2,10,-1
 544 1767 l 1,11,-1
 542 1764 l 2,12,13
 539 1759 539 1759 536 1759 c 0,14,15
 531 1759 531 1759 528 1767 c 0,16,17
 521 1781 521 1781 521 1795 c 1,18,19
 525 1808 525 1808 531 1812 c 0,20,21
 534 1815 534 1815 537 1815 c 0,0,1
524 1945 m 0,22,23
 554 1945 554 1945 583 1924 c 0,24,25
 646 1877 646 1877 642 1785 c 0,26,27
 641 1736 641 1736 634 1736 c 0,28,29
 628 1736 628 1736 618 1778 c 0,30,31
 597 1865 597 1865 549 1882 c 0,32,33
 540 1885 540 1885 532 1885 c 0,34,35
 491 1885 491 1885 455 1816 c 1,36,37
 405 1785 405 1785 381 1785 c 0,38,39
 361 1785 361 1785 361 1809 c 0,40,41
 361 1862 361 1862 441 1917 c 0,42,43
 479 1942 479 1942 517 1944 c 0,44,45
 520 1945 520 1945 524 1945 c 0,22,23
555 1736 m 2,46,-1
 556 1736 l 2,47,48
 559 1734 559 1734 559 1729 c 0,49,50
 559 1722 559 1722 554 1722 c 2,51,-1
 552 1722 l 2,52,53
 544 1724 544 1724 545 1733 c 0,54,55
 546 1733 546 1733 549.5 1734.5 c 128,-1,56
 553 1736 553 1736 555 1736 c 2,46,-1
532 1837 m 2,57,58
 522 1837 522 1837 514 1819 c 0,59,60
 507 1802 507 1802 514 1774 c 0,61,62
 522 1747 522 1747 535 1747 c 1,63,64
 528 1732 528 1732 538 1719 c 0,65,66
 542 1712 542 1712 549 1712 c 0,67,68
 553 1712 553 1712 559 1715 c 0,69,70
 574 1725 574 1725 573 1757 c 0,71,72
 572 1792 572 1792 559 1812 c 0,73,74
 546 1834 546 1834 535 1837 c 2,75,-1
 532 1837 l 2,57,58
469 1698 m 1,76,77
 462 1677 462 1677 444 1656 c 1,78,79
 454 1681 454 1681 435 1681 c 2,80,-1
 431 1681 l 1,81,82
 436 1683 436 1683 449.5 1689 c 128,-1,83
 463 1695 463 1695 469 1698 c 1,76,77
417 1663 m 1,84,85
 420 1650 420 1650 429 1650 c 0,86,87
 436 1650 436 1650 444 1656 c 1,88,-1
 444 1656 l 1,89,90
 435 1642 435 1642 423 1642 c 2,91,-1
 417 1642 l 1,92,93
 414 1660 414 1660 417 1663 c 1,84,85
408 1627 m 1,94,-1
 408 1627 l 1,95,-1
 408 1627 l 1,96,-1
 408 1627 l 1,94,-1
538 1847 m 1,97,-1
 538 1847 l 1,98,99
 557 1847 557 1847 569 1819 c 0,100,101
 587 1782 587 1782 587 1743 c 0,102,103
 587 1701 587 1701 611 1681 c 0,104,105
 625 1668 625 1668 639 1668 c 0,106,107
 650 1668 650 1668 660 1677 c 1,108,109
 705 1623 705 1623 782 1623 c 0,110,111
 804 1623 804 1623 816 1625 c 0,112,113
 818 1625 818 1625 821 1625.5 c 128,-1,114
 824 1626 824 1626 825 1626 c 0,115,116
 927 1626 927 1626 1170 1337 c 1,117,-1
 1062 1201 l 1,118,119
 807 1378 807 1378 690 1378 c 0,120,121
 675 1378 675 1378 663 1375 c 0,122,123
 638 1369 638 1369 620 1369 c 0,124,125
 568 1369 568 1369 604 1431 c 1,126,127
 666 1517 666 1517 635 1562 c 0,128,129
 620 1586 620 1586 603 1586 c 0,130,131
 589 1586 589 1586 569 1566 c 0,132,133
 545 1539 545 1539 524 1539 c 0,134,135
 511 1539 511 1539 500 1549 c 1,136,137
 509 1580 509 1580 495 1580 c 2,138,-1
 493 1580 l 2,139,140
 479 1577 479 1577 458 1559 c 1,141,142
 456 1578 456 1578 442 1578 c 0,143,144
 436 1578 436 1578 424 1573 c 1,145,-1
 410 1622 l 1,146,147
 444 1626 444 1626 462 1649 c 0,148,149
 482 1679 482 1679 486 1705 c 1,150,-1
 507 1733 l 1,151,-1
 500 1740 l 1,152,-1
 476 1712 l 1,153,154
 422 1694 422 1694 410 1677 c 0,155,156
 395 1658 395 1658 408 1627 c 1,157,-1
 408 1627 l 1,158,-1
 396 1656 l 1,159,160
 396 1695 396 1695 476 1729 c 1,161,162
 483 1740 483 1740 474 1740 c 0,163,164
 466 1740 466 1740 448 1733 c 0,165,166
 406 1715 406 1715 382 1684 c 1,167,168
 368 1723 368 1723 378 1733 c 0,169,170
 397 1748 397 1748 472 1781 c 1,171,172
 478 1779 478 1779 480 1779 c 0,173,174
 492 1779 492 1779 493 1802 c 0,175,176
 496 1831 496 1831 524 1844 c 0,177,178
 531 1847 531 1847 538 1847 c 1,97,-1
1208 1264 m 1,179,180
 1352 1120 1352 1120 1382 667 c 1,181,-1
 1028 667 l 1,182,183
 1093 922 1093 922 1090 1160 c 1,184,-1
 1208 1264 l 1,179,180
533 1997 m 2,185,186
 500 1997 500 1997 462 1979 c 0,187,188
 382 1942 382 1942 340 1868 c 0,189,190
 301 1797 301 1797 340 1677 c 1,191,192
 358 1644 358 1644 382 1545 c 1,193,194
 398 1524 398 1524 409 1524 c 0,195,196
 414 1524 414 1524 417 1528 c 0,197,198
 431 1544 431 1544 438 1545 c 1,199,200
 438 1534 438 1534 444 1528 c 0,201,202
 448 1525 448 1525 452 1525 c 256,203,204
 456 1525 456 1525 458 1528 c 0,205,206
 461 1531 461 1531 462 1531 c 1,207,-1
 462 1524 l 2,208,209
 461 1519 461 1519 465.5 1515.5 c 128,-1,210
 470 1512 470 1512 479 1510 c 0,211,212
 492 1507 492 1507 514 1490 c 0,213,214
 520 1484 520 1484 528 1484 c 0,215,216
 539 1484 539 1484 552 1497 c 0,217,218
 578 1521 578 1521 590 1538 c 0,219,220
 591 1538 591 1538 592 1538 c 2,221,-1
 594 1539 l 2,222,223
 602 1539 602 1539 597 1528 c 1,224,225
 508 1440 508 1440 500 1358 c 1,226,227
 439 1208 439 1208 424 1142 c 1,228,229
 384 1106 384 1106 247 993 c 0,230,231
 243 993 243 993 236.5 993.5 c 128,-1,232
 230 994 230 994 227 994 c 0,233,234
 196 994 196 994 167 986 c 0,235,236
 138 979 138 979 108 962 c 0,237,238
 84 948 84 948 59 913 c 0,239,240
 34 879 34 879 7 858 c 1,241,242
 0 846 0 846 0 840 c 0,243,244
 0 833 0 833 14 833 c 1,245,246
 8 818 8 818 15 818 c 0,247,248
 16 818 16 818 17.5 818.5 c 128,-1,249
 19 819 19 819 21 819 c 1,250,-1
 21 819 l 1,251,252
 18 804 18 804 28 804 c 0,253,254
 29 804 29 804 35 806 c 1,255,-1
 35 806 l 1,256,257
 31 796 31 796 35 792 c 0,258,259
 37 790 37 790 38 790 c 0,260,261
 41 790 41 790 49 795 c 0,262,263
 100 853 100 853 104 858 c 0,264,265
 123 880 123 880 174 906 c 1,266,-1
 175 906 l 1,267,-1
 177 906 l 1,268,-1
 177 906 l 1,269,270
 182 894 182 894 184 892 c 2,271,-1
 184 891 l 2,272,273
 184 890 184 890 184 889 c 0,274,275
 173 879 173 879 149 868 c 0,276,277
 126 857 126 857 118 844 c 0,278,279
 110 832 110 832 122 823 c 0,280,281
 124 820 124 820 127 820 c 0,282,283
 133 820 133 820 146 833 c 0,284,285
 163 850 163 850 205 865 c 0,286,287
 235 876 235 876 257 910 c 1,288,289
 390 983 390 983 458 1052 c 1,290,291
 529 1118 529 1118 615 1306 c 1,292,-1
 615 1306 l 1,293,294
 584 1150 584 1150 552 1059 c 1,295,-1
 392 906 l 1,296,297
 356 903 356 903 326 892 c 0,298,299
 290 880 290 880 267 865 c 0,300,301
 247 850 247 850 226 816 c 0,302,303
 196 771 196 771 177 753 c 0,304,305
 173 745 173 745 174 740 c 0,306,307
 174 733 174 733 182 733 c 2,308,-1
 184 733 l 1,309,-1
 184 733 l 1,310,311
 179 717 179 717 188 717 c 0,312,313
 190 717 190 717 194 719 c 1,314,-1
 194 719 l 1,315,316
 192 703 192 703 202 703 c 0,317,318
 204 703 204 703 208 705 c 1,319,-1
 208 705 l 1,320,321
 207 699 207 699 212 694 c 0,322,323
 213 693 213 693 216 693 c 0,324,325
 221 693 221 693 226 698 c 0,326,327
 249 727 249 727 274 764 c 0,328,329
 286 781 286 781 340 816 c 0,330,331
 343 815 343 815 349 812.5 c 128,-1,332
 355 810 355 810 358 809 c 0,333,334
 358 808 358 808 356.5 806 c 128,-1,335
 355 804 355 804 354 802 c 0,336,337
 341 790 341 790 319 778 c 0,338,339
 297 763 297 763 292 753 c 0,340,341
 283 740 283 740 295 733 c 0,342,343
 298 730 298 730 301 730 c 0,344,345
 309 730 309 730 319 743 c 0,346,347
 333 759 333 759 375 778 c 0,348,349
 405 791 405 791 427 833 c 1,350,351
 504 881 504 881 632 1003 c 1,352,353
 652 1016 652 1016 677 1076 c 0,354,355
 696 1119 696 1119 747 1306 c 1,356,357
 842 1291 842 1291 1042 1146 c 1,358,359
 1027 892 1027 892 969 660 c 1,360,361
 936 623 936 623 948 562 c 1,362,-1
 861 253 l 2,363,364
 834 152 834 152 795 135 c 0,365,366
 609 70 609 70 566 31 c 1,367,368
 557 0 557 0 584 0 c 0,369,370
 592 0 592 0 604 3 c 0,371,372
 640 1 640 1 656 1 c 0,373,374
 690 1 690 1 722 7 c 0,375,376
 790 20 790 20 872 24 c 1,377,378
 932 32 932 32 899 128 c 1,379,380
 1058 422 1058 422 1076 594 c 1,381,-1
 1326 594 l 1,382,383
 1381 304 1381 304 1389 153 c 1,384,385
 1364 112 1364 112 1260 101 c 0,386,387
 1160 89 1160 89 1160 38 c 1,388,389
 1145 20 1145 20 1185 12 c 0,390,391
 1201 8 1201 8 1226 7 c 1,392,393
 1330 24 1330 24 1354 24 c 0,394,395
 1385 24 1385 24 1448 17 c 1,396,397
 1505 24 1505 24 1462 135 c 1,398,399
 1513 503 1513 503 1448 594 c 1,400,401
 1440 934 1440 934 1375 1104 c 1,402,403
 1227 1399 1227 1399 1059 1549 c 0,404,405
 906 1685 906 1685 818 1685 c 0,406,407
 816 1685 816 1685 812 1684.5 c 128,-1,408
 808 1684 808 1684 806 1684 c 0,409,410
 786 1682 786 1682 778 1682 c 0,411,412
 711 1682 711 1682 684 1726 c 1,413,414
 701 1808 701 1808 681 1875 c 0,415,416
 661 1937 661 1937 601 1976 c 0,417,418
 567 1996 567 1996 535 1997 c 2,419,-1
 533 1997 l 2,185,186
EndSplineSet
EndChar

StartChar: u13014
Encoding: 77844 77844 23
Width: 1687
GlyphClass: 2
Flags: W
LayerCount: 2
Fore
SplineSet
1183 1808 m 1,0,-1
 1183 1808 l 1,1,-1
 1185 1808 l 1,2,3
 1172 1787 1172 1787 1195 1784 c 1,4,5
 1224 1791 1224 1791 1206 1808 c 1,6,-1
 1206 1808 l 1,7,8
 1213 1805 1213 1805 1243 1792 c 1,9,10
 1217 1784 1217 1784 1195 1784 c 0,11,12
 1194 1784 1194 1784 1192 1784 c 2,13,-1
 1190 1783 l 1,14,15
 1175 1783 1175 1783 1166 1794 c 1,16,17
 1175 1808 1175 1808 1183 1808 c 1,0,-1
1195 1821 m 1,18,-1
 1190 1821 l 2,19,20
 1164 1818 1164 1818 1148 1787 c 1,21,22
 1171 1765 1171 1765 1197 1765 c 0,23,24
 1200 1765 1200 1765 1202 1766 c 0,25,26
 1230 1768 1230 1768 1261 1787 c 1,27,-1
 1295 1787 l 1,28,-1
 1295 1797 l 1,29,-1
 1261 1797 l 1,30,31
 1220 1821 1220 1821 1195 1821 c 1,32,-1
 1195 1821 l 1,18,-1
1371 1825 m 1,33,34
 1382 1825 1382 1825 1380 1814 c 0,35,36
 1377 1796 1377 1796 1364 1783 c 0,37,38
 1350 1767 1350 1767 1339 1763 c 0,39,40
 1335 1761 1335 1761 1334 1761 c 0,41,42
 1330 1761 1330 1761 1339 1772 c 0,43,44
 1347 1783 1347 1783 1343 1783 c 2,45,-1
 1339 1783 l 2,46,47
 1337 1782 1337 1782 1335 1782 c 0,48,49
 1329 1782 1329 1782 1335 1793 c 0,50,51
 1342 1807 1342 1807 1353 1821 c 1,52,53
 1369 1825 1369 1825 1371 1825 c 1,54,-1
 1371 1825 l 1,33,34
1319 1763 m 1,55,56
 1333 1755 1333 1755 1324 1748 c 0,57,58
 1321 1745 1321 1745 1318 1745 c 128,-1,59
 1315 1745 1315 1745 1313 1750 c 0,60,61
 1309 1757 1309 1757 1319 1763 c 1,55,56
1380 1843 m 1,62,63
 1377 1843 1377 1843 1367 1841 c 0,64,65
 1344 1833 1344 1833 1330 1810 c 0,66,67
 1314 1787 1314 1787 1322 1776 c 1,68,69
 1307 1769 1307 1769 1302 1756 c 0,70,71
 1298 1744 1298 1744 1313 1738 c 0,72,73
 1315 1737 1315 1737 1319 1737 c 0,74,75
 1332 1737 1332 1737 1355 1758 c 0,76,77
 1382 1784 1382 1784 1390 1804 c 0,78,79
 1398 1821 1398 1821 1393 1835 c 0,80,81
 1390 1843 1390 1843 1380 1843 c 1,82,-1
 1380 1843 l 1,62,63
1335 1965 m 2,83,84
 1364 1965 1364 1965 1401 1956 c 0,85,86
 1496 1933 1496 1933 1497 1859 c 0,87,88
 1498 1784 1498 1784 1421 1725 c 0,89,90
 1385 1698 1385 1698 1378 1698 c 0,91,92
 1369 1698 1369 1698 1399 1738 c 0,93,94
 1456 1810 1456 1810 1439 1856 c 0,95,96
 1427 1887 1427 1887 1383 1887 c 0,97,98
 1362 1887 1362 1887 1327 1879 c 1,99,100
 1221 1908 1221 1908 1264 1943 c 0,101,102
 1291 1965 1291 1965 1332 1965 c 2,103,-1
 1335 1965 l 2,83,84
1101 1671 m 1,104,105
 1101 1669 1101 1669 1103 1663 c 0,106,107
 1109 1650 1109 1650 1109 1630 c 256,108,109
 1109 1610 1109 1610 1134 1606 c 0,110,111
 1148 1604 1148 1604 1157 1604 c 0,112,113
 1174 1604 1174 1604 1195 1607 c 1,114,-1
 1195 1607 l 1,115,116
 1208 1556 1208 1556 1182 1556 c 2,117,-1
 1178 1556 l 2,118,119
 1175 1557 1175 1557 1167 1557 c 0,120,121
 1129 1557 1129 1557 1080 1534 c 1,122,-1
 773 1309 l 1,123,-1
 883 1562 l 1,124,125
 899 1567 899 1567 927.5 1578.5 c 128,-1,126
 956 1590 956 1590 979 1598 c 128,-1,127
 1002 1606 1002 1606 1022 1609 c 0,128,129
 1031 1610 1031 1610 1033.5 1620 c 128,-1,130
 1036 1630 1036 1630 1034.5 1642 c 128,-1,131
 1033 1654 1033 1654 1035 1665 c 0,132,133
 1037 1665 1037 1665 1048 1666 c 128,-1,134
 1059 1667 1059 1667 1075 1668.5 c 128,-1,135
 1091 1670 1091 1670 1101 1671 c 1,104,105
1211 1877 m 1,136,-1
 1211 1877 l 1,137,-1
 1213 1877 l 2,138,139
 1230 1877 1230 1877 1309 1844 c 1,140,141
 1314 1833 1314 1833 1323 1833 c 128,-1,142
 1332 1833 1332 1833 1343 1841 c 0,143,144
 1359 1851 1359 1851 1375 1851 c 0,145,146
 1386 1851 1386 1851 1394 1847 c 0,147,148
 1419 1837 1419 1837 1401 1800 c 0,149,150
 1384 1766 1384 1766 1352 1738 c 0,151,152
 1322 1712 1322 1712 1326 1684 c 0,153,154
 1329 1656 1329 1656 1361 1642 c 1,155,156
 1370 1594 1370 1594 1405 1563 c 0,157,158
 1440 1531 1440 1531 1527 1492 c 1,159,160
 1390 1259 1390 1259 1390 1157 c 1,161,162
 1395 1134 1395 1134 1401 1101 c 0,163,164
 1423 983 1423 983 1427 931 c 0,165,166
 1430 903 1430 903 1417 881 c 0,167,168
 1392 841 1392 841 1167 841 c 2,169,-1
 1138 841 l 1,170,171
 1018 829 1018 829 877 829 c 0,172,173
 764 829 764 829 653 836 c 1,174,175
 681 922 681 922 956 954 c 1,176,177
 1227 954 1227 954 1227 1115 c 0,178,179
 1227 1226 1227 1226 1109 1471 c 1,180,181
 1185 1492 1185 1492 1216.5 1515 c 128,-1,182
 1248 1538 1248 1538 1235 1563 c 1,183,184
 1245 1636 1245 1636 1198 1642 c 0,185,186
 1194 1641 1194 1641 1186 1641 c 0,187,188
 1144 1641 1144 1641 1138 1673 c 1,189,190
 1177 1689 1177 1689 1166 1700 c 0,191,192
 1156 1710 1156 1710 1130 1713 c 1,193,194
 1149 1732 1149 1732 1116 1747 c 1,195,-1
 1164 1821 l 1,196,197
 1176 1830 1176 1830 1195 1830 c 0,198,199
 1227 1830 1227 1830 1272 1808 c 1,200,201
 1298 1810 1298 1810 1264 1827 c 0,202,203
 1261 1828 1261 1828 1257 1830 c 0,204,205
 1223 1847 1223 1847 1186 1847 c 2,206,-1
 1177 1847 l 1,207,208
 1195 1877 1195 1877 1211 1877 c 1,136,-1
1357 2000 m 1,209,210
 1332 2000 1332 2000 1299 1995 c 0,211,212
 1214 1979 1214 1979 1145 1871 c 1,213,214
 1132 1835 1132 1835 1069 1755 c 1,215,216
 1058 1722 1058 1722 1076 1722 c 2,217,-1
 1077 1722 l 1,218,-1
 1082 1722 l 2,219,220
 1097 1722 1097 1722 1103 1715 c 1,221,222
 1094 1709 1094 1709 1094 1701 c 1,223,-1
 1029 1702 l 1,224,225
 951 1699 951 1699 869 1635 c 1,226,227
 664 1460 664 1460 667 1220 c 0,228,229
 667 1189 667 1189 701 1189 c 0,230,231
 709 1189 709 1189 713 1190 c 0,232,233
 721 1193 721 1193 828.5 1239 c 128,-1,234
 936 1285 936 1285 999 1313 c 128,-1,235
 1062 1341 1062 1341 1094 1359 c 1,236,237
 1153 1258 1153 1258 1153 1041 c 1,238,-1
 1043 1020 l 1,239,240
 642 981 642 981 579 894 c 1,241,242
 492 845 492 845 450 544 c 1,243,244
 387 227 387 227 213 215 c 1,245,-1
 18 141 l 1,246,-1
 0 107 l 1,247,248
 20 88 20 88 40 88 c 2,249,-1
 398 107 l 1,250,251
 434 227 434 227 544 408 c 0,252,253
 653 587 653 587 629 728 c 1,254,-1
 629 728 l 1,255,256
 678 558 678 558 721 265 c 0,257,258
 730 197 730 197 556 141 c 1,259,260
 477 135 477 135 477 91 c 1,261,-1
 748 101 l 2,262,263
 837 101 837 101 837 172 c 1,264,265
 809 236 809 236 831 431 c 0,266,267
 853 624 853 624 782 746 c 1,268,-1
 1245 765 l 1,269,270
 1472 765 1472 765 1472 881 c 1,271,-1
 1459 1139 l 1,272,273
 1459 1286 1459 1286 1538 1392 c 1,274,-1
 1593 1157 l 1,275,-1
 1514 794 l 1,276,277
 1490 756 1490 756 1481 724 c 0,278,279
 1472 691 1472 691 1469 665 c 0,280,281
 1469 644 1469 644 1481 608 c 0,282,283
 1493 574 1493 574 1496 541 c 1,284,285
 1501 533 1501 533 1506 531 c 2,286,-1
 1508 530 l 2,287,288
 1512 530 1512 530 1514 538 c 1,289,290
 1520 532 1520 532 1524 532 c 256,291,292
 1528 532 1528 532 1530 541 c 1,293,294
 1536 535 1536 535 1540 535 c 256,295,296
 1544 535 1544 535 1546 544 c 1,297,298
 1549 540 1549 540 1554 540 c 2,299,-1
 1556 540 l 2,300,301
 1561 541 1561 541 1561 554 c 0,302,303
 1543 617 1543 617 1542 621 c 0,304,305
 1535 644 1535 644 1540 696 c 0,306,307
 1543 710 1543 710 1546 710 c 0,308,309
 1551 710 1551 710 1556 702 c 0,310,311
 1556 697 1556 697 1554 665 c 0,312,313
 1551 641 1551 641 1557 628 c 0,314,315
 1561 620 1561 620 1567 620 c 0,316,317
 1570 620 1570 620 1575 623 c 0,318,319
 1582 624 1582 624 1579 646 c 0,320,321
 1575 666 1575 666 1584 707 c 0,322,323
 1593 745 1593 745 1564 791 c 1,324,325
 1685 951 1685 951 1688 1197 c 1,326,327
 1675 1370 1675 1370 1619 1489 c 1,328,329
 1541 1564 1541 1564 1435 1586 c 1,330,331
 1366 1644 1366 1644 1456 1704 c 0,332,333
 1545 1762 1545 1762 1542 1856 c 0,334,335
 1538 1950 1538 1950 1461 1980 c 0,336,337
 1410 2000 1410 2000 1357 2000 c 1,338,-1
 1357 2000 l 1,209,210
112 3 m 1,339,-1
 112 0 l 1,340,-1
 113 0 l 1,341,-1
 117 0 l 1,342,-1
 118 0 l 1,343,-1
 112 3 l 1,339,-1
EndSplineSet
EndChar

StartChar: u13015
Encoding: 77845 77845 24
Width: 1763
GlyphClass: 2
Flags: W
LayerCount: 2
Fore
SplineSet
1236 1797 m 0,0,1
 1237 1797 1237 1797 1238 1796 c 0,2,3
 1224 1774 1224 1774 1249 1772 c 1,4,5
 1279 1780 1279 1780 1260 1796 c 1,6,-1
 1260 1796 l 1,7,8
 1279 1788 1279 1788 1298 1780 c 1,9,10
 1274 1772 1274 1772 1249 1772 c 0,11,12
 1246 1771 1246 1771 1243 1771 c 0,13,14
 1228 1771 1228 1771 1219 1783 c 1,15,16
 1228 1797 1228 1797 1236 1797 c 0,0,1
1249 1810 m 0,17,18
 1246 1810 1246 1810 1243 1810 c 0,19,20
 1216 1807 1216 1807 1199 1774 c 1,21,22
 1224 1752 1224 1752 1250 1752 c 0,23,24
 1253 1752 1253 1752 1256 1752 c 0,25,26
 1285 1755 1285 1755 1318 1774 c 1,27,-1
 1353 1774 l 1,28,-1
 1353 1785 l 1,29,-1
 1318 1785 l 1,30,31
 1275 1810 1275 1810 1249 1810 c 0,17,18
1432 1814 m 0,32,33
 1443 1814 1443 1814 1442 1803 c 0,34,35
 1439 1785 1439 1785 1425 1770 c 128,-1,36
 1411 1755 1411 1755 1399 1750 c 0,37,38
 1396 1748 1396 1748 1394 1748 c 0,39,40
 1390 1748 1390 1748 1399 1759 c 0,41,42
 1409 1771 1409 1771 1403 1771 c 0,43,44
 1402 1771 1402 1771 1399 1770 c 128,-1,45
 1396 1769 1396 1769 1395 1769 c 0,46,47
 1388 1769 1388 1769 1395 1781 c 0,48,49
 1403 1796 1403 1796 1414 1810 c 1,50,51
 1426 1814 1426 1814 1432 1814 c 0,32,33
1378 1750 m 1,52,53
 1392 1741 1392 1741 1384 1735 c 0,54,55
 1380 1731 1380 1731 1377 1731 c 128,-1,56
 1374 1731 1374 1731 1371 1736 c 0,57,58
 1367 1744 1367 1744 1378 1750 c 1,52,53
1441 1833 m 0,59,60
 1436 1833 1436 1833 1428 1831 c 0,61,62
 1406 1824 1406 1824 1389 1799 c 0,63,64
 1373 1774 1373 1774 1381 1763 c 1,65,66
 1364 1755 1364 1755 1360 1743 c 0,67,68
 1356 1730 1356 1730 1371 1724 c 0,69,70
 1374 1722 1374 1722 1378 1722 c 0,71,72
 1392 1722 1392 1722 1415 1744 c 0,73,74
 1444 1772 1444 1772 1453 1792 c 0,75,76
 1461 1813 1461 1813 1455 1825 c 0,77,78
 1452 1833 1452 1833 1441 1833 c 0,59,60
1395 1961 m 0,79,80
 1425 1961 1425 1961 1464 1952 c 0,81,82
 1563 1928 1563 1928 1564 1850 c 128,-1,83
 1565 1772 1565 1772 1484 1710 c 0,84,85
 1448 1682 1448 1682 1440 1682 c 0,86,87
 1430 1682 1430 1682 1462 1724 c 0,88,89
 1521 1799 1521 1799 1503 1847 c 0,90,91
 1492 1879 1492 1879 1444 1879 c 0,92,93
 1420 1879 1420 1879 1387 1871 c 1,94,95
 1276 1901 1276 1901 1320 1938 c 0,96,97
 1347 1961 1347 1961 1395 1961 c 0,79,80
1265 1869 m 0,98,99
 1266 1869 1266 1869 1267 1869 c 0,100,101
 1285 1868 1285 1868 1367 1835 c 1,102,103
 1372 1823 1372 1823 1382 1823 c 0,104,105
 1391 1823 1391 1823 1403 1831 c 0,106,107
 1420 1842 1420 1842 1437 1842 c 0,108,109
 1447 1842 1447 1842 1457 1838 c 0,110,111
 1483 1827 1483 1827 1464 1788 c 0,112,113
 1444 1750 1444 1750 1413 1724 c 0,114,115
 1381 1697 1381 1697 1385 1667 c 128,-1,116
 1389 1637 1389 1637 1422 1623 c 1,117,118
 1431 1574 1431 1574 1468 1541 c 128,-1,119
 1505 1508 1505 1508 1596 1466 c 1,120,121
 1453 1224 1453 1224 1453 1117 c 1,122,-1
 1491 880 l 1,123,124
 1491 847 1491 847 1480 828 c 0,125,126
 1454 787 1454 787 1219 787 c 0,127,128
 1204 787 1204 787 1188 787 c 0,129,130
 1064 774 1064 774 917 774 c 0,131,132
 806 774 806 774 682 781 c 1,133,134
 713 872 713 872 999 905 c 1,135,136
 1282 905 1282 905 1282 1073 c 0,137,138
 1282 1188 1282 1188 1158 1444 c 1,139,140
 1318 1488 1318 1488 1290 1541 c 1,141,142
 1301 1618 1301 1618 1252 1623 c 0,143,144
 1245 1622 1245 1622 1239 1622 c 0,145,146
 1196 1622 1196 1622 1188 1656 c 1,147,148
 1230 1673 1230 1673 1219 1684 c 128,-1,149
 1208 1695 1208 1695 1180 1697 c 1,150,151
 1199 1717 1199 1717 1166 1733 c 1,152,-1
 1216 1810 l 1,153,154
 1229 1820 1229 1820 1249 1820 c 0,155,156
 1280 1820 1280 1820 1329 1796 c 1,157,158
 1356 1799 1356 1799 1314 1820 c 0,159,160
 1276 1838 1276 1838 1239 1838 c 0,161,162
 1235 1838 1235 1838 1230 1838 c 1,163,164
 1248 1869 1248 1869 1265 1869 c 0,98,99
1418 1997 m 0,165,166
 1388 1997 1388 1997 1358 1992 c 0,167,168
 1268 1975 1268 1975 1197 1862 c 1,169,170
 1180 1821 1180 1821 1117 1741 c 1,171,172
 1106 1707 1106 1707 1124 1707 c 2,173,-1
 1125 1707 l 2,174,175
 1128 1707 1128 1707 1130 1707 c 0,176,177
 1146 1707 1146 1707 1153 1700 c 1,178,179
 1142 1692 1142 1692 1143 1682 c 0,180,181
 1144 1673 1144 1673 1153 1673 c 0,182,183
 1164 1673 1164 1673 1155 1666 c 0,184,185
 1147 1659 1147 1659 1153 1645 c 0,186,187
 1158 1631 1158 1631 1158 1611 c 0,188,189
 1158 1590 1158 1590 1184 1586 c 0,190,191
 1196 1584 1196 1584 1209 1584 c 0,192,193
 1227 1584 1227 1584 1249 1587 c 1,194,-1
 1249 1587 l 1,195,196
 1262 1533 1262 1533 1235 1533 c 0,197,198
 1233 1533 1233 1533 1231 1534 c 0,199,200
 1227 1534 1227 1534 1222 1534 c 0,201,202
 1190 1534 1190 1534 1128 1510 c 1,203,204
 993 1422 993 1422 858 1285 c 1,205,-1
 594 1191 l 1,206,207
 550 1186 550 1186 517 1171 c 0,208,209
 484 1155 484 1155 462 1136 c 0,210,211
 446 1125 446 1125 426 1091 c 0,212,213
 407 1056 407 1056 385 1032 c 0,214,215
 380 1023 380 1023 382 1018 c 0,216,217
 382 1014 382 1014 387 1014 c 0,218,219
 390 1014 390 1014 393 1015 c 1,220,-1
 393 1015 l 1,221,222
 391 1002 391 1002 398 1002 c 0,223,224
 400 1002 400 1002 404 1004 c 1,225,226
 404 991 404 991 411 991 c 0,227,228
 414 991 414 991 418 993 c 1,229,230
 418 988 418 988 424 985 c 0,231,232
 425 984 425 984 427 984 c 0,233,234
 431 984 431 984 437 990 c 0,235,236
 465 1029 465 1029 479 1051 c 0,237,238
 492 1073 492 1073 536 1103 c 0,239,240
 544 1107 544 1107 548 1107 c 0,241,242
 550 1107 550 1107 552 1106 c 0,243,244
 556 1103 556 1103 550 1092 c 0,245,246
 542 1084 542 1084 521 1070 c 0,247,248
 501 1056 501 1056 495 1043 c 0,249,250
 490 1029 490 1029 501 1026 c 0,251,252
 503 1025 503 1025 505 1025 c 0,253,254
 512 1025 512 1025 523 1039 c 0,255,256
 536 1056 536 1056 575 1076 c 0,257,258
 613 1095 613 1095 627 1147 c 1,259,260
 721 1166 721 1166 902 1205 c 1,261,262
 1043 1287 1043 1287 1103 1378 c 1,263,264
 1205 1285 1205 1285 1205 996 c 1,265,-1
 1089 974 l 1,266,267
 671 933 671 933 605 842 c 1,268,269
 514 790 514 790 470 476 c 1,270,271
 404 146 404 146 223 132 c 1,272,-1
 19 55 l 1,273,-1
 0 19 l 1,274,275
 22 0 22 0 41 0 c 2,276,-1
 415 19 l 1,277,278
 454 146 454 146 568 334 c 0,279,280
 682 523 682 523 657 668 c 1,281,-1
 657 668 l 1,282,283
 710 481 710 481 754 184 c 0,284,285
 762 113 762 113 580 55 c 1,286,287
 498 50 498 50 498 3 c 1,288,-1
 781 14 l 2,289,290
 875 14 875 14 875 88 c 1,291,292
 845 154 845 154 868 358 c 0,293,294
 891 561 891 561 817 688 c 1,295,-1
 1301 707 l 1,296,297
 1538 707 1538 707 1538 828 c 1,298,-1
 1524 1098 l 1,299,300
 1524 1252 1524 1252 1607 1362 c 1,301,-1
 1664 1117 l 1,302,-1
 1582 737 l 1,303,304
 1557 699 1557 699 1547 664 c 0,305,306
 1538 630 1538 630 1535 602 c 0,307,308
 1535 580 1535 580 1547 543 c 0,309,310
 1560 506 1560 506 1563 473 c 1,311,312
 1568 465 1568 465 1574 462 c 0,313,314
 1575 462 1575 462 1576 462 c 0,315,316
 1580 462 1580 462 1582 470 c 1,317,318
 1588 464 1588 464 1592 464 c 0,319,320
 1597 464 1597 464 1598 473 c 1,321,322
 1605 467 1605 467 1609 467 c 128,-1,323
 1613 467 1613 467 1615 476 c 1,324,325
 1619 472 1619 472 1624 472 c 0,326,327
 1625 472 1625 472 1626 472 c 0,328,329
 1631 473 1631 473 1631 487 c 0,330,331
 1618 531 1618 531 1611 557 c 128,-1,332
 1604 583 1604 583 1609 635 c 0,333,334
 1612 649 1612 649 1615 649 c 0,335,336
 1620 649 1620 649 1626 641 c 1,337,338
 1626 627 1626 627 1623 602 c 0,339,340
 1620 578 1620 578 1627 564 c 0,341,342
 1632 555 1632 555 1637 555 c 0,343,344
 1641 555 1641 555 1645 558 c 0,345,346
 1653 561 1653 561 1649 583 c 128,-1,347
 1645 605 1645 605 1655 646 c 0,348,349
 1664 688 1664 688 1634 735 c 1,350,351
 1761 902 1761 902 1763 1158 c 1,352,353
 1750 1340 1750 1340 1692 1464 c 1,354,355
 1612 1541 1612 1541 1499 1565 c 1,356,357
 1428 1626 1428 1626 1521 1688 c 0,358,359
 1615 1750 1615 1750 1611 1847 c 0,360,361
 1607 1945 1607 1945 1527 1977 c 0,362,363
 1474 1997 1474 1997 1418 1997 c 0,165,166
EndSplineSet
EndChar

